<?xml version="1.0" standalone="no"?>
<!DOCTYPE svg PUBLIC "-//W3C//DTD SVG 20010904//EN"
 "http://www.w3.org/TR/2001/REC-SVG-20010904/DTD/svg10.dtd">
<svg version="1.0" xmlns="http://www.w3.org/2000/svg"
 width="78.000000pt" height="78.000000pt" viewBox="0 0 78.000000 78.000000"
 preserveAspectRatio="xMidYMid meet">

<g transform="translate(0.000000,78.000000) scale(0.100000,-0.100000)"
fill="#000000" stroke="none">
<path d="M0 390 l0 -390 390 0 390 0 0 390 0 390 -390 0 -390 0 0 -390z m150
190 l0 -120 -38 0 c-50 0 -62 14 -62 75 0 56 12 75 47 75 21 0 23 5 23 45 0
33 4 45 15 45 13 0 15 -20 15 -120z m210 110 c0 -5 -7 -10 -15 -10 -19 0 -21
-66 -2 -74 10 -5 10 -7 0 -12 -9 -4 -13 -28 -13 -70 0 -50 -3 -64 -15 -64 -12
0 -15 14 -15 64 0 42 -4 66 -12 70 -10 5 -10 7 0 12 6 3 12 23 12 43 0 21 3
41 7 44 10 11 53 8 53 -3z m280 -110 c0 -73 -4 -120 -10 -120 -6 0 -10 47 -10
120 0 73 4 120 10 120 6 0 10 -47 10 -120z m70 56 c0 -13 6 -27 13 -30 10 -5
10 -7 0 -12 -16 -7 -18 -114 -3 -114 6 0 10 -5 10 -11 0 -6 -10 -9 -22 -7 -21
3 -23 10 -26 63 -2 33 -9 63 -15 68 -9 7 -9 10 1 14 6 2 12 16 12 29 0 15 6
24 15 24 9 0 15 -9 15 -24z m-445 -66 c0 -32 -3 -35 -32 -38 -27 -3 -33 -7
-33 -28 0 -17 5 -24 20 -24 11 0 20 7 20 15 0 8 7 15 15 15 16 0 19 -18 6 -38
-5 -8 -23 -12 -47 -10 l-39 3 -3 59 c-4 81 0 88 50 84 42 -3 43 -4 43 -38z
m199 24 c3 -9 6 -42 6 -74 l0 -59 -47 2 -48 2 0 40 c0 38 2 40 33 43 24 2 32
8 32 23 0 12 -7 19 -20 19 -11 0 -20 -4 -20 -10 0 -5 -7 -10 -15 -10 -17 0
-18 2 -9 24 8 22 80 22 88 0z m56 -48 c0 -59 2 -64 20 -59 17 5 20 14 20 64 0
46 3 59 15 59 12 0 15 -15 15 -74 l0 -75 -47 2 -48 2 -3 73 c-2 59 0 72 13 72
12 0 15 -13 15 -64z m-292 -393 c2 -60 0 -73 -13 -73 -12 0 -15 13 -15 60 0
53 -2 60 -20 60 -18 0 -20 -7 -20 -60 0 -47 -3 -60 -15 -60 -12 0 -15 15 -15
74 l0 74 48 -2 47 -1 3 -72z m116 61 c3 -9 6 -42 6 -74 l0 -59 -47 2 -48 2 0
40 c0 38 2 40 33 43 24 2 32 8 32 23 0 12 -7 19 -20 19 -11 0 -20 -4 -20 -10
0 -5 -7 -10 -15 -10 -17 0 -18 2 -9 24 8 22 80 22 88 0z m186 -60 c0 -43 -4
-74 -10 -74 -6 0 -10 27 -10 61 0 52 -2 60 -17 57 -14 -2 -19 -15 -21 -61 -2
-42 -7 -57 -17 -57 -12 0 -15 14 -15 61 0 52 -2 60 -17 57 -14 -2 -19 -15 -21
-61 -2 -42 -7 -57 -17 -57 -12 0 -15 16 -15 73 l0 73 80 1 80 1 0 -74z m115
36 c0 -32 -3 -35 -32 -38 -27 -3 -33 -7 -33 -28 0 -17 5 -24 20 -24 11 0 20 7
20 15 0 8 7 15 15 15 16 0 19 -18 6 -38 -5 -8 -23 -12 -47 -10 l-39 3 -3 59
c-4 81 0 88 50 84 42 -3 43 -4 43 -38z"/>
<path d="M80 535 c0 -30 2 -55 4 -55 26 0 36 16 36 61 0 42 -3 49 -20 49 -18
0 -20 -7 -20 -55z"/>
<path d="M200 570 c0 -13 7 -20 20 -20 13 0 20 7 20 20 0 13 -7 20 -20 20 -13
0 -20 -7 -20 -20z"/>
<path d="M400 506 c0 -19 4 -23 20 -19 11 3 20 14 20 24 0 12 -7 19 -20 19
-14 0 -20 -7 -20 -24z"/>
<path d="M280 126 c0 -19 4 -23 20 -19 11 3 20 14 20 24 0 12 -7 19 -20 19
-14 0 -20 -7 -20 -24z"/>
<path d="M580 190 c0 -13 7 -20 20 -20 13 0 20 7 20 20 0 13 -7 20 -20 20 -13
0 -20 -7 -20 -20z"/>
</g>
</svg>
