<?xml version="1.0" encoding="UTF-8" standalone="no"?>
<!-- Created with Inkscape (http://www.inkscape.org/) -->

<svg
   width="199.60603mm"
   height="199.60602mm"
   viewBox="0 0 199.60603 199.60602"
   version="1.1"
   id="svg5"
   xml:space="preserve"
   xmlns="http://www.w3.org/2000/svg"
   xmlns:svg="http://www.w3.org/2000/svg"><defs
     id="defs2" /><g
     id="layer1"
     transform="translate(-5.0569874,-38.518039)"><path
       style="fill:#ba7d76;fill-opacity:1;stroke:none;stroke-width:0.390215"
       d="M 5.0569874,138.32105 V 38.518039 H 104.86 204.66301 v 99.803011 99.80301 H 104.86 5.0569874 Z"
       id="path15635-8" /><g
       id="g70"
       transform="matrix(0.82910357,0,0,0.82910357,163.65938,420.93035)"><path
         style="fill:#beb7b7;fill-opacity:1;stroke-width:1"
         d="m -93.36701,-289.59989 -3.18051,11.31885 h -1.12252 v 15.06064 l -0.56129,16.18317 0.18709,2.99342 2.52571,2.80633 4.58367,-3.74178 2.52569,-13.84456 3.36761,-8.79317 2.3386,-9.54152 0.18709,-11.41242 24.32153,0.46773 -0.37417,15.34127 1.40316,11.03824 1.4967,6.73519 0.46773,8.32544 0.37417,3.18051 3.83532,2.24507 5.14493,-4.02241 -0.56126,-12.16077 0.93546,-14.68646 0.37417,-9.82215 -2.24506,-12.62849 -44.15293,-1.4967 z"
         id="path19-7" /><path
         style="fill:#b4acac;fill-opacity:1;stroke-width:1"
         d="m -98.23133,-247.03723 3.27406,2.15152 4.02241,-0.0935 0.74835,2.5257 0.28064,5.98684 -9.63506,0.56126 -11.50597,-0.18709 -0.74834,-2.61924 -0.0936,-2.52569 2.7128,1.30962 4.30305,-1.30962 4.02238,-3.18051 z"
         id="path20-1" /><path
         style="fill:#b4acac;fill-opacity:1;stroke-width:1"
         d="m -46.03359,-247.03723 -4.58366,2.05797 -4.39659,-0.0935 v 3.83532 l -0.37417,4.8643 13.93812,1.21608 5.61266,0.56126 4.02238,-0.56126 0.93546,-1.77735 -0.0936,-1.59025 -1.49669,0.8419 -2.43216,-0.74836 -4.49014,-1.77734 -2.99341,-2.61924 z"
         id="path21-1" /><path
         style="fill:#702012;fill-opacity:1;stroke-width:1"
         d="m -69.21254,-352.27154 -19.19663,66.6005 11.72215,10.0956 4.32599,0.79108 17.59786,-0.37735 9.66504,-6.76756 -12.2543,-59.12002 z"
         id="path25-5" /><path
         style="fill:#e2dfdf;fill-opacity:1;stroke-width:1"
         d="m -96.7346,-285.01623 v 38.96256 l 1.77733,1.16796 2.7128,-38.35318 z"
         id="path28-2" /><path
         style="fill:#dabf60;fill-opacity:1;stroke-width:1"
         d="m -68.20358,-358.44852 -18.89596,8.2319 -5.0514,20.39265 -2.80633,23.57319 -4.49013,20.95391 -1.85973,6.94069 1.83287,1.92084 5.9862,0.29766 12.00547,0.7276 4.79557,-0.16536 8.33437,0.39687 -0.13229,-36.24791 2.51354,-18.78542 2.91042,15.875 4.67955,33.90434 -0.1225,5.02312 7.48149,0.49546 10.05417,-0.26459 4.89479,-1.71979 -6.21771,-46.43437 -2.80694,-19.44688 -3.14618,-10.58333 z"
         id="path22-7" /><path
         style="fill:#4b3e12;fill-opacity:1;stroke-width:1"
         d="m -45.09813,-404.09817 -5.79202,-3.50435 -8.14609,9.86536 -4.22318,13.93811 7.88744,28.62001 4.50787,-0.93089 1.46293,-16.37027 2.54593,-19.87571 z"
         id="path51-6" /><path
         style="fill:#6d6067;fill-opacity:1;stroke-width:1"
         d="m -71.59379,-413.1257 3.70417,1.0914 3.10885,-0.33072 2.21589,-1.55443 0.66145,1.78594 3.3073,1.48828 4.92786,1.2237 3.27422,0.95911 -1.46309,3.34648 -4.78769,7.40222 -6.34617,4.42132 -8.13977,0.63883 -3.70417,-1.48828 -4.82864,-6.46575 -0.72761,-5.87045 -0.62838,-2.81119 7.04453,-2.34818 1.56197,-0.49609 0.45548,-1.88516 z"
         id="path66-1" /><path
         style="fill:#fbd1ba;fill-opacity:1;stroke-width:1"
         d="m -67.65698,-434.93846 -5.37883,1.40316 c 0,0 -2.15151,6.03361 -2.43212,9.35445 -0.28065,3.32081 2.44029,9.97694 3.14487,10.56571 0.70458,0.58876 2.32314,2.30654 4.10479,2.34342 1.79215,0.0371 4.43674,-0.76314 5.12422,-1.58939 0.68748,-0.82625 3.48188,-3.88296 3.71572,-8.56019 0.23386,-4.67722 -2.3386,-12.25431 -2.3386,-12.25431 z"
         id="path69-4" /><path
         style="fill:#dabf60;fill-opacity:1;stroke-width:1"
         d="m -73.9089,-410.64523 7.13902,10.58333 9.00057,-9.65729 6.87916,2.11667 -8.33437,21.43125 3.18884,16.40416 7.79137,16.40417 -3.96875,6.48229 -30.42709,1.5875 -4.45939,-4.92347 9.88335,-16.77236 3.30729,-20.37292 -6.08541,-21.56354 z"
         id="path30-2" /><path
         style="fill:#dfc774;fill-opacity:1;stroke-width:1"
         d="m -66.76988,-358.08321 -3.58521,69.74615 -2.16474,12.96006 0.3176,1.18528 -8.85042,0.0715 0.62839,-16.70183 1.19063,-16.99948 0.69453,-13.89062 1.02526,-14.58516 1.91823,-13.7914 0.82192,-5.49757 z"
         id="path24-3" /><path
         style="fill:#e3d08b;fill-opacity:1;stroke-width:1"
         d="m -65.33621,-357.7179 -0.23831,21.28829 -0.39688,6.21771 -2.71891,26.45833 0.8419,31.49345 -6.06049,-0.73564 v -12.33619 l 0.19844,-23.48177 0.82683,-13.42761 1.0914,-10.38489 1.2237,-8.99584 1.35599,-10.64948 1.00896,-6.17698 z"
         id="path23-2" /><path
         style="fill:#dfc774;fill-opacity:1;stroke-width:1"
         d="m -56.02153,-355.34457 -9.31468,-2.37333 1.57599,18.30564 3.08695,25.21019 3.64823,24.13445 -0.0468,16.22993 10.33666,0.0468 -0.32742,-10.85115 -1.46362,-13.82574 -1.76363,-13.86337 -2.47894,-18.10084 -2.80633,-18.00727 -0.98221,-5.09818 z"
         id="path27-2" /><path
         style="fill:#e2dfdf;fill-opacity:1;stroke-width:1"
         d="m -54.76317,-275.16171 -2.00461,2.67408 1.37977,10.10912 1.30966,4.86431 1.02894,7.48355 0.23387,5.00464 2.19829,0.0468 -0.37418,-8.41899 -1.02899,-6.36101 -1.21608,-7.85773 z"
         id="path29-1" /><path
         style="fill:#e3d08b;fill-opacity:1;stroke-width:1"
         d="m -62.72983,-357.05383 -4.04005,-1.02938 1.19536,21.6536 3.52375,29.4119 2.30034,16.66632 0.34001,18.09127 5.28527,-0.45503 0.0468,-14.92032 -1.07574,-13.42361 -1.8709,-15.38806 -1.87089,-14.40582 -2.19829,-16.74442 z"
         id="path26-6" /><path
         style="fill:#dabf60;fill-opacity:1;stroke-width:1"
         d="m -83.16931,-356.10993 -1.49807,-8.15046 -1.56051,-7.19082 -0.5133,-5.59194 -0.52916,-8.99583 -0.57754,-8.33057 3.35566,-12.76995 4.49792,-1.78594 7.58124,11.37536 -0.18709,18.52256 -4.11596,20.579 z"
         id="path50-8" /><path
         style="fill:#78631c;fill-opacity:1;stroke-width:1"
         d="m -88.924,-392.65357 2.18281,4.16719 -1.05833,4.89479 -1.52135,3.175 0.0661,3.175 -0.52916,4.43177 -2.11667,2.05052 -0.13229,2.64584 -1.98438,1.98437 -4.7625,0.72761 -0.3638,-4.79558 6.84609,-20.73671 z"
         id="path32-5" /><path
         style="fill:#4e493a;fill-opacity:1;stroke-width:1"
         d="m -88.37798,-353.26523 -3.58875,-16.17115 -7.1768,-0.76068 7.22646,18.62402 z"
         id="path37-7" /><path
         style="fill:#dabf60;fill-opacity:1;stroke-width:1"
         d="m -94.87712,-393.38117 -3.43959,7.47448 -0.66146,3.77031 -1.5875,1.45521 -0.33072,2.3151 -1.19063,1.98438 v 2.71198 l -0.66146,2.18281 7.2099,2.57969 3.50573,-7.40834 0.26458,-5.09322 1.32292,-8.0698 1.52135,-3.175 z"
         id="path31-6" /><path
         style="fill:#aba1a6;fill-opacity:1;stroke-width:1"
         d="m -88.0641,-408.79315 2.24896,0.52917 2.64583,2.24896 -0.19844,9.12812 -1.78594,4.69635 0.33073,2.38125 -1.91823,1.32292 -2.94349,-2.57969 -6.91224,1.42214 v -7.17682 l 2.31511,-6.81302 z"
         id="path33-1" /><path
         style="fill:#978b91;fill-opacity:1;stroke-width:1"
         d="m -99.72802,-364.15474 4.30302,15.20095 9.19711,-2.74201 -4.30017,-3.13889 -3.62463,-14.00463 z"
         id="path36-8" /><path
         style="fill:#cbc5c8;fill-opacity:1;stroke-width:1"
         d="m -97.35759,-361.36659 2.97656,11.54245 1.85208,-1.2237 -2.87734,-11.60859 z"
         id="path56-9" /><path
         style="fill:#aba1a6;fill-opacity:1;stroke-width:1"
         d="m -94.28816,-371.54955 -7.79886,-2.12016 -1.85208,0.46302 -0.33073,7.47448 5.12627,6.87916 4.20029,-0.99218 0.92602,-6.28386 z"
         id="path34-2" /><path
         style="fill:#aba1a6;fill-opacity:1;stroke-width:1"
         d="m -95.50551,-350.8494 -1.09141,2.05052 -0.0992,2.11667 2.67888,2.44739 1.81903,3.14193 2.573,1.07259 c 0,0 1.95799,-1.20488 1.99106,-1.33717 0.0331,-0.13229 0,-1.85209 0,-1.85209 l 2.31511,-0.13229 0.85989,-1.05833 0.0661,-1.25677 1.37747,-0.0506 0.67305,-1.76837 0.8599,-0.19844 1.5875,-1.25677 -0.42995,-2.08359 -1.128,-1.66172 -2.01393,-0.75261 -0.97425,-1.29876 -2.65832,-0.12337 -2.3867,-0.0331 -2.08359,0.0992 -0.95912,1.68672 -2.34817,0.46302 z"
         id="path35-7" /><path
         style="fill:#d4b444;fill-opacity:1;stroke-width:1"
         d="m -48.83962,-390.66919 3.96875,-3.37344 4.24989,-0.52917 3.68761,3.24115 0.99218,2.84427 -1.12448,2.31511 0.79375,1.4552 0.79375,2.57969 1.12025,1.91823 -1.98014,1.19063 -5.6224,1.05833 -3.30729,-1.05833 -1.78594,-5.35782 z"
         id="path41-9" /><path
         style="fill:#504212;fill-opacity:1;stroke-width:1"
         d="m -36.33806,-379.02752 -0.19844,7.57631 -5.06227,-3.73986 0.97779,-5.88698 z"
         id="path43-5" /><path
         style="fill:#b6adb2;fill-opacity:1;stroke-width:1"
         d="m -34.35792,-380.21815 2.25319,2.24896 2.11667,-1.05833 2.18281,4.10104 1.45521,6.76145 -0.8599,3.90464 h -2.57968 l 0.31345,3.37534 -3.62075,2.43653 -2.05052,-4.37317 -3.9202,-10.49943 2.20041,-7.75693 z"
         id="path44-4" /><path
         style="fill:#dabf60;fill-opacity:1;stroke-width:1"
         d="m -54.32973,-408.66086 3.43958,1.05834 4.00183,1.81901 1.79019,1.68534 -0.87854,5.87113 -2.26764,4.84587 -2.08135,9.78011 -7.30443,5.63187 -4.30641,0.76068 -3.39971,-11.92258 z"
         id="path52-3" /><path
         style="fill:#c8c1c5;fill-opacity:1;stroke-width:1"
         d="m -60.94431,-379.68898 4.16719,-5.42396 4.63714,-1.45521 5.94619,0.7276 4.69635,3.37344 5.42396,7.14375 2.57969,3.43959 -1.10517,5.08547 -3.92191,4.24109 -8.7974,-0.99219 -2.26999,1.73326 -4.49009,1.83861 -4.48471,-2.64583 -4.69636,-8.26823 0.33073,-3.83646 z"
         id="path39-1" /><path
         style="fill:#352f32;fill-opacity:1;stroke-width:1"
         d="m -50.86411,-361.1614 3.01667,-4.57081 2.74931,-2.0093 3.08695,-0.0935 4.25945,-0.33002 0.53353,0.7734 2.86028,0.0135 -0.78952,4.55644 -8.79739,2.46592 z"
         id="path40-2" /><path
         style="fill:#bfb8bc;fill-opacity:1;stroke-width:1"
         d="m -56.77712,-385.11294 -2.02526,6.13143 0.56126,5.98683 3.22903,5.38266 4.02066,3.08311 1.63566,1.08212 -1.50834,1.75622 -3.21424,1.71304 -4.48471,-2.64583 -4.69636,-8.26823 0.33073,-3.83646 1.98438,-4.96093 z"
         id="path45-3" /><path
         style="fill:#a59ba0;fill-opacity:1;stroke-width:1"
         d="m -49.96244,-357.7179 -1.24325,-1.88 -0.93429,-1.96713 2.55172,-0.25111 -1.40317,-2.71277 1.30964,-0.87257 -0.18712,-2.77567 1.6246,-1.49669 3.14618,1.40316 3.08695,2.0093 2.15154,0.8599 -2.15154,-2.96275 -0.56126,-1.83283 1.8709,-1.25415 2.3386,1.8709 2.28946,3.31893 2.94902,-1.07386 1.49672,1.93376 0.56126,2.08864 -0.0935,1.87087 1.6838,0.55692 0.37418,6.00078 -1.68381,1.11294 -0.18709,1.49979 -5.79974,0.6985 -3.46115,-2.38537 -1.12252,-1.59025 -3.74177,-0.28062 -3.14618,-1.21608 z"
         id="path38-3" /><path
         style="fill:#aba1a6;fill-opacity:1;stroke-width:1"
         d="m -48.83962,-390.66919 6.09369,-3.63802 5.81256,2.97656 0.99218,-4.29948 -0.39687,-6.41614 -4.69636,-6.74688 h -2.51354 l -2.57969,1.5875 -1.52135,2.84427 -1.19062,6.68073 0.59531,4.29948 -1.19063,1.45521 z"
         id="path42-4" /><path
         style="fill:#3e383b;fill-opacity:1;stroke-width:1"
         d="m -48.04587,-380.41659 -5.35782,2.14974 v 0.79375 l 0.89297,0.42995 6.18464,-1.48828 z"
         id="path46-1" /><path
         style="fill:#3e383b;fill-opacity:1;stroke-width:1"
         d="m -46.32608,-380.96229 3.71506,-0.26459 0.89861,0.26459 0.11574,0.5457 -2.93789,1.22614 z"
         id="path47-1" /><path
         style="fill:#afa6ab;fill-opacity:1;stroke-width:1"
         d="m -62.92869,-374.72805 1.08612,3.27684 3.46114,6.08039 2.99342,2.94664 2.91679,1.59015 -1.60713,0.8565 -4.48471,-2.64583 -4.69636,-8.26823 z"
         id="path48-3" /><path
         style="fill:#e3e0e2;fill-opacity:1;stroke-width:1"
         d="m -53.555,-386.1241 6.52884,4.89722 6.15115,7.23399 6.31026,6.61378 -0.59513,-0.003 -0.94955,-0.004 -11.58565,-13.7314 -6.37721,-4.84402 z"
         id="path49-8" /><path
         style="fill:#463a10;fill-opacity:1;stroke-width:1"
         d="m -83.91835,-360.18514 11.50528,1.2886 h 15.34125 l 5.86613,-0.70136 2.01263,4.23743 -4.07699,0.717 -5.6025,0.61492 -8.79938,0.37417 -12.45854,-0.86529 -3.82886,-1.02595 0.50803,-2.17228 z"
         id="path53-7" /><path
         style="fill:#cac4c7;fill-opacity:1;stroke-width:0.690403"
         d="m -93.38406,-344.62306 2.4466,2.74066 1.44639,0.36335 -2.91576,-2.72513 z"
         id="path54-4" /><path
         style="fill:#cac4c7;fill-opacity:1;stroke-width:0.690403"
         d="m -91.43757,-346.63566 2.4466,2.74065 1.44639,0.36336 -2.91575,-2.72513 z"
         id="path54-8-2" /><path
         style="fill:#cac4c7;fill-opacity:1;stroke-width:0.690403"
         d="m -89.5752,-348.73274 2.4466,2.74066 1.44639,0.36335 -2.91576,-2.72513 z"
         id="path54-8-4-7" /><path
         style="fill:#cac4c7;fill-opacity:1;stroke-width:0.690403"
         d="m -87.31644,-350.49555 2.44659,2.74066 1.44639,0.36335 -2.91576,-2.72513 z"
         id="path54-8-4-5-7" /><path
         style="fill:#a59a9f;fill-opacity:1;stroke-width:1"
         d="m -83.95933,-352.27154 2.2783,2.4474 0.79195,-2.02144 -0.56399,-0.83085 -2.01392,-0.7526 z"
         id="path55-9" /><path
         style="fill:#ddd9db;fill-opacity:1;stroke-width:1"
         d="m -103.01306,-373.4382 -0.16537,7.40833 4.71805,6.35323 -3.4282,-6.84932 z"
         id="path57-3" /><path
         style="fill:#ddd9db;fill-opacity:1;stroke-width:1"
         d="m -87.53494,-407.83403 -5.62239,4.23333 -2.38125,6.51536 v 3.70417 l 0.99219,-3.86953 2.24895,-5.88698 z"
         id="path58-1" /><path
         style="fill:#bcb4b8;fill-opacity:1;stroke-width:1"
         d="m -47.61593,-367.88195 1.86799,0.61537 2.79529,2.06353 2.51355,0.94266 -3.07579,-0.44656 -2.41432,-1.42214 z"
         id="path59-9" /><path
         style="fill:#c2bbbe;fill-opacity:1;stroke-width:1"
         d="m -49.86489,-360.18514 1.02527,1.46439 3.175,0.82682 z"
         id="path60-8" /><path
         style="fill:#e2dee0;fill-opacity:1;stroke-width:1"
         d="m -59.87815,-379.19046 -1.1517,3.48147 0.12271,3.16376 1.59144,3.0562 -1.1458,-4.15769 0.15071,-2.31799 z"
         id="path61-6" /><path
         style="fill:#e2dee0;fill-opacity:1;stroke-width:1"
         d="m -44.09252,-407.37223 -1.7072,1.30963 -1.07574,2.22168 -0.11695,1.07575 1.35639,-2.57247 z"
         id="path62-5" /><path
         style="fill:#e2dee0;fill-opacity:1;stroke-width:1"
         d="m -37.59483,-400.02883 0.13229,4.10104 -0.26458,1.91823 0.66145,-1.9513 z"
         id="path63-0" /><path
         style="fill:#e2dee0;fill-opacity:1;stroke-width:1"
         d="m -109.17603,-239.92781 3.53132,0.0233 4.44336,-1.56684 2.40876,-2.29186 -4.37319,2.29186 -3.01651,0.63237 z"
         id="path64-2" /><path
         style="fill:#e2dee0;fill-opacity:1;stroke-width:1"
         d="m -33.68575,-238.05694 -7.81169,-0.6422 -3.80338,-1.9513 4.10104,1.32291 4.05289,0.008 z"
         id="path65-8" /><path
         style="fill:#dabf60;fill-opacity:1;stroke-width:1"
         d="m -73.3052,-409.75028 -0.66984,-1.88714 -7.04453,2.34818 -0.46411,0.95517 0.9289,1.12413 z"
         id="path67-6" /><path
         style="fill:#dabf60;fill-opacity:1;stroke-width:1"
         d="m -57.76931,-409.71919 0.006,-0.71919 4.30759,1.07911 3.06156,0.89685 0.50853,1.46772 -1.48717,0.77071 z"
         id="path68-0" /><path
         style="fill:#50392e;fill-opacity:1;stroke-width:1"
         d="m -62.53181,-431.05122 -6.87917,0.33073 -4.42091,-0.41223 -1.40873,5.36562 0.48453,6.32492 0.92969,2.7809 -3.02598,0.62516 -5.06016,-2.97656 3.04271,-10.48412 3.60495,-6.58151 2.81119,-2.51354 4.66328,-0.99218 5.6224,0.82682 2.80472,2.21588 2.38773,4.20026 2.14974,5.6224 0.89297,7.60677 0.26458,1.55443 -2.3151,0.99219 -4.5815,-0.11269 0.41431,-5.37742 -0.13303,-6.51409 z"
         id="path70-2" /></g></g></svg>
