<?xml version="1.0" encoding="iso-8859-1"?>
<!-- Uploaded to: SVG Repo, www.svgrepo.com, Generator: SVG Repo Mixer Tools -->
<svg fill="#000000" height="800px" width="800px" version="1.1" id="Layer_1" xmlns="http://www.w3.org/2000/svg" xmlns:xlink="http://www.w3.org/1999/xlink" 
	 viewBox="0 0 512.009 512.009" xml:space="preserve">
<g>
	<g>
		<g>
			<path d="M121.227,238.02c3.166,11.221,11.349,37.675,24.738,64.461c9.028,18.057,36.497,72.986,110.037,72.986
				s101.009-54.929,110.029-72.986c13.397-26.786,21.581-53.239,24.747-64.461c10.837-2.978,18.825-12.919,18.825-24.687v-17.067
				c0-8.602-4.77-20.719-17.314-24.457c-0.777-14.387-4.002-47.548-17.425-81.118c-1.749-4.369-6.716-6.477-11.102-4.753
				c-4.369,1.758-6.502,6.716-4.753,11.102c7.364,18.389,11.409,36.881,13.662,51.678c-15.138-7.586-35.533-21.513-40.124-39.859
				c-1.143-4.565-5.786-7.339-10.351-6.204c-4.565,1.143-7.347,5.769-6.204,10.351c8.03,32.102,45.79,50.065,58.948,55.441
				c0.503,6.63,0.529,10.633,0.529,10.752c0.009,4.71,3.823,8.533,8.533,8.533c6.869,0,8.431,4.693,8.533,8.533v17.067
				c0,4.702-3.831,8.533-8.533,8.533c-3.917,0-7.33,2.671-8.277,6.46c-0.085,0.333-8.499,33.613-24.96,66.526
				c-3.968,7.945-11.017,21.905-23.458,34.722c-5.342-10.001-14.686-30.268-20.275-58.18c-0.913-4.625-5.385-7.629-10.035-6.69
				c-4.625,0.922-7.62,5.419-6.69,10.035c6.648,33.246,18.236,56.44,23.765,66.193c-14.071,10.01-32.819,17.468-58.069,17.468
				c-25.25,0-43.998-7.458-58.069-17.468c5.53-9.754,17.118-32.947,23.774-66.193c0.922-4.617-2.074-9.114-6.699-10.035
				c-4.625-0.947-9.122,2.065-10.035,6.69c-5.555,27.767-14.942,48.119-20.284,58.172c-12.433-12.826-19.482-26.769-23.458-34.714
				c-16.41-32.836-24.866-66.193-24.951-66.526c-0.956-3.789-4.369-6.46-8.277-6.46c-4.702,0-8.533-3.831-8.533-8.533v-16.964
				c0.102-3.942,1.664-8.636,8.533-8.636c4.71,0,8.533-3.823,8.533-8.533c0-0.128,0.017-4.113,0.521-10.735
				c13.099-5.342,50.918-23.313,58.957-55.458c1.143-4.582-1.638-9.208-6.204-10.351c-4.548-1.135-9.207,1.638-10.351,6.204
				c-4.855,19.405-26.197,32.879-40.124,39.808c2.244-14.771,6.289-33.22,13.662-51.627c1.749-4.386-0.384-9.344-4.753-11.102
				c-4.403-1.741-9.353,0.384-11.102,4.753c-13.423,33.57-16.649,66.731-17.425,81.118c-12.544,3.738-17.314,15.855-17.314,24.457
				v17.067C102.403,225.101,110.381,235.042,121.227,238.02z"/>
			<path d="M221.869,187.733h-34.133c-4.71,0-8.533,3.823-8.533,8.533s3.823,8.533,8.533,8.533h8.533
				c0,4.71,3.823,8.533,8.533,8.533c4.71,0,8.533-3.823,8.533-8.533h8.533c4.71,0,8.533-3.823,8.533-8.533
				S226.58,187.733,221.869,187.733z"/>
			<path d="M151.256,76.467c2.492,0.717,61.389,17.399,104.747,17.399c43.358,0,102.255-16.683,104.747-17.399
				c2.355-0.666,4.309-2.321,5.359-4.54c1.05-2.21,1.101-4.77,0.137-7.023C365.11,62.251,337.496,0,256.003,0
				S146.895,62.251,145.76,64.905c-0.964,2.253-0.913,4.813,0.137,7.023C146.947,74.146,148.901,75.802,151.256,76.467z
				 M256.003,17.067c53.188,0,79.607,30.285,89.634,45.756C326.889,67.576,286.586,76.8,256.003,76.8
				c-30.549,0-70.878-9.224-89.634-13.978C176.404,47.334,202.831,17.067,256.003,17.067z"/>
			<path d="M290.136,204.8h8.533c0,4.71,3.823,8.533,8.533,8.533c4.71,0,8.533-3.823,8.533-8.533h8.533
				c4.71,0,8.533-3.823,8.533-8.533s-3.823-8.533-8.533-8.533h-34.133c-4.71,0-8.533,3.823-8.533,8.533S285.426,204.8,290.136,204.8
				z"/>
			<path d="M238.936,307.2h34.133c4.71,0,8.533-3.823,8.533-8.533s-3.823-8.533-8.533-8.533h-34.133
				c-4.71,0-8.533,3.823-8.533,8.533S234.226,307.2,238.936,307.2z"/>
			<path d="M349.263,372.292c-0.887-2.21-2.662-3.951-4.898-4.804c-2.236-0.845-4.702-0.725-6.844,0.35l-68.267,34.125
				c-4.216,2.116-5.931,7.236-3.823,11.452c2.116,4.215,7.228,5.939,11.452,3.823l59.972-29.995l10.53,26.325l-52.079,22.323
				c-2.33,0.998-4.096,2.978-4.813,5.41c-0.725,2.432-0.333,5.06,1.075,7.168c0.162,0.239,16.341,24.747,24.422,57.071
				c0.973,3.874,4.446,6.46,8.269,6.46c0.691,0,1.382-0.077,2.082-0.256c4.565-1.143,7.347-5.769,6.204-10.351
				c-5.879-23.526-15.556-43.017-21.53-53.666l50.748-21.751c4.258-1.818,6.281-6.707,4.565-11.017L349.263,372.292z"/>
			<path d="M256.259,452.267h-0.085c-4.71,0-8.491,3.823-8.491,8.533s3.857,8.533,8.576,8.533c4.719,0,8.533-3.823,8.533-8.533
				S260.978,452.267,256.259,452.267z"/>
			<path d="M128.003,409.6c-85.632,0-108.22,33.143-119.031,65.57l-8.533,25.6c-1.485,4.471,0.93,9.301,5.402,10.795
				c0.896,0.299,1.809,0.444,2.697,0.444c3.576,0,6.904-2.27,8.098-5.845l8.533-25.6c6.281-18.833,17.963-53.897,102.835-53.897
				c4.71,0,8.533-3.823,8.533-8.533S132.713,409.6,128.003,409.6z"/>
			<path d="M511.567,500.77l-8.533-25.6c-10.121-30.37-32.802-65.212-119.031-65.212c-4.71,0-8.533,3.814-8.533,8.525
				c0,4.719,3.823,8.542,8.533,8.542c84.992,0,97.05,36.156,102.835,53.538l8.533,25.6c1.195,3.575,4.523,5.845,8.098,5.845
				c0.896,0,1.801-0.145,2.697-0.444C510.637,510.071,513.061,505.242,511.567,500.77z"/>
			<path d="M256.259,486.4h-0.085c-4.71,0-8.491,3.823-8.491,8.533s3.857,8.533,8.576,8.533c4.719,0,8.533-3.823,8.533-8.533
				S260.978,486.4,256.259,486.4z"/>
			<path d="M242.75,401.963l-68.267-34.125c-2.133-1.075-4.617-1.195-6.852-0.35c-2.227,0.853-4.002,2.594-4.89,4.804
				l-17.067,42.667c-1.715,4.309,0.307,9.199,4.565,11.017l50.748,21.751c-5.973,10.65-15.65,30.14-21.53,53.666
				c-1.143,4.582,1.638,9.207,6.204,10.351c0.7,0.179,1.391,0.256,2.082,0.256c3.823,0,7.296-2.586,8.269-6.46
				c8.047-32.179,24.269-56.832,24.431-57.079c1.399-2.108,1.792-4.736,1.067-7.168c-0.725-2.423-2.483-4.403-4.813-5.402
				l-52.079-22.323l10.53-26.325l59.972,29.995c4.215,2.108,9.344,0.393,11.452-3.823S246.966,404.079,242.75,401.963z"/>
		</g>
	</g>
</g>
</svg>