<?xml version="1.0" encoding="UTF-8" standalone="no"?>
<!-- Created with Inkscape (http://www.inkscape.org/) -->

<svg
   width="199.60603mm"
   height="199.60602mm"
   viewBox="0 0 199.60603 199.60602"
   version="1.1"
   id="svg5"
   xml:space="preserve"
   xmlns="http://www.w3.org/2000/svg"
   xmlns:svg="http://www.w3.org/2000/svg"><defs
     id="defs2" /><g
     id="layer1"
     transform="translate(-5.0569874,-38.518039)"><path
       style="fill:#7a7a7a;fill-opacity:1;stroke:none;stroke-width:0.390215"
       d="M 5.0569874,138.32105 V 38.518039 H 104.86 204.66301 v 99.803011 99.80301 H 104.86 5.0569874 Z"
       id="path15635-8" /><g
       id="g112"
       transform="translate(146.40708,-5.4039081)"><path
         style="fill:#562f24;fill-opacity:1;stroke:none;stroke-width:0.599001;stroke-dasharray:none;stroke-opacity:1"
         d="m -57.252387,227.43055 -3.068883,5.33081 -0.502992,3.53273 c 0,0 4.233334,0.92604 5.027084,0.92604 0.793749,0 10.847916,-1.05833 10.847916,-1.05833 l 0.661458,-9.39271 z"
         id="path111" /><path
         style="fill:#562f24;fill-opacity:1;stroke:none;stroke-width:0.599001;stroke-dasharray:none;stroke-opacity:1"
         d="m -38.334679,226.23992 0.396875,10.45104 h 9.392708 l 8.863542,-0.92604 2.622173,-1.51391 -0.974934,-1.68864 -2.550341,-2.55034 -6.968252,-3.30909 z"
         id="path112" /><path
         style="fill:#000000;fill-opacity:1;stroke:none;stroke-width:0.373755;stroke-dasharray:none;stroke-opacity:1"
         d="m -18.738817,190.02533 -39.106843,0.11673 c 0,0 -10.36592,40.50262 -8.860169,40.50262 1.505813,0 24.035981,-2.91341 24.035981,-2.91341 l 26.032293,0.81715 z"
         id="path110-9" /><path
         style="fill:#12121b;fill-opacity:1;stroke:none;stroke-width:0.373755;stroke-dasharray:none;stroke-opacity:1"
         d="m -49.52029,93.124238 -9.842914,17.499602 1.517544,22.14216 -6.656889,17.31449 -2.20328,15.6836 -5.148206,62.89951 5.148206,1.98108 h 12.769119 l 1.320683,-8.25453 0.660404,6.93381 7.924347,1.65091 13.366877,-0.33019 c 0,0 3.522903,-33.01811 3.522903,-30.70684 0,2.31127 3.802065,31.03703 3.802065,31.03703 h 8.364055 l 6.9338041,-2.31127 -2.6424271,-41.27265 -1.897538,-28.72576 -5.571814,-33.96738 6.535465,-7.45779 -3.03515,-10.21447 -6.128703,-15.467594 -7.996478,2.276366 z"
         id="path109-6" /><path
         style="fill:#f8b18a;fill-opacity:1;stroke:none;stroke-width:0.373755;stroke-dasharray:none;stroke-opacity:1"
         d="m -43.662138,76.790766 -0.933888,6.712353 -2.042859,3.677215 c 0,0 9.514021,4.377622 9.805849,4.377622 0.291829,0 9.864253,-4.26089 9.689169,-4.494359 -0.175147,-0.233488 -3.910946,-5.428259 -3.910946,-5.428259 l -1.108723,-4.49436 z"
         id="path105-8" /><path
         style="fill:#fbd1ba;fill-opacity:1;stroke:none;stroke-width:0.373755;stroke-dasharray:none;stroke-opacity:1"
         d="m -28.388988,130.59979 c 0.412752,-0.99054 1.196951,-5.77816 1.568397,-5.65435 0.371446,0.12382 8.66724,-0.24763 8.66724,-0.24763 0,0 0.288895,6.35599 -0.04118,6.31471 -0.330202,-0.0412 -8.25455,-1.85727 -8.25455,-1.85727 z"
         id="path102-3" /><path
         style="fill:#765e41;fill-opacity:1;stroke:none;stroke-width:0.373755;stroke-dasharray:none;stroke-opacity:1"
         d="m -45.938485,138.25262 c 1.143664,-1.7302 5.42824,-18.03582 5.42824,-18.03582 l 17.170814,4.6009 -7.65673,25.92574 -0.93395,0.3502 -9.864252,-4.31924 -3.852294,-1.69269 z"
         id="path104-4" /><path
         style="fill:#fbd1ba;fill-opacity:1;stroke:none;stroke-width:0.373755;stroke-dasharray:none;stroke-opacity:1"
         d="m -45.763401,76.382188 -0.875484,0.466944 -1.109035,-1.692679 -0.642059,-4.260884 0.875547,-0.933906 0.875547,0.116737 c 0,0 -1.225778,-2.568199 -0.758803,-3.502099 0.466912,-0.933882 -0.05865,-4.902944 -0.05865,-4.902944 l 3.443784,-3.910666 4.933749,-1.517575 4.288445,0.583675 2.801662,1.517582 2.33475,1.867781 1.692691,4.26089 -0.233488,3.210253 -0.233487,2.451482 -0.466975,1.108996 0.583718,1.167369 v 2.5682 l -0.933887,3.210253 -1.809434,3.443741 -2.04286,2.976778 -3.151893,0.233468 -3.210297,-1.225728 -3.502063,-2.101256 -2.042921,-3.093515 z"
         id="path99-8" /><path
         style="fill:#472f11;fill-opacity:1;stroke:none;stroke-width:0.373755;stroke-dasharray:none;stroke-opacity:1"
         d="m -38.17562,62.087208 c 0.830497,0.165088 4.379918,-0.165089 4.71012,-0.165089 0.330202,0 2.80653,0.495272 2.80653,0.495272 l 0.275667,-0.977503 c 0,0 -0.459113,-2.176487 0.135151,-1.701108 0.594201,0.475374 1.732624,0.796397 1.732624,0.796397 l 1.371661,1.809422 0.583656,2.889236 -0.612858,2.101256 -1.021679,0.350206 0.233488,-3.210253 -1.079584,-0.787973 -2.188804,0.204298 -3.093553,-0.496132 c 0,0 -0.758803,0.904698 -0.875547,0.846339 -0.116681,-0.0584 -2.976872,-0.321036 -2.976872,-0.321036 l -2.071936,0.116737 -1.021429,1.13818 -1.546808,1.605142 -1.663489,0.700412 -0.08754,1.838599 -0.554518,0.9339 -0.525315,-1.167369 -0.116744,1.050638 -1.110282,-0.595799 -1.253607,0.216403 c 0,0 -0.788005,-0.9339 -0.788005,-1.138186 0,-0.204298 -0.233425,-2.247176 -0.233425,-2.247176 l 0.758741,-2.53903 0.933638,-2.159634 1.488654,0.204305 1.31332,-0.496133 1.254918,0.496133 1.780232,-0.466963 2.04286,0.0292 z"
         id="path100-4" /><path
         style="fill:#fbd1ba;fill-opacity:1;stroke:none;stroke-width:0.373755;stroke-dasharray:none;stroke-opacity:1"
         d="m -51.419076,133.98415 c 0.41269,0.12382 4.663759,1.48582 4.663759,1.48582 l 3.92093,2.1049 3.755828,2.14618 5.571815,4.87017 c 0,0 -0.165101,1.23818 -0.371508,1.32073 -0.206345,0.0825 -2.393777,0.16509 -2.393777,0.16509 l -2.311289,-2.51764 0.784198,2.55891 2.269983,4.33363 -0.41269,0.99054 -1.114401,0.0825 c 0,0 -2.022331,-1.44454 -2.022331,-1.816 0,-0.37145 -1.650947,-2.22872 -1.650947,-2.22872 l 0.536547,2.22872 -0.288895,0.78418 -1.279439,-0.49527 -0.907993,-0.66036 -0.453997,0.49527 -1.733435,-0.86673 -0.742955,0.0825 -2.352533,-1.85727 -1.733435,-3.05417 -0.577853,-2.27 -2.517572,-0.94927 -6.582138,-1.61472 1.517544,-6.53724 z"
         id="path101-9" /><path
         style="fill:#fbd1ba;fill-opacity:1;stroke:none;stroke-width:0.373755;stroke-dasharray:none;stroke-opacity:1"
         d="m -37.766923,123.83564 c 0,0 0.116744,-1.63431 0.262689,-1.78024 0.145883,-0.14592 0.583656,-0.87552 0.583656,-0.87552 l -1.138173,-0.87553 c 0,0 0.05803,-1.34246 0.233487,-1.34246 0.175085,0 1.313258,0.20427 1.517544,0.3502 0.204286,0.14593 0.933888,0.52532 0.933888,0.52532 l 2.71412,-0.0876 1.546808,0.14591 c 0,0 0.466912,0.67124 0.583656,0.67124 0.116744,0 1.108972,0.0584 1.108972,0.0584 l 1.254917,0.93389 1.167375,0.49613 1.63435,0.99226 1.225715,0.81716 0.867872,1.03567 -1.507622,0.0459 c 0,0 -1.695,-1.02319 -1.811681,-1.02319 -0.116744,0 -0.817206,0.2043 -0.817206,0.2043 l -0.982432,1.51758 -0.739398,0.26264 -0.700462,-0.26264 0.0876,-1.10902 -0.846345,0.90471 -0.583719,0.99226 c 0,0 -1.138173,-0.49612 -1.138173,-0.61286 0,-0.11673 0.175084,-1.54677 0.175084,-1.54677 0,0 1.984519,-2.07206 1.809435,-2.10125 -0.175085,-0.0292 -1.284119,0.23347 -1.284119,0.23347 l -0.583656,0.96309 -0.32103,1.92614 -0.525316,0.49613 -0.904685,0.0292 -0.32103,-0.96307 0.437711,-1.78024 0.320343,-1.02145 -0.991542,0.11674 -1.138173,1.109 -0.963089,0.81716 z"
         id="path103-9" /><path
         style="fill:#1b1b28;fill-opacity:1;stroke:none;stroke-width:0.373755;stroke-dasharray:none;stroke-opacity:1"
         d="m -56.269651,95.293525 -8.171624,7.062555 -2.264554,3.67721 -3.513856,9.10546 -0.642059,3.82314 -0.992291,9.95178 0.233488,5.66174 2.218006,4.14415 4.494353,4.6111 5.544984,2.91842 4.319269,1.2841 4.260865,1.57594 0.175085,-3.73557 c 0,0 -0.0075,-3.63899 -0.02309,-3.64501 -0.01622,-0.006 0.202789,-1.98686 0.202789,-2.09004 0,-0.10317 0.49524,-3.34308 0.49524,-3.34308 l 0.26088,-1.75815 0.151873,-0.61503 -0.3921,-0.63972 -1.134991,-2.2698 -3.466933,-1.15583 -0.08255,-5.15908 1.238195,-9.86417 0.825443,-15.931236 z"
         id="path107-2" /><path
         style="fill:#1b1b28;fill-opacity:1;stroke:none;stroke-width:0.373755;stroke-dasharray:none;stroke-opacity:1"
         d="m -16.130958,96.59114 c 2.632194,3.83649 2.476327,1.733448 2.476327,1.733448 l 2.970632,5.282902 2.807528,6.10835 c 0,0 2.1461879,7.09889 2.2287384,7.67671 0.08255,0.57782 1.8159859,7.30526 1.8159859,7.30526 0,0 -0.7428919,4.8287 -0.8254424,5.57181 -0.08255,0.7431 -1.815986,5.38561 -1.815986,5.38561 l -3.4669332,3.44673 -3.1367317,0.74291 -3.879623,-0.24764 h -3.466871 l -0.495303,-1.56836 0.436526,-7.51636 -0.813712,-5.68412 -0.03557,-1.41003 1.650885,-1.21703 1.279439,-2.95151 -0.536547,-8.58471 -1.77468,-10.52452 z"
         id="path108-5" /><path
         style="fill:#0c0c13;fill-opacity:1;stroke:none;stroke-width:0.373755;stroke-dasharray:none;stroke-opacity:1"
         d="m -44.129051,80.146946 c -0.05616,0.401664 -2.19286,-0.188681 -2.19286,-0.188681 l -1.527091,-0.763545 -1.382643,0.619091 -1.279438,1.609628 -1.196951,1.609635 1.03185,1.671544 -0.123795,1.300086 -8.563225,5.553252 -3.73555,4.260891 -1.167375,4.085775 c 0,0 -3.03515,3.969048 -2.33475,4.085778 0.7004,0.11673 9.922594,-0.35021 9.922594,-0.35021 l 8.288306,0.58369 c 0,0 4.319269,2.80167 5.019731,2.80167 0.7004,0 9.863504,-0.11673 9.863504,-0.11673 l 10.236697,-3.26863 c 0,0 6.165517,-3.61883 6.632492,-3.5021 0.466913,0.11674 5.603325,0.46694 5.603325,0.46694 l 0.350231,-1.050615 -3.618868,-5.486618 -7.354419,-7.120938 -0.758741,-0.90471 0.437774,-0.875529 -0.233488,-0.992259 c 0,0 -1.196576,-0.671242 -1.31332,-0.758791 -0.116744,-0.08756 -1.02143,-0.583693 -1.02143,-0.583693 l 0.612858,-1.575935 0.116744,-1.955336 -1.138173,-1.109009 -1.780233,-0.933887 -2.043109,-0.671243 -0.466975,1.60513 -1.809434,3.443741 0.933326,1.297496 -0.261816,1.445813 -1.266211,1.440328 -1.733435,0.949275 -1.939843,-0.12382 -0.907993,0.577816 -1.073094,-0.701635 -1.77468,-0.206364 -1.774741,-0.949268 -2.137578,-1.570013 -1.519852,-0.905023 z"
         id="path106-5" /></g></g></svg>
