<?xml version="1.0" encoding="UTF-8" standalone="no"?>
<!-- Created with Inkscape (http://www.inkscape.org/) -->

<svg
   width="199.60603mm"
   height="199.60602mm"
   viewBox="0 0 199.60603 199.60602"
   version="1.1"
   id="svg5"
   xml:space="preserve"
   xmlns="http://www.w3.org/2000/svg"
   xmlns:svg="http://www.w3.org/2000/svg"><defs
     id="defs2" /><g
     id="layer1"
     transform="translate(-5.0569874,-38.518039)"><path
       style="fill:#c4c7b5;fill-opacity:1;stroke:none;stroke-width:0.390215"
       d="M 5.0569874,138.32105 V 38.518037 H 104.86 204.66301 v 99.803013 99.80301 H 104.86 5.0569874 Z"
       id="path15635-8-2" /><g
       id="g114"
       transform="translate(22.518823,24.208958)"><path
         style="fill:#958973;fill-opacity:1;stroke:none;stroke-width:2.29169;stroke-dasharray:none;stroke-dashoffset:0;stroke-opacity:1"
         d="m 91.130563,317.26838 2.786884,-5.07362 4.716261,-6.04281 3.215642,-9.17783 0.64307,-12.64814 -0.43673,-19.80956 -6.637596,-17.92044 H 73.337456 l -14.148785,14.66135 1.332483,26.49866 -0.227336,15.56647 3.825595,9.51541 4.287462,8.575 19.508165,1.28626 z"
         id="path13-6-5-5" /><path
         style="fill:#a49986;fill-opacity:1;stroke:none;stroke-width:2.29169;stroke-dasharray:none;stroke-dashoffset:0;stroke-opacity:1"
         d="m 24.064647,213.58353 -9.549789,34.41002 3.916552,19.78716 -3.916552,8.55943 -1.515979,14.0975 3.638065,10.91419 4.699166,4.80012 2.122201,8.08471 24.556951,3.03172 8.337231,-10.15626 7.882467,-7.57932 5.457098,-12.73323 4.395997,-11.52053 5.305502,-10.15626 2.576965,-11.67213 -2.728537,-40.32189 -21.070459,-7.88246 z"
         id="path12-5-0-8" /><path
         style="fill:#c48966;fill-opacity:1;stroke:none;stroke-width:2.29169;stroke-dasharray:none;stroke-dashoffset:0;stroke-opacity:1"
         d="m 62.189943,91.817199 1.500648,-10.075619 -0.428822,-17.793129 4.716285,-10.290007 9.861276,-6.431251 12.433749,0.214273 9.968411,3.001249 5.89532,8.146241 2.57252,9.646889 -2.14379,7.503122 1.07189,9.003748 -7.39594,0.643118 1.39344,4.287508 v 3.644368 l 3.0013,6.431251 -9.646958,1.07189 -7.288734,-1.500643 -0.857484,6.860003 3.001272,4.71626 -7.503145,3.21562 -13.505644,-4.93063 -10.933125,-10.504371 z"
         id="path6-3-9-2" /><g
         id="g9-9-0-5"
         transform="matrix(2.2916946,0,0,2.2916946,968.98354,-239.55568)"><path
           style="fill:#a27933;fill-opacity:1;stroke:none;stroke-width:1;stroke-dasharray:none;stroke-dashoffset:0;stroke-opacity:1"
           d="m -397.55783,146.03809 3.45779,3.50573 4.23333,2.44739 2.74506,0.8599 2.05052,-0.76068 0.14179,-1.2257 0.18708,-1.49671 2.68076,0.87033 2.77813,0.29766 1.55442,1.42213 0.79375,5.1263 -0.13229,7.80521 -0.13229,34.5612 0.19844,16.40417 0.66146,3.37343 -3.90261,1.45521 -7.9375,-0.46302 -6.87916,-2.57969 -3.63802,-17.19791 -1.05834,17.13177 -5.88698,1.91823 -4.6302,1.98437 -6.15157,-0.13229 -0.0661,-8.59896 c 0,0 0.92604,-22.82031 1.05833,-23.28333 0.13229,-0.46302 2.24896,-9.72344 2.24896,-9.72344 l 0.6582,-10.16574 -1.30963,-13.65747 4.02243,-7.99805 6.26745,-2.99342 z"
           id="path7-2-0-4" /><path
           style="fill:#3b2f19;fill-opacity:1;stroke:none;stroke-width:1;stroke-dasharray:none;stroke-dashoffset:0;stroke-opacity:1"
           d="m -412.85397,174.65652 15.29614,2.8684 20.44248,-0.13313 -0.0183,5.80927 -20.27369,0.50708 -8.7098,-1.41246 -7.06593,-2.55629 z"
           id="path9-4-6-4" /></g><path
         style="fill:#7d5327;fill-opacity:1;stroke:none;stroke-width:2.29169;stroke-dasharray:none;stroke-dashoffset:0;stroke-opacity:1"
         d="m 36.250527,310.26538 -14.914417,-4.11343 -1.1637,15.26092 -7.173531,13.29125 -6.5464545,21.00877 1.0718943,14.14874 -0.4287532,14.57751 c 0,0 -2.1437886,12.21937 -1.0718943,12.21937 1.0718943,0 20.5799907,0.8575 20.5799907,0.8575 l 11.361855,-37.30125 8.14631,-26.15375 6.072051,-21.87077 z"
         id="path14-6-1-1" /><path
         style="fill:#7d5327;fill-opacity:1;stroke:none;stroke-width:2.29169;stroke-dasharray:none;stroke-dashoffset:0;stroke-opacity:1"
         d="m 76.12434,317.26838 -12.004881,-4.43051 0.428615,15.00625 -2.358131,15.00627 -1.668789,14.36312 v 15.435 7.28876 19.07937 l 21.449368,-1.50063 6.158769,-31.29875 2.572542,-28.08313 0.42873,-20.86575 z"
         id="path15-9-4-5" /><path
         style="fill:#a38360;fill-opacity:1;stroke:none;stroke-width:2.29169;stroke-dasharray:none;stroke-dashoffset:0;stroke-opacity:1"
         d="m 60.832848,383.573 12.573107,2.40722 12.615939,-7.98099 11.334653,9.19368 12.126873,3.63807 1.21269,9.09516 -4.77495,1.51587 -47.522229,-0.45477 -3.031729,-6.3666 1.0611,-7.27613 z"
         id="path16-6-7-6-5" /><path
         style="fill:#ad9071;fill-opacity:1;stroke:none;stroke-width:2.29169;stroke-dasharray:none;stroke-dashoffset:0;stroke-opacity:1"
         d="m 7.0955656,384.43914 12.5731074,2.40722 12.615939,-7.98098 11.334653,9.19368 12.126869,3.63806 1.212696,9.09517 -4.774952,1.51586 -47.5222295,-0.45476 -3.0317286,-6.3666 1.0611004,-7.27613 z"
         id="path16-62-0-3" /><path
         style="fill:#535816;fill-opacity:1;stroke:none;stroke-width:2.29169;stroke-dasharray:none;stroke-dashoffset:0;stroke-opacity:1"
         d="m 101.63498,93.317709 -9.110998,0.66741 -7.931899,-4.823444 3.108501,10.158532 7.288665,1.500643 9.647001,-1.07189 z"
         id="path17-9-6-2" /><path
         style="fill:#535816;fill-opacity:1;stroke:none;stroke-width:2.29169;stroke-dasharray:none;stroke-dashoffset:0;stroke-opacity:1"
         d="m 65.619946,58.803436 -2.358131,5.145015 0.214502,8.896564 3.322751,1.953533 5.466563,-4.394691 4.609056,-7.312912 6.431251,-0.618964 v 5.841988 l 4.823467,1.76834 4.930673,-12.88668 -3.590833,-4.692084 -14.738278,2.143765 z"
         id="path18-5-6-8" /><path
         style="fill:#3d4023;fill-opacity:1;stroke:none;stroke-width:2.29169;stroke-dasharray:none;stroke-dashoffset:0;stroke-opacity:1"
         d="m 62.940244,58.803459 c 0,0 5.573745,0.214273 6.967187,0 1.393442,-0.214274 13.398439,-2.250948 13.398439,-2.250948 l 9.754093,0.643118 10.397167,2.250948 7.71749,2.679679 3.64436,0.964689 1.28631,-1.500625 c 0,0 -4.28753,-15.327816 -21.651885,-16.721258 C 77.08896,43.47562 69.69302,46.476892 69.69302,46.476892 l -3.751504,3.001249 -3.108477,5.466563 z"
         id="path11-2-1-2" /><g
         id="g113"
         transform="matrix(-0.6564224,-0.75439356,-0.75439356,0.6564224,320.44627,157.14949)"><path
           id="rect349-35-4-4-0-7-1-3-6"
           style="fill:#7f5a33;fill-opacity:1;stroke-width:0.465021"
           d="m 169.43843,68.313969 6.0823,3.327403 -148.558395,271.556598 -10.712137,5.13576 z" /><path
           id="rect349-35-4-4-0-7-5-8-8-1"
           style="fill:#7f5a33;fill-opacity:1;stroke-width:0.132573"
           d="m 88.392652,230.90672 -2.111888,3.86043 34.774056,19.02354 3.19566,-3.2675 z" /><rect
           style="fill:#2b333a;fill-opacity:1;stroke-width:0.164938"
           id="rect349-35-3-1-7-3-1-2-9-6"
           width="10.200771"
           height="27.290045"
           x="179.80132"
           y="-48.67815"
           transform="rotate(28.681406)" /><path
           style="fill:#8a98a7;fill-opacity:1;stroke:none;stroke-width:3.11208;stroke-dasharray:none;stroke-dashoffset:0;stroke-opacity:1"
           d="m 190.05177,48.483935 c 73.72196,42.024362 154.69096,94.792285 158.04156,102.011985 3.35068,7.21971 3.35068,7.21971 3.35068,7.21971 0,0 -98.46316,-57.18378 -108.93439,-62.912193 -10.47128,-5.728457 -62.39244,-28.15961 -62.39244,-28.15961"
           id="path3-1-3-3" /><path
           style="fill:#313941;fill-opacity:1;stroke:none;stroke-width:3.11208;stroke-dasharray:none;stroke-dashoffset:0;stroke-opacity:1"
           d="m 190.05177,48.483935 c 73.72196,42.024362 154.69096,94.792285 158.04156,102.011985 l 1.25097,2.69545 c 0,0 -93.54989,-56.944761 -104.0211,-62.67315 -10.4713,-5.728457 -61.82025,-30.063481 -61.82025,-30.063481"
           id="path3-8-1-4-3" /></g><path
         style="fill:#c48966;fill-opacity:1;stroke:none;stroke-width:2.29169;stroke-dasharray:none;stroke-dashoffset:0;stroke-opacity:1"
         d="m 94.3462,148.84098 10.50437,-0.21428 19.9369,-4.71623 8.36063,1.92937 6.64559,6.43123 -0.64314,5.14502 -3.64437,1.28623 2.57252,3.64439 -2.14379,2.5725 h -4.50185 l -0.42875,3.43 -3.00123,1.71499 -0.64314,3.64439 -2.57247,1.92938 -6.43125,-1.71501 -11.57627,-4.07312 -13.076914,-0.64312 -12.648092,-7.93188 z"
         id="path4-0-8-5" /><path
         style="fill:#a49986;fill-opacity:1;stroke:none;stroke-width:2.29169;stroke-dasharray:none;stroke-dashoffset:0;stroke-opacity:1"
         d="m 99.598397,148.73384 -3.751572,9.53961 4.394665,11.25481 -34.835932,7.82458 -19.508142,1.71502 -15.220634,-1.71502 -4.07312,-15.64936 -6.002498,-25.29628 v -18.65061 l 5.359402,-13.29125 7.717488,-10.075645 7.074347,-2.572496 6.860004,1.500624 5.573745,5.788133 4.930673,11.790634 2.358131,24.65313 -0.428799,15.64937 h 12.64816 l 16.721281,-3.64437 z"
         id="path5-0-4-3" /><path
         style="fill:#a27933;fill-opacity:1;stroke:none;stroke-width:2.29169;stroke-dasharray:none;stroke-dashoffset:0;stroke-opacity:1"
         d="M 61.868327,108.1097 53.198228,94.244172 46.334396,90.281328 h -8.690427 l -6.868415,3.965525 -5.803625,10.052157 -2.734014,10.20326 5.378699,-9.31617 5.777385,-3.33554 3.2925,-5.70286 v 5.53075 l 5.715212,1.5314 4.179294,-7.238726 -2.051616,7.656846 6.141649,3.5459 1.048978,-3.91479 v 4.85062 l 3.567733,2.05985 0.899513,3.35701 4.234089,2.6222 z"
         id="path10-3-9-6" /></g></g><path
     style="fill:#272727;fill-opacity:1;stroke:none;stroke-width:0.0588478"
     d="M 4.5397042,99.803013 V -2e-6 H 2.2698521 0 v 99.803015 99.803017 h 2.2698521 2.2698521 z"
     id="path15635-8-2-6" /><path
     style="fill:#272727;fill-opacity:1;stroke:none;stroke-width:0.0588478"
     d="M 199.60601,99.803013 V -1.5e-6 h -2.26985 -2.26985 V 99.803013 199.60603 h 2.26985 2.26985 z"
     id="path15635-8-2-6-73" /><path
     style="fill:#272727;fill-opacity:1;stroke:none;stroke-width:0.0588478"
     d="M 99.803009,4.5397043 H 199.60601 V 2.269852 0 H 99.803009 0 v 2.269852 2.2698523 z"
     id="path15635-8-2-6-7" /><path
     style="fill:#272727;fill-opacity:1;stroke:none;stroke-width:0.0588478"
     d="m 99.803011,199.60603 h 99.802999 v -2.26985 -2.26985 H 99.803011 2e-6 v 2.26985 2.26985 z"
     id="path15635-8-2-6-7-5" /></svg>
