<?xml version="1.0" encoding="UTF-8" standalone="no"?>
<!-- Created with Inkscape (http://www.inkscape.org/) -->

<svg
   width="199.60603mm"
   height="199.60602mm"
   viewBox="0 0 199.60603 199.60602"
   version="1.1"
   id="svg5"
   xml:space="preserve"
   xmlns="http://www.w3.org/2000/svg"
   xmlns:svg="http://www.w3.org/2000/svg"><defs
     id="defs2" /><path
     style="fill:#917c46;fill-opacity:1;stroke:none;stroke-width:0.390215"
     d="M 0,99.803008 V -1.9335937e-6 h 99.80301 99.80301 V 99.803008 199.60602 H 99.80301 0 Z"
     id="path15635" /><path
     style="fill:#000000;fill-opacity:1;stroke:none;stroke-width:0.0451301"
     d="M -53.970676,99.803008 V 94.865802 H -26.985337 0 v 4.937206 4.937212 h -26.985337 -26.985339 z"
     id="path15635-5-7" /><path
     style="fill:#000000;fill-opacity:1;stroke:none;stroke-width:0.0451301"
     d="m 199.60602,99.803008 v -4.9372 h 26.98534 26.98534 v 4.9372 4.937222 h -26.98534 -26.98534 z"
     id="path15635-5-7-5" /><path
     style="fill:#6d6d5e;fill-opacity:1;stroke-width:0.599001"
     d="M 5.9667969e-6,199.60602 26.024898,177.50942 45.666327,171.12595 58.433256,161.30524 67.271897,141.17277 62.852575,117.60306 54.013933,97.470594 49.103576,76.356064 49.594611,52.295314 40.264935,35.109064 19.150398,13.994524 4.0332032e-6,4.0332032e-6 199.60603,-5.9667968e-6 179.51,19.401604 l -17.01352,14.23581 -6.59708,16.6663 -3.12493,22.91617 0.69443,24.65224 -5.55544,18.055166 -17.36073,14.58301 1.38886,12.15252 17.70794,4.16657 10.41645,3.12493 9.72201,14.23581 10.76365,15.27744 19.05439,20.13845 z"
     id="path94" /><path
     style="fill:#59594d;fill-opacity:1;stroke-width:0.599001"
     d="M 5.9667969e-6,199.60602 13.012452,188.55772 l 0.245518,-2.14828 1.964143,-1.84138 2.474846,0.0122 8.327939,-7.07089 19.641429,-6.38347 4.114249,-3.16481 0.48921,-2.54348 2.27104,-1.71862 2.602809,0.13668 3.289621,-2.53048 8.838641,-20.13247 -4.419322,-23.56971 -2.704494,-6.16023 -4.66104,-1.20531 -2.45518,-5.27863 2.355257,-4.36048 -1.373185,-3.127816 -4.910357,-21.11453 0.491035,-24.06075 -9.329676,-17.18625 -5.590847,-5.59085 -1.345033,1.47842 -1.104831,0.12276 -0.306896,-1.04345 1.381035,-1.93345 -5.984496,-5.9845 -1.841384,1.28897 h -1.10483 l -0.122759,-1.22759 1.442417,-1.68793 -3.621388,-3.62139 -2.915525,-2.91553 -5.764815,-4.21275 -3.663566,0.59225 L 6.2498701,7.943524 5.7471764,4.199864 4.0332032e-6,4.0332033e-6 H 6.5970849 L 17.187132,7.596304 l 5.642239,4.6006 6.770686,6.77069 8.506759,8.24634 -0.347213,1.08505 4.687398,4.861 4.253378,7.85574 4.47039,8.63696 1.085045,-0.0434 0.824635,1.64927 0.130207,2.03988 -1.215253,0.39062 0.08681,6.11966 -0.707591,16.11769 4.787598,20.13247 3.928285,8.593116 5.70829,12.2759 2.639316,15.03797 0.831229,4.18668 2.604108,1.04164 0.694431,5.55544 -1.736074,4.94781 -2.517307,-0.17361 -5.034618,11.02407 -2.430502,5.12142 -8.333153,6.07625 -5.685639,4.16658 -15.928475,5.16482 -3.472145,1.30205 -5.468632,4.47039 -10.790266,9.35523 -6.3834639,5.40139 z"
     id="path95" /><path
     style="fill:#59594d;fill-opacity:1;stroke-width:0.599001"
     d="m 199.60603,199.60602 -19.05439,-20.13845 -5.38183,-7.63872 1.1734,-1.93049 -0.18414,-2.70069 -1.53449,-0.55242 -2.31466,1.1244 -12.24394,-17.81533 -28.12439,-7.2915 -0.31882,-2.78965 1.70768,-0.11828 -0.82464,-7.1613 -1.69512,0.17389 -0.25796,-2.25718 17.36073,-14.58301 2.19778,-7.14277 2.92364,0.54569 2.60411,-1.12845 -1.04164,-3.21173 -2.83637,-1.56716 1.70792,-5.550746 -0.69443,-24.65224 3.12493,-22.91617 6.59708,-16.6663 4.03977,-3.38022 2.64411,0.86291 2.77772,-2.1701 0.38307,-3.54997 7.16885,-5.99843 8.70167,-8.40099 L 199.60603,-5.9667968e-6 h -4.55818 L 187.62614,7.379294 l -8.02982,8.88627 -8.40899,6.8745 c 0,0 -1.90276,-3.43725 -2.02552,-3.13035 -0.12276,0.3069 -5.95381,5.58553 -5.95381,5.58553 l 1.84139,2.63932 -4.05105,3.37587 -4.66484,10.80278 -2.43058,6.63185 -1.77948,10.93726 -1.86628,13.10735 0.36805,24.1354 -1.16621,2.700702 -1.78,-0.675172 -3.37587,10.741406 2.27104,0.92069 -1.16621,3.62139 -11.72348,9.82071 -4.54208,3.92829 -1.44242,-1.65725 -3.19173,2.73139 2.24035,2.33242 1.04345,9.91278 -2.44754,2.31904 3.12493,3.51555 2.17009,-2.3437 1.82288,0.52082 0.82464,-0.30381 12.89034,3.55895 12.06571,3.25514 2.99473,4.38358 6.0826,8.84828 -1.10483,0.98208 5.34001,7.97933 1.41173,-0.79794 5.40139,7.67244 5.46277,6.13794 11.86738,12.27589 z"
     id="path96" /><ellipse
     style="fill:#59594d;fill-opacity:1;stroke-width:0.194992"
     id="path93-5-6"
     cx="-77.603943"
     cy="50.140919"
     rx="6.0322194"
     ry="6.0565434"
     transform="rotate(-90)" /><ellipse
     style="fill:#59594d;fill-opacity:1;stroke-width:0.194992"
     id="path93-5-6-9"
     cx="-73.089676"
     cy="156.31369"
     rx="6.0322194"
     ry="6.0565434"
     transform="rotate(-90)" /><ellipse
     style="fill:#59594d;fill-opacity:1;stroke-width:0.194992"
     id="path93-5-6-9-0"
     cx="-15.201101"
     cy="189.91737"
     rx="6.0322194"
     ry="6.0565434"
     transform="rotate(-90)" /><ellipse
     style="fill:#59594d;fill-opacity:1;stroke-width:0.194992"
     id="path93-5-6-9-8"
     cx="-150.47578"
     cy="161.23782"
     rx="6.0322194"
     ry="6.0565434"
     transform="rotate(-90)" /><ellipse
     style="fill:#59594d;fill-opacity:1;stroke-width:0.154043"
     id="path93-5-6-9-8-6"
     cx="-178.96655"
     cy="183.21674"
     rx="4.7654457"
     ry="4.7846618"
     transform="rotate(-90)" /><path
     style="fill:#53392d;fill-opacity:1;stroke-width:0.599001"
     d="m 131.59758,154.79902 c -1.59587,-0.36828 -11.29382,-3.56001 -11.29382,-3.56001 l -4.91036,19.64142 10.43451,2.57794 z"
     id="path97" /><path
     style="fill:#6b493a;fill-opacity:1;stroke-width:0.599001"
     d="m 125.82791,173.45837 8.77726,2.76208 5.64691,-19.64143 -8.6545,-1.78 z"
     id="path98" /><path
     style="fill:#6b493a;fill-opacity:1;stroke-width:0.599001"
     d="m 158.50351,192.40132 -12.06571,-16.75311 5.90265,-5.03461 11.11087,17.70795 z"
     id="path99" /><path
     style="fill:#624335;fill-opacity:1;stroke-width:0.599001"
     d="m 163.45132,188.32155 4.16657,-3.03813 -10.06922,-17.53434 -5.20822,2.86452 z"
     id="path100" /><path
     style="fill:#624335;fill-opacity:1;stroke-width:0.599001"
     d="m 65.491894,185.79565 7.979328,-5.52416 -4.848976,-6.07656 -6.137947,4.60346 z"
     id="path101" /><path
     style="fill:#6a4839;fill-opacity:1;stroke-width:0.599001"
     d="m 73.471222,180.27149 -4.848976,-6.07656 2.455177,-4.72622 6.628985,2.20966 z"
     id="path102" /><path
     style="fill:#75503f;fill-opacity:1;stroke-width:0.599001"
     d="m 77.706408,171.67837 4.971735,1.65724 -5.217256,9.8821 -3.989665,-2.94622 z"
     id="path103" /><path
     style="fill:#7d5543;fill-opacity:1;stroke-width:0.599001"
     d="m 73.471222,180.27149 c 0,0 3.989663,2.94622 3.989663,2.94622 l -9.636572,6.69036 -2.332419,-4.11242 z"
     id="path104" /><path
     style="fill:#724e3d;fill-opacity:1;stroke-width:0.599001"
     d="m 73.1755,110.11144 -7.985937,-14.843426 4.7742,-2.51731 c 0,0 8.853974,15.017036 8.419957,15.103836 -0.43402,0.0868 -5.20822,2.2569 -5.20822,2.2569 z"
     id="path105" /><path
     style="fill:#785240;fill-opacity:1;stroke-width:0.599001"
     d="m 69.963763,92.750704 4.774202,-2.86452 8.419957,15.017036 -4.774202,2.95132 z"
     id="path106" /><path
     style="fill:#76564d;fill-opacity:1;stroke-width:0.599001"
     d="m 128.77412,84.212634 1.35035,-29.95318 10.80279,1.10483 -1.22759,29.70766 z"
     id="path107" /><path
     style="fill:#6f5149;fill-opacity:1;stroke-width:0.599001"
     d="m 128.77412,84.212634 -9.57519,-0.6138 1.84138,-29.33938 h 9.08416 z"
     id="path108" /><path
     style="fill:#7d5b52;fill-opacity:1;stroke-width:0.599001"
     d="m 89.581392,61.240974 h 23.089778 c 0,0 2.08329,-13.54137 0.34722,-13.71498 -1.73608,-0.17361 -23.95782,-0.17361 -23.95782,-0.17361 z"
     id="path109" /><path
     style="fill:#5f453e;fill-opacity:1;stroke-width:0.599001"
     d="m 89.06057,47.352384 v -11.28447 l 23.78421,0.86803 0.17361,10.59005 z"
     id="path110" /><path
     style="fill:#634841;fill-opacity:1;stroke-width:0.599001"
     d="m 89.220333,51.612794 -0.159763,-19.88507 -13.367763,-0.60762 0.520821,20.05165 z"
     id="path111" /><path
     style="fill:#7f5c53;fill-opacity:1;stroke-width:0.599001"
     d="m 89.220331,51.612794 0.53467,12.75311 -12.673336,-0.43402 -0.868039,-12.76013 z"
     id="path112" /><path
     style="fill:#7f5c53;fill-opacity:1;stroke-width:0.599001"
     d="m 111.95615,93.542314 16.32694,6.01519 -7.85657,17.554526 -13.13521,-7.4883 z"
     id="path113" /><path
     style="fill:#684b44;fill-opacity:1;stroke-width:0.599001"
     d="m 120.42652,117.11203 -12.88969,11.17106 -7.4883,-11.0483 7.24278,-7.61106 z"
     id="path114" /><path
     style="fill:#71514a;fill-opacity:1;stroke-width:0.599001"
     d="m 138.88588,39.106044 -11.28448,-3.64576 6.85749,-19.27041 9.63521,4.16657 z"
     id="path115" /><path
     style="fill:#7f5b53;fill-opacity:1;stroke-width:0.599001"
     d="m 138.88588,39.106044 6.24987,2.86452 5.20822,-19.44402 -6.24987,-2.1701 z"
     id="path116" /><path
     style="fill:#89625a;fill-opacity:1;stroke-width:0.599001"
     d="m 65.363169,23.047364 11.544887,-7.89914 -4.166576,-5.81584 -10.937261,8.59356 z"
     id="path117" /><path
     style="fill:#5f443e;fill-opacity:1;stroke-width:0.599001"
     d="m 61.804219,17.925944 -3.645754,-4.7742 10.763654,-8.15955 3.819361,4.34019 z"
     id="path118" /></svg>
