<?xml version="1.0" encoding="UTF-8" standalone="no"?>
<!-- Created with Inkscape (http://www.inkscape.org/) -->

<svg
   width="199.60603mm"
   height="199.60602mm"
   viewBox="0 0 199.60603 199.60602"
   version="1.1"
   id="svg5"
   xml:space="preserve"
   xmlns="http://www.w3.org/2000/svg"
   xmlns:svg="http://www.w3.org/2000/svg"><defs
     id="defs2" /><path
     style="fill:#917c46;fill-opacity:1;stroke:none;stroke-width:0.390215"
     d="M 0,99.803008 V -1.9335937e-6 h 99.80301 99.80301 V 99.803008 199.60602 H 99.80301 0 Z"
     id="path15635" /><path
     style="fill:#7c2717;fill-opacity:1;stroke:none;stroke-width:0.0293239"
     d="m 70.000001,77.499999 v -7.5 h 7.5 7.5 v 7.5 7.499999 h -7.5 -7.5 z"
     id="path15635-5" /><path
     style="fill:#bea48f;fill-opacity:1;stroke:none;stroke-width:0.0324188"
     d="m 85.000001,77.499999 v -5.5 H 97.500002 110 v 5.5 5.5 H 97.500002 85.000001 Z"
     id="path15635-5-5" /><path
     style="fill:#bea48f;fill-opacity:1;stroke:none;stroke-width:0.0324188"
     d="m 77.500001,84.999998 h 5.5 V 97.499999 110 h -5.5 -5.5 V 97.499999 84.999998 Z"
     id="path15635-5-5-4" /><path
     style="fill:#bea48f;fill-opacity:1;stroke:none;stroke-width:0.0284138"
     d="m 103.5,82.749998 h 6.5 v 8.125 8.125 h -6.5 -6.499998 v -8.125 -8.125 z"
     id="path15635-5-5-4-0" /><path
     style="fill:#bea48f;fill-opacity:1;stroke:none;stroke-width:0.0336906"
     d="m 110,104.5 v 5.5 h -13.499999 -13.5 v -5.5 -5.500002 h 13.5 H 110 Z"
     id="path15635-5-5-4-2" /><path
     style="fill:#bea48f;fill-opacity:1;stroke:none;stroke-width:0.0293239"
     d="M 122.00001,130.5 V 133 H 99.499999 77.000001 v -2.5 -2.5 h 22.499998 22.500011 z"
     id="path15635-5-5-4-2-0" /><path
     style="fill:#bea48f;fill-opacity:1;stroke:none;stroke-width:0.0209642"
     d="m 74.500001,133 h -2.5 V 121.5 110 h 2.5 H 77 v 11.5 11.5 z"
     id="path15635-5-5-4-2-0-2" /><path
     style="fill:#bea48f;fill-opacity:1;stroke:none;stroke-width:0.0270352"
     d="M 137.5,118 H 135 V 98.874999 79.749997 h 2.5 2.5 V 98.874999 118 Z"
     id="path15635-5-5-4-2-0-2-0" /><path
     style="fill:#7a2919;fill-opacity:1;stroke:none;stroke-width:0.0478857"
     d="M 110.00002,90.279167 V 70.279165 h 7.5 7.5 v 20.000002 20.000003 h -7.5 -7.5 z"
     id="path15635-5-2" /><path
     style="fill:#7a2919;fill-opacity:1;stroke:none;stroke-width:0.0169301"
     d="m 125.00002,85.279166 v -7.500001 h 2.5 2.5 v 7.500001 7.5 h -2.5 -2.5 z"
     id="path15635-5-2-3" /><path
     style="fill:#000000;fill-opacity:1;stroke:none;stroke-width:0.0451301"
     d="M -53.970676,99.803008 V 94.865802 H -26.985337 0 v 4.937206 4.937212 h -26.985337 -26.985339 z"
     id="path15635-5-7" /><path
     style="fill:#000000;fill-opacity:1;stroke:none;stroke-width:0.0451301"
     d="m 199.60602,99.803008 v -4.9372 h 26.98534 26.98534 v 4.9372 4.937222 h -26.98534 -26.98534 z"
     id="path15635-5-7-5" /><path
     style="fill:#6b2214;fill-opacity:1;stroke:none;stroke-width:0.0252443"
     d="M 73.750001,96.5 V 85 h 3.625 3.625 V 96.5 108 h -3.625 -3.625 z"
     id="path15635-5-1" /><path
     style="fill:#6b2214;fill-opacity:1;stroke:none;stroke-width:0.033413"
     d="M 99.750002,93.749998 V 79.499999 H 104.875 110 V 93.749998 108 h -5.125 -5.124998 z"
     id="path15635-5-1-0" /><path
     style="fill:#6b2214;fill-opacity:1;stroke:none;stroke-width:0.0273515"
     d="M 94.500001,100.75 H 108 v 3.625 3.625 h -13.499999 -13.5 v -3.625 -3.625 z"
     id="path15635-5-1-1" /><path
     style="fill:#6b2214;fill-opacity:1;stroke:none;stroke-width:0.026319"
     d="M 97.500001,73.874999 H 110 v 3.625 3.624999 h -12.499999 -12.5 v -3.624999 -3.625 z"
     id="path15635-5-1-1-3" /><path
     style="fill:#7a2919;fill-opacity:1;stroke:none;stroke-width:0.0169301"
     d="m 105.00002,85.279166 v -7.500001 h 2.5 2.5 v 7.500001 7.5 h -2.5 -2.5 z"
     id="path15635-5-2-3-7" /><path
     style="fill:#6b2214;fill-opacity:1;stroke:none;stroke-width:0.0151191"
     d="m 101.87501,130.375 v -3.625 h 4.125 4.125 v 3.625 3.625 h -4.125 -4.125 z"
     id="path15635-5-1-8" /><path
     style="fill:#bea48f;fill-opacity:1;stroke-width:0.599001"
     d="m 122,128 13,-10 h 5 l -1.54815,3 -12.97715,10 -3.4747,2 z"
     id="path2" /><path
     style="fill:#bea48f;fill-opacity:1;stroke-width:0.599001"
     d="m 140,79.749996 -1,-3.749998 -7,-5.000001 h -7 v 4 h 5.50932 l 4.49068,4 v 1.000001 z"
     id="path3" /><rect
     style="fill:#363d24;fill-opacity:1;stroke-width:0.599001"
     id="rect3"
     width="5"
     height="9"
     x="79"
     y="111.5" /><rect
     style="fill:#363d24;fill-opacity:1;stroke-width:0.599001"
     id="rect3-8"
     width="5"
     height="9"
     x="85.5"
     y="111.52917" /><rect
     style="fill:#363d24;fill-opacity:1;stroke-width:0.662221"
     id="rect3-8-5"
     width="5"
     height="11.000002"
     x="122"
     y="-90"
     transform="rotate(90)" /><path
     style="fill:#2c551d;fill-opacity:1;stroke-width:0.276462"
     d="m 108.15385,114.99999 -1.38462,-1.84615 0.46154,-2.30769 1.84616,-0.92308 2.30769,1.38462 v 2.30769 l -0.92308,0.92308 -1.38461,0.92307 z"
     id="path4" /><path
     style="fill:#2c551d;fill-opacity:1;stroke-width:0.276462"
     d="m 118.83524,125.98908 1.06917,-2.04507 2.2813,-0.57806 1.62859,1.26809 -0.25489,2.67911 -2.08239,0.99455 -1.23077,-0.43514 -1.42967,-0.85161 z"
     id="path4-7" /><path
     style="fill:#2c551d;fill-opacity:1;stroke-width:0.276462"
     d="M 130.64672,96.813485 131,94.532996 l 1.97342,-1.282225 1.95031,0.675776 0.62185,2.618377 -1.65093,1.612422 -1.30534,-0.01541 -1.62781,-0.345591 z"
     id="path4-7-8" /><path
     style="fill:#641f12;fill-opacity:1;stroke-width:0.599001"
     d="m 85.000001,69.999999 -7.53912,7.552952 7.53912,7.447047 z"
     id="path5" /><path
     style="fill:#5c1d11;fill-opacity:1;stroke-width:0.599001"
     d="m 125.00002,70.279164 -7.50438,7.181717 0.004,32.818289 h 7.50001 z"
     id="path6" /><path
     style="fill:#531a0f;fill-opacity:1;stroke-width:0.599001"
     d="m 125,77.999999 -7,6.999999 h 12 l 2e-5,-7.220833 h -5 z"
     id="path7" /><path
     style="fill:#682013;fill-opacity:1;stroke-width:0.599001"
     d="m 125.00002,92.779164 h 5 L 130,84.999998 h -12 z"
     id="path8" /><path
     style="fill:#531a0f;fill-opacity:1;stroke-width:0.599001"
     d="m 110.00004,77.999999 7,6.999999 h -12 l -2e-5,-7.220833 h 5 z"
     id="path7-3" /><path
     style="fill:#732315;fill-opacity:1;stroke-width:0.599001"
     d="m 110.00002,92.779164 h -5 l 2e-5,-7.779166 h 12 z"
     id="path8-0" /><path
     style="fill:#5a1b10;fill-opacity:1;stroke-width:0.599001"
     d="m 77.460879,77.552951 -7.46088,-7.552952 h 15.000002 z"
     id="path9" /><path
     style="fill:#54190f;fill-opacity:1;stroke-width:0.599001"
     d="m 117.49564,77.460879 7.50438,-7.181715 h -15 z"
     id="path10" /><path
     style="fill:#581b10;fill-opacity:1;stroke-width:0.599001"
     d="M 101.87501,126.75 104,130 h 4 l 2.12501,-3.25 z"
     id="path11" /><path
     style="fill:#601e12;fill-opacity:1;stroke-width:0.599001"
     d="m 108,130 2.12501,4 v -7.25 z"
     id="path12" /><path
     style="fill:#e1d6cc;fill-opacity:1;stroke-width:0.599001"
     d="m 102.52578,134 -0.11415,7.90932 -2.608623,7.85657 -6.628982,8.34761 -1.841383,10.43451 1.718624,11.0483 1.595866,10.18899 0.218676,9.82072 h 9.874422 l -0.39514,-11.17107 -1.10483,-8.34761 -2.20966,-9.82071 0.85931,-6.75174 4.41932,-5.76967 3.5215,-8.12996 0.69804,-3.24725 -0.3404,-3.37895 -0.29929,-3.62949 -0.16924,-3.64203 L 109.58963,134 Z"
     id="path13" /></svg>
