<?xml version="1.0" encoding="UTF-8" standalone="no"?>
<!-- Created with Inkscape (http://www.inkscape.org/) -->

<svg
   width="199.60603mm"
   height="199.60602mm"
   viewBox="0 0 199.60603 199.60602"
   version="1.1"
   id="svg5"
   xml:space="preserve"
   xmlns="http://www.w3.org/2000/svg"
   xmlns:svg="http://www.w3.org/2000/svg"><defs
     id="defs2" /><path
     style="fill:#917c46;fill-opacity:1;stroke:none;stroke-width:0.390215"
     d="M 0,99.803008 V -3.9335937e-6 h 99.80301 99.80301 V 99.803008 199.60602 H 99.80301 0 Z"
     id="path15635" /><path
     style="fill:#000000;fill-opacity:1;stroke:none;stroke-width:0.0451301"
     d="M -53.970676,99.803008 V 94.865802 H -26.985337 0 v 4.937206 4.937212 h -26.985337 -26.985339 z"
     id="path15635-5-7" /><path
     style="fill:#000000;fill-opacity:1;stroke:none;stroke-width:0.0451301"
     d="m 199.60602,99.803008 v -4.9372 h 26.98534 26.98534 v 4.9372 4.937222 h -26.98534 -26.98534 z"
     id="path15635-5-7-5" /><path
     style="fill:#e1d6cc;fill-opacity:1;stroke-width:0.599001"
     d="m 0,94.8658 23.324196,-0.09591 18.659358,1.22759 16.940731,2.20966 19.150393,2.94622 11.784856,3.68276 10.066232,6.62898 6.628984,8.83865 2.45518,9.82071 0.98207,13.25797 -1.22759,16.69521 -0.49104,10.55727 -2.20966,16.20418 -1.32348,12.76693 h -9.874422 l 1.622708,-15.46763 1.964142,-15.95866 1.22759,-15.95866 v -15.46763 l -1.718625,-10.55726 -4.664839,-7.61106 -6.628982,-3.92828 -11.293822,-4.41933 -13.257963,-3.43724 -21.114536,-1.96415 H 22.587642 L 0,104.74022 Z"
     id="path203" /></svg>
