<?xml version="1.0" encoding="UTF-8" standalone="no"?>
<!-- Created with Inkscape (http://www.inkscape.org/) -->

<svg
   width="199.60603mm"
   height="199.60602mm"
   viewBox="0 0 199.60603 199.60602"
   version="1.1"
   id="svg5"
   xml:space="preserve"
   xmlns="http://www.w3.org/2000/svg"
   xmlns:svg="http://www.w3.org/2000/svg"><defs
     id="defs2" /><path
     style="fill:#6d6d5e;fill-opacity:1;stroke:none;stroke-width:0.390215"
     d="M 0,99.803008 V -1.9335937e-6 h 99.80301 99.80301 V 99.803008 199.60602 H 99.80301 0 Z"
     id="path15635" /><path
     style="fill:#664c41;fill-opacity:1;stroke:none;stroke-width:0.0165572"
     d="m 90.806016,59.976934 v -3.389745 h 5.290339 5.290335 v 3.389745 3.389744 h -5.290335 -5.290339 z"
     id="path15635-5" /><path
     style="fill:#b8b7aa;fill-opacity:1;stroke:none;stroke-width:0.0376292"
     d="m 50.222626,69.614792 h 6.5 v 14.249995 14.249995 h -6.5 -6.499998 V 83.864787 69.614792 Z"
     id="path15635-5-5-4-0" /><path
     style="fill:#b8b7aa;fill-opacity:1;stroke:none;stroke-width:0.0376292"
     d="m 53.240855,107.26021 5.654275,-3.20612 7.028789,12.39592 7.028784,12.3959 -5.654276,3.20611 -5.654273,3.20612 -7.028784,-12.39591 -7.028789,-12.39591 z"
     id="path15635-5-5-4-0-6" /><path
     style="fill:#000000;fill-opacity:1;stroke:none;stroke-width:0.0451301"
     d="M -53.970676,99.803008 V 94.865802 H -26.985337 0 v 4.937206 4.937212 h -26.985337 -26.985339 z"
     id="path15635-5-7" /><path
     style="fill:#000000;fill-opacity:1;stroke:none;stroke-width:0.0451301"
     d="m 199.60602,99.803008 v -4.9372 h 26.98534 26.98534 v 4.9372 4.937222 h -26.98534 -26.98534 z"
     id="path15635-5-7-5" /><path
     style="fill:#664c41;fill-opacity:1;stroke:none;stroke-width:0.033413"
     d="m 45.097628,83.864792 v -14.25 h 5.124998 5.125 v 14.25 14.24999 h -5.125 -5.124998 z"
     id="path15635-5-1-0" /><path
     style="fill:#7d5e50;fill-opacity:1;stroke:none;stroke-width:0.023834"
     d="m 45.097628,83.864792 v -14.25 h 2.607692 2.607693 v 14.25 14.24999 H 47.70532 45.097628 Z"
     id="path15635-5-1-0-6" /><path
     style="fill:#b8b7aa;fill-opacity:1;stroke-width:0.599001"
     d="m 61.644154,135.25814 -3.832911,2.67289 6.944294,7.55192 9.808816,3.81936 8.680365,-13.54137 -10.292016,-6.91503 z"
     id="path13" /><path
     style="fill:#b8b7aa;fill-opacity:1;stroke-width:0.599001"
     d="m 82.029468,152.60085 8.853975,-13.71498 23.263387,11.97891 5.20822,-7.55192 14.94321,9.15373 -16.44969,25.77937 -14.73107,-7.36554 2.94621,-4.66483 z"
     id="path14" /><path
     style="fill:#b8b7aa;fill-opacity:1;stroke-width:0.599001"
     d="M 37.412382,154.25012 47.56841,164.75336 31.943751,178.29474 20.57247,165.01378 Z"
     id="path15" /><path
     style="fill:#b8b7aa;fill-opacity:1;stroke-width:0.599001"
     d="m 43.381342,168.38215 9.568897,8.26332 -10.069227,7.81233 -7.956415,-8.74647 z"
     id="path16" /><path
     style="fill:#b8b7aa;fill-opacity:1;stroke-width:0.599001"
     d="M 53.037041,189.1452 66.578413,176.29825 84.19956,189.40561 72.394259,199.60602 Z"
     id="path17" /><path
     style="fill:#b8b7aa;fill-opacity:1;stroke-width:0.599001"
     d="m 17.800044,160.56868 c 1.473107,-1.35035 17.06349,-9.94348 17.06349,-9.94348 L 21.605571,128.03756 4.7875981,137.36724 Z"
     id="path18" /><path
     style="fill:#b8b7aa;fill-opacity:1;stroke-width:0.599001"
     d="m 150.86478,158.5035 -13.88859,26.56192 24.82585,10.24283 9.02758,-15.97187 12.84694,5.90265 11.8053,-24.47864 -19.44402,-8.68036 4.34018,-8.68037 -17.88155,-7.29151 z"
     id="path19" /><path
     style="fill:#b8b7aa;fill-opacity:1;stroke-width:0.599001"
     d="M 6.3834642,91.578159 16.695214,91.087124 V 79.425026 h 3.068973 L 19.641428,70.709141 H 17.18625 L 16.695214,64.202918 5.4013927,65.553266 Z"
     id="path20" /><path
     style="fill:#b8b7aa;fill-opacity:1;stroke-width:0.599001"
     d="m 125.69171,69.79015 -9.37479,18.055164 3.47214,2.083287 0.86804,7.465115 5.72904,6.597074 10.06923,2.77772 8.68037,-2.60411 27.77717,11.6317 1.73607,-4.6874 6.07626,1.90968 6.07626,-14.409411 -4.86101,-2.08329 1.73607,-3.992967 -25.34667,-11.11087 -2.95132,-6.076257 -5.55544,-5.208219 -8.33315,-1.562468 -8.50676,2.777717 z"
     id="path21" /><path
     style="fill:#b8b7aa;fill-opacity:1;stroke-width:0.599001"
     d="m 122.21957,44.269871 c 7.2915,-2.256896 26.2147,-7.465115 26.2147,-7.465115 l -5.72904,-19.444022 -32.81178,7.465115 3.64575,16.145483 7.63872,-1.215253 z"
     id="path22" /><path
     style="fill:#b8b7aa;fill-opacity:1;stroke-width:0.599001"
     d="m 146.53755,30.367393 c 0,0 10.8375,-2.243005 11.35833,-2.243005 0.52082,0 12.49972,1.562468 12.49972,1.562468 l 2.08329,-23.2633845 c 0,0 -14.06219,-0.8680368 -14.58301,-0.8680368 -0.52083,0 -17.62115,4.7742023 -17.62115,4.7742023 l 2.4305,7.031097 z"
     id="path23" /><path
     style="fill:#b8b7aa;fill-opacity:1;stroke-width:0.599001"
     d="m 171.43724,18.055164 23.0129,2.691095 -2.45518,18.782115 -22.21936,-2.700695 0.62,-7.140823 z"
     id="path24" /><path
     style="fill:#b8b7aa;fill-opacity:1;stroke-width:0.599001"
     d="m 33.33261,47.394804 c 5.20822,2.777717 27.429957,15.971874 27.429957,15.971874 L 75.519192,47.221195 50.519734,31.596536 61.97782,19.444022 79.338553,30.207677 85.067597,22.395347 101.38669,21.353703 99.997828,5.0346128 70.137366,7.4651155 63.8875,3.9929688 57.116815,0 43.575443,14.235802 37.325577,10.590048 30.902105,17.534341 21.605571,12.766928 8.1020893,30.93525 l 6.8744997,4.173802 -3.43725,6.137947 16.695213,9.820714 1.278695,0.754078 z"
     id="path25" /><path
     style="fill:#664c41;fill-opacity:1;stroke-width:0.599001"
     d="m 13.573891,42.443794 c 3.00561,-1.906479 5.956934,-8.069541 5.956934,-8.069541 l -9.436354,-6.119664 4.759359,-6.4035 48.860064,30.751935 -2.951327,10.763654 -28.90562,-20.398861 -5.745616,6.850943 z"
     id="path26" /><path
     style="fill:#594239;fill-opacity:1;stroke-width:0.599001"
     d="M 14.85383,21.851089 19.508651,15.588238 37.412382,25.954297 60.502156,1.9964844 63.8875,3.9929688 35.913401,35.105728 Z"
     id="path27" /><path
     style="fill:#513c34;fill-opacity:1;stroke-width:0.599001"
     d="M 63.8875,3.9929688 68.781262,6.711725 46.700373,31.943751 35.913401,35.105728 Z"
     id="path28" /><path
     style="fill:#553f37;fill-opacity:1;stroke-width:0.599001"
     d="M 46.700373,31.943751 75.519192,47.221195 63.713894,52.603024 35.913401,35.105728 Z"
     id="path29" /><path
     style="fill:#594239;fill-opacity:1;stroke-width:0.599001"
     d="m 30.902105,17.534341 5.685642,3.29854 0.73783,-10.242833 z"
     id="path30" /><path
     style="fill:#4a372f;fill-opacity:1;stroke-width:0.599001"
     d="m 36.587747,20.832881 0.73783,-10.242833 6.249866,3.645754 z"
     id="path31" /><path
     style="fill:#664c41;fill-opacity:1;stroke-width:0.599001"
     d="m 62.300156,9.6365757 -1.467546,6.1581433 17.97862,11.273624 0.306898,-8.04071 z"
     id="path32" /><path
     style="fill:#5b443a;fill-opacity:1;stroke-width:0.599001"
     d="M 100.13412,6.6360627 C 96.488516,6.9358792 69.66569,9.022781 69.66569,9.022781 l -7.365534,0.6137945 7.25964,4.0537405 31.005334,-1.98991 z"
     id="path33" /><path
     style="fill:#4b3830;fill-opacity:1;stroke-width:0.599001"
     d="m 69.559796,13.690316 9.558332,5.337317 21.940572,-1.527737 -0.49357,-5.79949 z"
     id="path34" /><path
     style="fill:#46342d;fill-opacity:1;stroke-width:0.599001"
     d="m 78.81123,27.068343 7.043073,-8.509755 -6.736175,0.469045 z"
     id="path35" /><path
     style="fill:#5b433a;fill-opacity:1;stroke-width:0.599001"
     d="m 10.741406,66.351199 c 0,1.22759 0.859313,23.201437 0.859313,23.201437 l -5.2668298,0.71179 -0.9324965,-24.71116 z"
     id="path36" /><path
     style="fill:#49352e;fill-opacity:1;stroke-width:0.599001"
     d="m 10.741406,66.351199 4.800365,-1.286256 v 24.303556 l -3.941052,0.184137 z"
     id="path37" /><path
     style="fill:#594038;fill-opacity:1;stroke-width:0.599001"
     d="m 13.810379,73.778114 3.375871,-3.068973 h 2.455178 l 0.04404,3.127139 z"
     id="path38" /><path
     style="fill:#6c4e44;fill-opacity:1;stroke-width:0.599001"
     d="m 13.810379,73.778114 2.884835,5.64691 h 3.068973 l -0.07872,-5.588744 z"
     id="path39" /><path
     style="fill:#62473e;fill-opacity:1;stroke-width:0.599001"
     d="m 16.695214,79.425024 -1.153443,0.759865 -1.731392,-6.406775 z"
     id="path40" /><path
     style="fill:#523b34;fill-opacity:1;stroke-width:0.599001"
     d="M 13.810379,73.778114 17.18625,70.709141 15.541771,69.182524 Z"
     id="path41" /><path
     style="fill:#6e4f46;fill-opacity:1;stroke-width:0.599001"
     d="M 14.062194,135.58733 24.912653,153.7293 17.800044,160.56868 4.7875981,137.36724 Z"
     id="path42" /><path
     style="fill:#563e37;fill-opacity:1;stroke-width:0.599001"
     d="m 14.062194,135.58733 7.543377,-7.54977 13.257963,22.58764 -9.950881,3.1041 z"
     id="path43" /><path
     style="fill:#75554b;fill-opacity:1;stroke-width:0.599001"
     d="m 27.646968,170.439 c 0,0 13.411168,-10.15602 13.324364,-10.32963 -0.0868,-0.17361 -3.55895,-5.85925 -3.55895,-5.85925 l -6.293265,5.38183 -6.11966,3.81936 -4.426987,1.56247 z"
     id="path44" /><path
     style="fill:#62473f;fill-opacity:1;stroke-width:0.599001"
     d="m 27.646968,170.439 4.296783,7.85574 4.817602,-5.51204 5.251622,-5.16481 5.555435,-2.86453 -6.597078,-4.64399 z"
     id="path45" /><path
     style="fill:#553e37;fill-opacity:1;stroke-width:0.599001"
     d="m 36.761353,167.74809 5.251622,-0.1302 10.022176,9.73756 -4.987562,2.54515 z"
     id="path46" /><path
     style="fill:#72534a;fill-opacity:1;stroke-width:0.599001"
     d="m 36.761353,167.74809 10.286236,12.15251 -3.210383,3.81532 -8.521475,-9.27922 z"
     id="path47" /><path
     style="fill:#76564d;fill-opacity:1;stroke-width:0.599001"
     d="m 64.061109,185.32584 9.287991,5.98945 -0.954841,8.29073 c 0,0 -20.660987,-9.22391 -19.357218,-10.46082 1.303769,-1.23691 11.024068,-3.81936 11.024068,-3.81936 z"
     id="path48" /><path
     style="fill:#866258;fill-opacity:1;stroke-width:0.599001"
     d="M 64.061109,185.32584 53.037041,189.1452 66.578413,176.29825 Z"
     id="path49" /><path
     style="fill:#533d36;fill-opacity:1;stroke-width:0.599001"
     d="m 64.061109,185.32584 2.517304,-9.02759 17.621147,13.10736 -10.850462,1.90968 z"
     id="path50" /><path
     style="fill:#634841;fill-opacity:1;stroke-width:0.599001"
     d="m 73.349098,191.31529 -0.954839,8.29073 11.805301,-10.20041 z"
     id="path51" /><path
     style="fill:#77584e;fill-opacity:1;stroke-width:0.599001"
     d="m 53.240855,107.26021 14.057571,24.79181 -5.654272,3.20612 -14.057575,-24.79182 z"
     id="path52" /><path
     style="fill:#574039;fill-opacity:1;stroke-width:0.599001"
     d="m 53.240855,107.26021 5.654275,-3.20612 14.057572,24.79182 -5.654276,3.20611 z"
     id="path53" /><path
     style="fill:#574039;fill-opacity:1;stroke-width:0.599001"
     d="m 63.627089,136.19496 5.729042,5.03461 8.742579,-8.92615 -5.146008,-3.45751 -11.308548,6.41223 z"
     id="path54" /><path
     style="fill:#5f463e;fill-opacity:1;stroke-width:0.599001"
     d="m 69.356131,141.22957 7.899093,3.87498 5.989494,-9.34361 -5.146008,-3.45752 z"
     id="path55" /><path
     style="fill:#584139;fill-opacity:1;stroke-width:0.599001"
     d="m 86.456455,145.74336 4.426988,-6.85749 23.263387,11.97891 -3.81937,5.90265 z"
     id="path56" /><path
     style="fill:#664c42;fill-opacity:1;stroke-width:0.599001"
     d="m 109.02541,162.23606 9.80069,-16.97529 13.44586,7.76297 -14.56618,23.18771 -13.02055,-5.81585 4.38358,-6.94429 z"
     id="path57" /><path
     style="fill:#78594e;fill-opacity:1;stroke-width:0.599001"
     d="m 110.32746,156.76743 -4.26375,7.54539 -23.249784,-12.92711 3.642529,-5.64235 z"
     id="path58" /><path
     style="fill:#78594e;fill-opacity:1;stroke-width:0.599001"
     d="m 163.36451,160.934 6.85749,15.88507 14.28485,6.69831 c 0,0 5.07236,-10.51767 5.07236,-10.51767 z"
     id="path59" /><path
     style="fill:#78594e;fill-opacity:1;stroke-width:0.599001"
     d="m 163.36451,160.934 -13.02055,24.99946 -12.26517,-2.97676 23.58397,-45.24335 8.73284,4.29745 z"
     id="path60" /><path
     style="fill:#644a41;fill-opacity:1;stroke-width:0.599001"
     d="m 163.36451,160.934 12.67333,-8.85397 3.15965,-6.31931 -8.80189,-3.74992 z"
     id="path61" /><path
     style="fill:#513c35;fill-opacity:1;stroke-width:0.599001"
     d="m 163.36451,160.934 12.67333,-8.85397 19.44402,8.68036 -5.90265,12.23932 z"
     id="path62" /><path
     style="fill:#5f473e;fill-opacity:1;stroke-width:0.599001"
     d="m 150.34396,185.93346 12.55096,7.44124 7.32708,-16.55563 -6.85749,-15.88507 z"
     id="path63" /><path
     style="fill:#564038;fill-opacity:1;stroke-width:0.599001"
     d="m 98.452658,59.967735 2.934032,-3.380547 v 6.77949 z"
     id="path64" /><path
     style="fill:#694e44;fill-opacity:1;stroke-width:0.599001"
     d="m 130.2055,26.909138 c 3.64576,-0.651028 14.41589,-3.045075 14.41589,-3.045075 l -1.64553,-5.584825 -14.54983,3.725492 z"
     id="path65" /><path
     style="fill:#77594d;fill-opacity:1;stroke-width:0.599001"
     d="m 144.62139,23.864063 2.96275,10.055398 -2.14459,2.104062 -9.3748,2.604109 -3.38534,-0.607624 -2.47391,-11.11087 z"
     id="path66" /><path
     style="fill:#8a6759;fill-opacity:1;stroke-width:0.599001"
     d="m 130.2055,26.909138 2.09843,9.424493 -5.57057,1.642975 0.92353,4.676058 -5.63117,0.777211 -1.45542,-6.451513 -7.61556,1.404631 -1.23842,-5.484403 z"
     id="path67" /><path
     style="fill:#77594c;fill-opacity:1;stroke-width:0.599001"
     d="m 130.2055,26.909138 -1.77947,-4.904408 -18.19568,4.313111 1.48597,6.580749 z"
     id="path68" /><path
     style="fill:#77594c;fill-opacity:1;stroke-width:0.599001"
     d="m 141.00431,12.440212 16.67953,-4.2767434 -0.0614,9.7593344 -13.82384,3.148847 z"
     id="path69" /><path
     style="fill:#876556;fill-opacity:1;stroke-width:0.599001"
     d="m 143.79862,21.07165 c 0.82277,2.792413 2.30414,7.820111 2.30414,7.820111 0,0 12.01074,-2.621351 11.94936,-2.928248 -0.0614,-0.306897 -0.42968,-8.04071 -0.42968,-8.04071 z"
     id="path70" /><path
     style="fill:#74574a;fill-opacity:1;stroke-width:0.599001"
     d="M 157.62244,17.922803 169.71421,18.475218 172.256,8.9123588 157.68384,8.1634686 Z"
     id="path71" /><path
     style="fill:#8f6b5b;fill-opacity:1;stroke-width:0.599001"
     d="m 157.62244,17.922803 0.42968,8.04071 10.80278,0.982071 0.85931,-8.470366 z"
     id="path72" /><path
     style="fill:#8f6b5b;fill-opacity:1;stroke-width:0.599001"
     d="m 182.9108,20.746259 c 0,0 -1.41173,16.388316 -1.90276,16.204179 -0.49104,-0.18414 -11.08549,-1.815211 -11.08549,-1.815211 l 1.32954,-15.012537 z"
     id="path73" /><path
     style="fill:#674d41;fill-opacity:1;stroke-width:0.599001"
     d="m 182.9108,20.746259 11.3133,1.729194 -2.00826,15.36317 -11.2078,-0.888185 z"
     id="path74" /><path
     style="fill:#53392d;fill-opacity:1;stroke-width:0.599001"
     d="m 121.44534,77.968355 56.15497,26.022435 5.20821,-9.461596 -38.62763,-17.360733 -18.48918,-7.378311 z"
     id="path75" /><path
     style="fill:#6e4c3c;fill-opacity:1;stroke-width:0.599001"
     d="m 177.60031,103.99079 -3.81937,9.46161 -37.41238,-16.058684 -20.05164,-9.548402 5.12842,-9.876959 z"
     id="path76" /><path
     style="fill:#654637;fill-opacity:1;stroke-width:0.599001"
     d="m 134.9363,73.479305 6.48198,-2.616714 2.76261,6.30587 z"
     id="path77" /><path
     style="fill:#543a2e;fill-opacity:1;stroke-width:0.599001"
     d="m 141.41828,70.862591 7.88727,1.473108 -5.12466,4.832762 z"
     id="path78" /><path
     style="fill:#593d31;fill-opacity:1;stroke-width:0.599001"
     d="m 144.18089,77.168461 5.12466,-4.832762 4.1738,4.235182 z"
     id="path79" /><path
     style="fill:#5c3f33;fill-opacity:1;stroke-width:0.599001"
     d="m 144.18089,77.168461 9.29846,-0.597582 2.35507,5.835123 z"
     id="path80" /><path
     style="fill:#734f40;fill-opacity:1;stroke-width:0.599001"
     d="m 133.2598,95.913354 -5.0381,6.037936 -5.40139,-5.094498 z"
     id="path81" /><path
     style="fill:#795343;fill-opacity:1;stroke-width:0.599001"
     d="m 133.2598,95.913352 -10.43949,0.943438 -0.7133,-6.254293 z"
     id="path82" /><path
     style="fill:#6c4a3c;fill-opacity:1;stroke-width:0.599001"
     d="m 128.2217,101.95129 7.97933,2.20966 -2.94123,-8.247598 z"
     id="path83" /><path
     style="fill:#614336;fill-opacity:1;stroke-width:0.599001"
     d="m 133.2598,95.913352 2.94123,8.247598 9.23003,-2.8773 z"
     id="path84" /><path
     style="fill:#493229;fill-opacity:1;stroke-width:0.599001"
     d="m 178.03043,103.20941 4.7347,2.04004 4.03637,-6.640481 -5.18938,-1.906323 z"
     id="path85" /><path
     style="fill:#69483b;fill-opacity:1;stroke-width:0.599001"
     d="m 182.76513,105.24945 -2.50899,6.93686 -5.34834,-1.52545 2.69251,-6.67007 0.43012,-0.78138 z"
     id="path86" /></svg>
