<?xml version="1.0" encoding="UTF-8" standalone="no"?>
<!-- Created with Inkscape (http://www.inkscape.org/) -->

<svg
   width="199.60603mm"
   height="199.60602mm"
   viewBox="0 0 199.60603 199.60602"
   version="1.1"
   id="svg5"
   xml:space="preserve"
   xmlns="http://www.w3.org/2000/svg"
   xmlns:svg="http://www.w3.org/2000/svg"><defs
     id="defs2" /><path
     style="fill:#917c46;fill-opacity:1;stroke:none;stroke-width:0.390215"
     d="M 0,99.803008 V -1.9335937e-6 h 99.80301 99.80301 V 99.803008 199.60602 H 99.80301 0 Z"
     id="path15635" /><path
     style="fill:#000000;fill-opacity:1;stroke:none;stroke-width:0.0451301"
     d="M -53.970676,99.803008 V 94.865802 H -26.985337 0 v 4.937206 4.937212 h -26.985337 -26.985339 z"
     id="path15635-5-7" /><path
     style="fill:#000000;fill-opacity:1;stroke:none;stroke-width:0.0451301"
     d="m 199.60602,99.803008 v -4.9372 h 26.98534 26.98534 v 4.9372 4.937222 h -26.98534 -26.98534 z"
     id="path15635-5-7-5" /><path
     style="fill:#6d6d5e;fill-opacity:1;stroke-width:0.599001"
     d="m 0,0 22.096607,26.024892 6.383463,19.641429 9.820714,12.766929 20.132466,8.838641 23.569712,-4.419322 20.132468,-8.838642 21.11453,-4.910357 24.06075,0.491035 17.18625,-9.329676 L 185.6115,19.150392 199.60602,-1.9335937e-6 199.60603,199.60602 180.20442,179.50999 165.96861,162.49647 149.30231,155.89939 126.38614,152.77446 101.7339,153.46889 83.678738,147.91345 69.09572,130.55272 56.943206,131.94158 52.77663,149.64952 49.6517,160.06597 35.415897,169.78798 20.138451,180.55163 0,199.60602 Z"
     id="path94" /><path
     style="fill:#59594d;fill-opacity:1;stroke-width:0.599001"
     d="m 0,0 11.048303,13.012446 2.148282,0.245518 1.841383,1.964143 -0.01225,2.474846 7.070891,8.327939 6.383463,19.641429 3.164808,4.114249 2.543482,0.48921 1.718625,2.27104 -0.136679,2.602809 2.530478,3.289621 20.132466,8.838641 23.56971,-4.419322 6.160235,-2.704494 1.205304,-4.66104 5.278633,-2.45518 4.360482,2.355257 3.127814,-1.373185 21.11453,-4.910357 24.06075,0.491035 17.18625,-9.329676 5.59085,-5.590847 -1.47842,-1.345033 -0.12276,-1.104831 1.04345,-0.306896 1.93345,1.381035 5.9845,-5.984496 -1.28897,-1.841384 v -1.10483 l 1.22759,-0.122759 1.68793,1.442417 3.62139,-3.621388 2.91553,-2.915525 4.21275,-5.764815 -0.59225,-3.663566 2.4305,-3.4721469 3.74366,-0.5026937 4.19986,-5.7471723335937 V 6.5970789 l -7.5963,10.5900471 -4.6006,5.642239 -6.77069,6.770686 -8.24634,8.506759 -1.08505,-0.347213 -4.861,4.687398 -7.85574,4.253378 -8.63696,4.47039 0.0434,1.085045 -1.64927,0.824635 -2.03988,0.130207 -0.39062,-1.215253 -6.11966,0.08681 -16.11769,-0.707591 -20.13247,4.787598 -8.593117,3.928285 -12.275894,5.70829 -15.03797,2.639316 -4.186684,0.831229 -1.041644,2.604108 -5.555435,0.694431 -4.947811,-1.736074 0.173609,-2.517307 L 41.058136,63.279874 35.936719,60.849372 29.860462,52.516219 25.693886,46.83058 20.529068,30.902105 19.227013,27.42996 14.756624,21.961328 5.4013927,11.171062 0,4.7875981 Z"
     id="path95" /><path
     style="fill:#59594d;fill-opacity:1;stroke-width:0.599001"
     d="m 0,199.60602 20.138451,-19.05439 7.638721,-5.38183 1.930488,1.1734 2.700697,-0.18414 0.552416,-1.53449 -1.124403,-2.31466 17.81533,-12.24394 7.291506,-28.12439 2.789645,-0.31882 0.118279,1.70768 7.161303,-0.82464 -0.173887,-1.69512 2.257174,-0.25796 14.583018,17.36073 7.142768,2.19778 -0.54569,2.92364 1.128448,2.60411 3.211735,-1.04164 1.567159,-2.83637 5.550742,1.70792 24.65224,-0.69443 22.91617,3.12493 16.6663,6.59708 3.38022,4.03977 -0.86291,2.64411 2.1701,2.77772 3.54997,0.38307 5.99843,7.16885 8.40099,8.70167 11.00062,11.39436 v -4.55818 l -7.3793,-7.42171 -8.88627,-8.02982 -6.8745,-8.40899 c 0,0 3.43725,-1.90276 3.13035,-2.02552 -0.3069,-0.12276 -5.58553,-5.95381 -5.58553,-5.95381 l -2.63932,1.84139 -3.37587,-4.05105 -10.80278,-4.66484 -6.63185,-2.43058 -10.93726,-1.77948 -13.10735,-1.86628 -24.1354,0.36805 -2.700702,-1.16621 0.675172,-1.78 -10.741403,-3.37587 -0.920692,2.27104 -3.621389,-1.16621 -9.820714,-11.72348 -3.928285,-4.54208 1.657244,-1.44242 -2.731386,-3.19173 -2.332418,2.24035 -9.912784,1.04345 -2.319039,-2.44754 -3.515548,3.12493 2.343698,2.17009 -0.520822,1.82288 0.303813,0.82464 -3.55895,12.89034 -3.255139,12.06571 -4.383585,2.99473 -8.84828,6.0826 -0.982073,-1.10483 -7.979329,5.34001 0.797933,1.41173 -7.672433,5.40139 -6.137946,5.46277 L 0,195.69887 Z"
     id="path96" /><ellipse
     style="fill:#59594d;fill-opacity:1;stroke-width:0.194992"
     id="path93-5-6"
     cx="122.00208"
     cy="50.140911"
     rx="6.0322194"
     ry="6.0565434" /><ellipse
     style="fill:#59594d;fill-opacity:1;stroke-width:0.194992"
     id="path93-5-6-9"
     cx="126.51635"
     cy="156.31369"
     rx="6.0322194"
     ry="6.0565434" /><ellipse
     style="fill:#59594d;fill-opacity:1;stroke-width:0.194992"
     id="path93-5-6-9-0"
     cx="184.40492"
     cy="189.91737"
     rx="6.0322194"
     ry="6.0565434" /><ellipse
     style="fill:#59594d;fill-opacity:1;stroke-width:0.194992"
     id="path93-5-6-9-8"
     cx="49.130241"
     cy="161.23782"
     rx="6.0322194"
     ry="6.0565434" /><ellipse
     style="fill:#59594d;fill-opacity:1;stroke-width:0.154043"
     id="path93-5-6-9-8-6"
     cx="20.639479"
     cy="183.21674"
     rx="4.7654457"
     ry="4.7846618" /><path
     style="fill:#53392d;fill-opacity:1;stroke-width:0.599001"
     d="m 44.807007,131.59757 c 0.368279,-1.59587 3.560011,-11.29382 3.560011,-11.29382 L 28.72559,115.39339 26.147651,125.8279 Z"
     id="path97" /><path
     style="fill:#6b493a;fill-opacity:1;stroke-width:0.599001"
     d="m 26.147651,125.8279 -2.762076,8.77726 19.641429,5.64691 1.780003,-8.6545 z"
     id="path98" /><path
     style="fill:#6b493a;fill-opacity:1;stroke-width:0.599001"
     d="m 7.2047046,158.5035 16.7531084,-12.06571 5.034612,5.90265 -17.707948,11.11087 z"
     id="path99" /><path
     style="fill:#624335;fill-opacity:1;stroke-width:0.599001"
     d="m 11.284477,163.45131 3.038129,4.16657 17.534341,-10.06922 -2.864522,-5.20822 z"
     id="path100" /><path
     style="fill:#624335;fill-opacity:1;stroke-width:0.599001"
     d="m 13.810379,65.491888 5.524152,7.979328 6.076567,-4.848976 -4.60346,-6.137947 z"
     id="path101" /><path
     style="fill:#6a4839;fill-opacity:1;stroke-width:0.599001"
     d="m 19.334531,73.471216 6.076567,-4.848976 4.726219,2.455177 -2.20966,6.628985 z"
     id="path102" /><path
     style="fill:#75503f;fill-opacity:1;stroke-width:0.599001"
     d="m 27.927657,77.706402 -1.657247,4.971735 -9.882093,-5.217256 2.946214,-3.989665 z"
     id="path103" /><path
     style="fill:#7d5543;fill-opacity:1;stroke-width:0.599001"
     d="m 19.334531,73.471216 c 0,0 -2.946214,3.989663 -2.946214,3.989663 L 9.6979551,67.824307 13.810379,65.491888 Z"
     id="path104" /><path
     style="fill:#724e3d;fill-opacity:1;stroke-width:0.599001"
     d="m 89.494584,73.175494 14.843426,-7.985937 2.51731,4.7742 c 0,0 -15.017039,8.853974 -15.10384,8.419957 -0.0868,-0.43402 -2.256896,-5.20822 -2.256896,-5.20822 z"
     id="path105" /><path
     style="fill:#785240;fill-opacity:1;stroke-width:0.599001"
     d="m 106.85532,69.963757 2.86452,4.774202 -15.017037,8.419957 -2.951323,-4.774202 z"
     id="path106" /><path
     style="fill:#76564d;fill-opacity:1;stroke-width:0.599001"
     d="m 115.39339,128.77411 29.95318,1.35035 -1.10483,10.80279 -29.70766,-1.22759 z"
     id="path107" /><path
     style="fill:#6f5149;fill-opacity:1;stroke-width:0.599001"
     d="m 115.39339,128.77411 0.6138,-9.57519 29.33938,1.84138 v 9.08416 z"
     id="path108" /><path
     style="fill:#7d5b52;fill-opacity:1;stroke-width:0.599001"
     d="m 138.36505,89.581386 v 23.089774 c 0,0 13.54137,2.08329 13.71498,0.34722 0.17361,-1.73608 0.17361,-23.957816 0.17361,-23.957816 z"
     id="path109" /><path
     style="fill:#5f453e;fill-opacity:1;stroke-width:0.599001"
     d="m 152.25364,89.060564 h 11.28447 l -0.86803,23.784206 -10.59005,0.17361 z"
     id="path110" /><path
     style="fill:#634841;fill-opacity:1;stroke-width:0.599001"
     d="m 147.99323,89.220327 19.88507,-0.159763 0.60762,-13.367763 -20.05165,0.520821 z"
     id="path111" /><path
     style="fill:#7f5c53;fill-opacity:1;stroke-width:0.599001"
     d="m 147.99323,89.220325 -12.75311,0.53467 0.43402,-12.673336 12.76013,-0.868039 z"
     id="path112" /><path
     style="fill:#7f5c53;fill-opacity:1;stroke-width:0.599001"
     d="m 106.06371,111.95614 -6.01519,16.32694 -17.554523,-7.85657 7.488296,-13.13521 z"
     id="path113" /><path
     style="fill:#684b44;fill-opacity:1;stroke-width:0.599001"
     d="m 82.493997,120.42651 -11.17106,-12.88969 11.048302,-7.4883 7.611054,7.24278 z"
     id="path114" /><path
     style="fill:#71514a;fill-opacity:1;stroke-width:0.599001"
     d="m 160.49998,138.88587 3.64576,-11.28448 19.27041,6.85749 -4.16657,9.63521 z"
     id="path115" /><path
     style="fill:#7f5b53;fill-opacity:1;stroke-width:0.599001"
     d="m 160.49998,138.88587 -2.86452,6.24987 19.44402,5.20822 2.1701,-6.24987 z"
     id="path116" /><path
     style="fill:#89625a;fill-opacity:1;stroke-width:0.599001"
     d="m 176.55866,65.363163 7.89914,11.544887 5.81584,-4.166576 -8.59356,-10.937261 z"
     id="path117" /><path
     style="fill:#5f443e;fill-opacity:1;stroke-width:0.599001"
     d="m 181.68008,61.804213 4.7742,-3.645754 8.15955,10.763654 -4.34019,3.819361 z"
     id="path118" /><g
     id="g121-2-4"
     transform="matrix(1.2071318,0,0,1.2071318,-24.313969,-13.900965)"><path
       style="fill:#212529;fill-opacity:1;stroke-width:0.430694"
       d="m 109.71984,82.013167 17.51845,-0.293522 0.13272,10.33192 -1.92438,6.457448 -6.63577,5.459487 -6.63578,-4.461518 c -0.13272,-0.352223 -2.25617,-6.809673 -2.25617,-6.809673 z"
       id="path119-9-8-3" /><path
       style="fill:#cfd9e0;fill-opacity:1;stroke-width:0.362077"
       d="m 111.30734,82.988764 13.85209,-0.262351 0.10494,9.234727 -1.52163,5.771703 -5.247,4.879717 -5.24701,-3.987728 c -0.10494,-0.314819 -1.78398,-6.086522 -1.78398,-6.086522 z"
       id="path119-2-6" /><path
       style="fill:#436278;fill-opacity:1;stroke-width:0.362077"
       d="m 118.23338,82.857588 -0.0525,9.103552 h 7.08345 l -0.10494,-9.234727 z"
       id="path120-3-8" /><path
       style="fill:#436278;fill-opacity:1;stroke-width:0.362077"
       d="m 118.18092,91.96114 0.31482,10.65142 -5.24701,-3.987728 -1.78398,-6.086523 z"
       id="path121-4-4" /></g></svg>
