<?xml version="1.0" encoding="UTF-8" standalone="no"?>
<!-- Created with Inkscape (http://www.inkscape.org/) -->

<svg
   width="199.60603mm"
   height="199.60602mm"
   viewBox="0 0 199.60603 199.60602"
   version="1.1"
   id="svg5"
   xml:space="preserve"
   xmlns="http://www.w3.org/2000/svg"
   xmlns:svg="http://www.w3.org/2000/svg"><defs
     id="defs2" /><path
     style="fill:#917c46;fill-opacity:1;stroke:none;stroke-width:0.390215"
     d="M 0,99.803008 V -1.9335937e-6 h 99.80301 99.80301 V 99.803008 199.60602 H 99.80301 0 Z"
     id="path15635" /><path
     style="fill:#000000;fill-opacity:1;stroke:none;stroke-width:0.0451301"
     d="M -53.970676,99.803008 V 94.865802 H -26.985337 0 v 4.937206 4.937212 h -26.985337 -26.985339 z"
     id="path15635-5-7" /><path
     style="fill:#000000;fill-opacity:1;stroke:none;stroke-width:0.0451301"
     d="m 199.60602,99.803008 v -4.9372 h 26.98534 26.98534 v 4.9372 4.937222 h -26.98534 -26.98534 z"
     id="path15635-5-7-5" /><ellipse
     style="fill:#59594d;fill-opacity:1;stroke-width:0.230297"
     id="path93-5-89-32-6-82"
     cx="44.790691"
     cy="147.6015"
     rx="7.1244278"
     ry="7.1531563" /><ellipse
     style="fill:#59594d;fill-opacity:1;stroke-width:0.230297"
     id="path93-5-89-32-6-82-0"
     cx="178.73364"
     cy="189.4257"
     rx="7.1244278"
     ry="7.1531563" /><path
     style="fill:#6d6d5e;fill-opacity:1;stroke-width:0.599001"
     d="m 0,199.60602 12.846943,-7.24909 11.805299,-10.93726 10.41644,-23.78421 9.722011,-17.18712 14.062194,-9.3748 16.145483,-6.07626 16.666305,-2.4305 31.249325,0.69443 24.30502,7.29151 14.58302,15.97187 11.11087,25.69389 7.98594,14.84343 18.70717,12.54411 V -1.9335937e-6 L 0,0 Z"
     id="path156" /><path
     style="fill:#59594d;fill-opacity:1;stroke-width:0.599001"
     d="m 0,199.60602 12.846943,-7.24909 5.902649,-5.46863 0.953216,0.62596 h 1.10483 l 0.122759,-0.73655 -0.716334,-1.2462 4.438179,-4.11184 10.41644,-23.78421 9.722011,-17.18712 14.062194,-9.3748 16.145483,-6.07626 16.666305,-2.4305 31.249325,0.69443 24.30502,7.29151 5.35639,5.86652 -1.06021,1.10145 -0.0307,1.62655 1.65724,0.0921 1.36877,-0.70066 7.29151,7.98594 5.55543,12.84694 5.55544,12.84695 7.98594,14.84343 18.70718,12.54411 1e-5,-3.3826 -15.1751,-11.1164 -8.9976,-15.63635 -10.5184,-24.70688 -15.81622,-16.22557 -25.03941,-8.34285 -31.992287,-0.70562 -20.485555,3.00629 -13.581939,4.71883 -15.810658,11.27741 -10.482163,19.15985 -9.649239,21.87051 -10.662985,9.86317 L 0,195.77059 Z"
     id="path157" /><path
     style="fill:#59594d;fill-opacity:1;stroke-width:0.599001"
     d="m 119.60744,123.18773 -0.3392,6.23654 8.76717,0.86804 1.04165,-11.19768 -9.20297,-0.57089 z"
     id="path158" /><path
     style="fill:#59594d;fill-opacity:1;stroke-width:0.599001"
     d="m 81.942664,118.92103 1.562465,11.54489 9.808816,-1.30206 -1.64927,-12.41293 z"
     id="path159" /><path
     style="fill:#59594d;fill-opacity:1;stroke-width:0.599001"
     d="m 49.825306,30.554893 2.604111,13.714978 3.12493,-0.520822 4.687398,21.006488 -4.513789,1.215252 2.777718,11.631692 14.583016,-3.472148 -1.909681,-6.770685 21.353703,-5.555435 3.472146,3.645755 9.027582,-8.159546 -3.12493,-2.777718 0.52082,-20.832881 3.81936,-1.041644 -2.77772,-10.41644 -4.340179,1.388859 -8.853975,-11.978906 -14.533559,3.099379 -0.245518,-1.841384 -17.063489,3.682768 2.086901,10.802786 z"
     id="path160" /><path
     style="fill:#59594d;fill-opacity:1;stroke-width:0.599001"
     d="m 164.74248,93.051266 13.50348,-16.695213 -5.27863,-4.173805 9.32968,-10.925545 5.03311,4.051046 -5.52415,6.137947 11.17106,8.102089 -7.61105,9.697956 -3.56001,-1.473108 -8.83864,10.18899 z"
     id="path161" /><path
     style="fill:#59594d;fill-opacity:1;stroke-width:0.599001"
     d="m 163.97213,140.27473 2.17009,2.51731 -1.2273,1.97178 1.0292,2.41751 2.02098,-1.43797 c 0,0 1.82288,4.86101 2.17009,4.86101 0.34722,0 3.47215,-1.21526 3.47215,-1.21526 l -3.38534,-7.46511 -4.25339,-4.6006 z"
     id="path162" /><path
     style="fill:#59594d;fill-opacity:1;stroke-width:0.599001"
     d="m 100.36101,119.67271 c 0,0 -0.623593,-5.8731 0.50485,-5.52588 1.12845,0.34721 13.28097,1.21525 13.28097,1.21525 l 0.52791,4.62633 z"
     id="path163" /><path
     style="fill:#59594d;fill-opacity:1;stroke-width:0.599001"
     d="m 112.23715,104.33801 -0.60763,6.68388 8.85397,0.60763 1.20599,7.00683 2.78609,0.17283 -1.38797,-7.26647 1.90968,0.17361 0.78124,-7.63872 -2.1701,-0.34722 0.69443,-4.426983 -10.15602,-0.173606 0.0868,4.687399 z"
     id="path164" /><path
     style="fill:#59594d;fill-opacity:1;stroke-width:0.599001"
     d="m 86.803668,117.83598 -0.347213,-4.90441 -3.211737,0.17361 -0.347213,-11.8921 12.499726,-0.78124 c 0,0 0.781236,6.33667 0.43402,6.33667 -0.347215,0 -3.732559,0.78123 -3.732559,0.78123 l -0.434017,4.07978 -2.777717,0.60763 0.058,5.12086 z"
     id="path165" /><path
     style="fill:#59594d;fill-opacity:1;stroke-width:0.599001"
     d="m 95.569555,101.91712 c 0.0074,0.067 18.620675,-0.44363 18.620675,-0.44363 l 0.0434,2.3437 -8.35406,0.0982 -0.24551,1.22759 -5.46278,0.36828 -0.306892,-1.22759 -4.038402,0.22415 z"
     id="path166" /><path
     style="fill:#664c41;fill-opacity:1;stroke-width:0.491177"
     d="M 32.126373,128.18062 C 31.971808,125.30609 28.70198,120.6003 28.70198,120.6003 l -8.310946,3.71228 -2.704164,-6.03718 42.353619,-19.631909 3.401098,7.940069 -23.447666,9.43085 2.625437,6.90225 z"
     id="path26" /><path
     style="fill:#513c34;fill-opacity:1;stroke-width:0.491177"
     d="m 24.789224,77.192567 3.979528,-2.124878 9.292831,26.044601 -2.119543,8.7014 z"
     id="path28" /><path
     style="fill:#553f37;fill-opacity:1;stroke-width:0.491177"
     d="M 38.061583,101.11229 57.925848,91.055149 60.040489,98.643491 35.94204,109.81369 Z"
     id="path29" /><path
     style="fill:#9c9a88;fill-opacity:1;stroke-width:0.599001"
     d="m 127.68531,89.519916 -14.1078,-3.79907 6.4559,-19.642307 16.57677,5.558828 z"
     id="path15" /><path
     style="fill:#9c9a88;fill-opacity:1;stroke-width:0.599001"
     d="m 115.30755,80.457139 -12.45396,-2.178336 4.62991,-11.873749 11.31827,3.42082 z"
     id="path16" /><path
     style="fill:#9c9a88;fill-opacity:1;stroke-width:0.599001"
     d="m 141.27149,74.028504 c -0.57086,1.915104 -9.53783,17.293505 -9.53783,17.293505 l 22.97396,12.576651 9.64227,-16.640725 z"
     id="path18" /><path
     style="fill:#6e4f46;fill-opacity:1;stroke-width:0.599001"
     d="m 157.30479,93.547025 -18.62553,-9.997665 2.59223,-9.520856 23.0784,13.229431 z"
     id="path42" /><path
     style="fill:#563e37;fill-opacity:1;stroke-width:0.599001"
     d="m 157.30479,93.547025 -2.59717,10.351635 -22.97396,-12.576651 6.9456,-7.772649 z"
     id="path43" /><path
     style="fill:#75554b;fill-opacity:1;stroke-width:0.599001"
     d="m 127.75388,70.613876 c 0,0 -6.29449,15.600755 -6.13086,15.705168 0.16362,0.104418 6.06229,3.200872 6.06229,3.200872 l 2.63743,-7.849407 3.29064,-6.419455 2.9968,-3.613687 z"
     id="path44" /><path
     style="fill:#62473f;fill-opacity:1;stroke-width:0.599001"
     d="m 127.75388,70.613876 -7.72047,-4.535337 -1.30425,7.203526 -1.85497,7.128383 -3.29668,5.310398 8.04551,0.598198 z"
     id="path45" /><path
     style="fill:#553e37;fill-opacity:1;stroke-width:0.599001"
     d="m 121.31398,77.602481 -4.43979,2.807967 -13.59983,-3.210726 2.97333,-4.744769 z"
     id="path46" /><path
     style="fill:#72534a;fill-opacity:1;stroke-width:0.599001"
     d="m 121.31398,77.602481 -15.06629,-5.147528 0.79614,-4.922337 12.0767,3.587883 z"
     id="path47" /><path
     style="fill:#92907c;fill-opacity:1;stroke-width:0.599001"
     d="m 145.38526,26.385503 -13.88859,26.56192 24.82585,10.24283 9.02758,-15.97187 12.84694,5.90265 11.8053,-24.47864 -19.44402,-8.68036 4.34018,-8.68037 -17.88155,-7.29151 z"
     id="path19" /><path
     style="fill:#78594e;fill-opacity:1;stroke-width:0.599001"
     d="m 157.88499,28.816003 6.85749,15.88507 14.28485,6.69831 c 0,0 5.07236,-10.51767 5.07236,-10.51767 z"
     id="path59" /><path
     style="fill:#78594e;fill-opacity:1;stroke-width:0.599001"
     d="m 157.88499,28.816003 -13.02055,24.99946 -12.26517,-2.97676 23.58397,-45.24335 8.73284,4.29745 z"
     id="path60" /><path
     style="fill:#644a41;fill-opacity:1;stroke-width:0.599001"
     d="m 157.88499,28.816003 12.67333,-8.85397 3.15965,-6.31931 -8.80189,-3.74992 z"
     id="path61" /><path
     style="fill:#513c35;fill-opacity:1;stroke-width:0.599001"
     d="m 157.88499,28.816003 12.67333,-8.85397 19.44402,8.68036 -5.90265,12.23932 z"
     id="path62" /><path
     style="fill:#5f473e;fill-opacity:1;stroke-width:0.599001"
     d="m 144.86444,53.815463 12.55096,7.44124 7.32708,-16.55563 -6.85749,-15.88507 z"
     id="path63" /><path
     style="fill:#b8b7aa;fill-opacity:1;stroke-width:0.697346"
     d="m 174.89418,137.3234 13.51182,-0.5079 v -12.06247 h 4.02138 l -0.16086,-9.0151 h -3.2171 l -0.64342,-6.7296 -14.79866,1.39671 z"
     id="path20" /><path
     style="fill:#5b433a;fill-opacity:1;stroke-width:0.697346"
     d="m 180.60454,111.23037 c 0,1.26974 1.12598,23.99796 1.12598,23.99796 l -6.9013,0.73623 -1.22188,-25.55952 z"
     id="path36" /><path
     style="fill:#49352e;fill-opacity:1;stroke-width:0.697346"
     d="m 180.60454,111.23037 6.29007,-1.33042 v 25.13793 l -5.16409,0.19045 z"
     id="path37" /><path
     style="fill:#594038;fill-opacity:1;stroke-width:0.697346"
     d="m 184.62591,118.91226 4.42351,-3.17433 h 3.2171 l 0.0577,3.23449 z"
     id="path38" /><path
     style="fill:#6c4e44;fill-opacity:1;stroke-width:0.697346"
     d="m 184.62591,118.91226 3.78009,5.84077 h 4.02138 l -0.10312,-5.78061 z"
     id="path39" /><path
     style="fill:#62473e;fill-opacity:1;stroke-width:0.697346"
     d="m 188.406,124.75303 -1.51139,0.78596 -2.2687,-6.62673 z"
     id="path40" /><path
     style="fill:#523b34;fill-opacity:1;stroke-width:0.697346"
     d="m 184.62591,118.91226 4.42351,-3.17433 -2.15481,-1.57903 z"
     id="path41" /><path
     style="fill:#665041;fill-opacity:1;stroke-width:0.599001"
     d="M 15.222107,8.224848 21.851089,12.644169 10.188991,30.321456 3.0689732,25.779375 Z"
     id="path167" /><path
     style="fill:#4f3e32;fill-opacity:1;stroke-width:0.599001"
     d="m 21.851089,12.644169 6.015187,4.173804 -12.153133,18.045561 -5.524152,-4.542078 z"
     id="path168" /><path
     style="fill:#624d3e;fill-opacity:1;stroke-width:0.599001"
     d="M 35.722848,9.3296784 46.402873,3.1917322 49.349088,7.9793303 38.178025,14.485553 Z"
     id="path169" /><path
     style="fill:#544235;fill-opacity:1;stroke-width:0.599001"
     d="m 38.178025,14.485553 2.823456,5.401393 10.925545,-5.646911 -2.577938,-6.2607047 z"
     id="path170" /><path
     style="fill:#665040;fill-opacity:1;stroke-width:0.599001"
     d="m 11.662098,44.070455 6.383464,-4.787599 9.697955,14.731071 -6.137946,4.419323 z"
     id="path171" /><path
     style="fill:#524134;fill-opacity:1;stroke-width:0.599001"
     d="m 18.045562,39.282856 5.76967,-3.682767 8.838642,13.380723 -4.910357,5.033115 z"
     id="path172" /><path
     style="fill:#584638;fill-opacity:1;stroke-width:0.599001"
     d="m 25.693886,45.354917 0.920498,-5.517221 3.159273,-2.29511 2.039888,3.124933 z"
     id="path173" /><path
     style="fill:#4c3d31;fill-opacity:1;stroke-width:0.599001"
     d="m 25.693886,45.354917 4.614566,0.07519 3.371371,-2.245278 -1.866278,-2.517306 z"
     id="path174" /><path
     style="fill:#5d4a3c;fill-opacity:1;stroke-width:0.599001"
     d="m 10.590048,148.86829 6.249864,9.4616 -4.947809,3.73256 -5.815846,-9.98242 z"
     id="path175" /><path
     style="fill:#4d3d31;fill-opacity:1;stroke-width:0.599001"
     d="m 10.590048,148.86829 4.51379,-2.69091 6.510276,8.41996 -4.774202,3.73255 z"
     id="path176" /><path
     style="fill:#4d3d31;fill-opacity:1;stroke-width:0.599001"
     d="m 124.21605,7.5519192 -5.55544,5.2950238 11.45809,9.895618 5.38183,-6.423471 z"
     id="path177" /><path
     style="fill:#614d3e;fill-opacity:1;stroke-width:0.599001"
     d="m 118.66061,12.846943 -4.07977,5.815846 4.42699,4.513791 -1.82288,3.124932 5.46863,4.687398 7.46512,-8.246349 z"
     id="path178" /><path
     style="fill:#77584c;fill-opacity:1;stroke-width:0.599001"
     d="m 24.789224,77.192565 -6.213239,2.493203 9.287992,27.343152 -12.32612,5.98946 2.149013,5.25702 18.255169,-8.46171 z"
     id="path179" /></svg>
