<?xml version="1.0" encoding="UTF-8" standalone="no"?>
<!-- Created with Inkscape (http://www.inkscape.org/) -->

<svg
   width="199.60603mm"
   height="199.60602mm"
   viewBox="0 0 199.60603 199.60602"
   version="1.1"
   id="svg5"
   xml:space="preserve"
   xmlns="http://www.w3.org/2000/svg"
   xmlns:svg="http://www.w3.org/2000/svg"><defs
     id="defs2" /><path
     style="fill:#917c46;fill-opacity:1;stroke:none;stroke-width:0.390215"
     d="M 0,99.803008 V -3.9335937e-6 h 99.80301 99.80301 V 99.803008 199.60602 H 99.80301 0 Z"
     id="path15635" /><path
     style="fill:#000000;fill-opacity:1;stroke:none;stroke-width:0.0451301"
     d="M -53.970676,99.803008 V 94.865802 H -26.985337 0 v 4.937206 4.937212 h -26.985337 -26.985339 z"
     id="path15635-5-7" /><path
     style="fill:#000000;fill-opacity:1;stroke:none;stroke-width:0.0451301"
     d="m 199.60602,99.803008 v -4.9372 h 26.98534 26.98534 v 4.9372 4.937222 h -26.98534 -26.98534 z"
     id="path15635-5-7-5" /><path
     style="fill:#e1d6cc;fill-opacity:1;stroke-width:0.599001"
     d="m 0,94.8658 18.659357,-0.09591 26.024891,-2.20966 29.95318,-1.227589 17.922803,-2.45518 16.695209,0.245517 21.60558,1.22759 34.86353,3.191732 33.88147,1.323507 v 9.874423 l -19.64143,0.0959 -31.42629,-3.43725 -31.91732,-2.209658 -9.82071,-0.245517 -2.20966,4.419325 -1.47311,12.52141 0.98207,16.94073 0.73655,26.27041 0.24552,34.61801 -0.34141,5.89244 h -9.874422 l -0.341434,-28.7256 -0.736555,-26.02489 -1.227588,-22.34212 -0.24552,-10.55727 0.491038,-6.8745 -2.45518,-5.401393 -11.048304,0.982073 -23.81523,1.71863 -19.886946,0.49103 -16.940732,2.20966 L 0,104.74022 Z"
     id="path203" /><path
     style="fill:#ca4630;fill-opacity:1;stroke-width:0.599001"
     d="m 81.136764,57.329104 -8.020368,0.84987 0.553852,16.521977 8.708337,-0.652202 z"
     id="path204" /><path
     style="fill:#a64231;fill-opacity:1;stroke-width:0.599001"
     d="m 81.136764,57.329104 6.593085,0.229565 0.814103,16.531037 -6.165367,-0.04096 z"
     id="path205" /><path
     style="fill:#a64231;fill-opacity:1;stroke-width:0.599001"
     d="m 85.461269,74.069222 c -0.540565,1.805163 0.08615,6.256657 0.08615,6.256657 l -8.70532,0.565445 -1.029399,-6.350827 z"
     id="path206" /><path
     style="fill:#a64231;fill-opacity:1;stroke-width:0.599001"
     d="m 120.13628,79.859377 c 0,0 -1.73608,6.249863 -1.04165,6.336668 0.69443,0.0868 13.80179,2.343697 13.80179,2.343697 l 1.38886,-6.076256 z"
     id="path207" /><path
     style="fill:#a64231;fill-opacity:1;stroke-width:0.599001"
     d="m 107.28933,109.02541 1.99649,-7.72553 13.54137,1.38886 -1.30205,6.85749 -5.90265,-0.69443 -0.34722,2.77772 h -2.95132 l -1.04165,7.03109 -5.98945,-0.95483 z"
     id="path208" /><path
     style="fill:#a64231;fill-opacity:1;stroke-width:0.599001"
     d="m 81.880204,104.71336 6.813121,-1.16621 1.04345,12.88969 -7.304156,1.04345 z"
     id="path209" /><path
     style="fill:#a64231;fill-opacity:1;stroke-width:0.599001"
     d="m 69.542932,103.73129 c 0.859313,0 7.181397,-0.30689 7.181397,-0.30689 l -0.122759,6.50622 -7.304156,0.42966 z"
     id="path210" /><path
     style="fill:#a64231;fill-opacity:1;stroke-width:0.599001"
     d="m 57.696695,83.844346 11.293821,-0.368276 -0.14523,8.093953 -12.66817,0.519187 z"
     id="path211" /><path
     style="fill:#e1d6cc;fill-opacity:1;stroke-width:0.599001"
     d="m 88.519147,89.431033 c 0,0 3.839956,-3.669008 4.187171,-4.884258 0.347216,-1.215252 2.951324,-17.01352 2.951324,-17.01352 L 97.22011,45.485124 95.484036,25.173064 94.8658,-1.9335937e-6 h 9.87442 L 104.33801,14.930231 l 1.56247,20.138451 1.21525,15.103839 -1.38886,13.194157 -1.90968,12.499729 -0.17361,5.381826 0.52082,3.385344 2.68031,4.453948 -1.98588,3.445187 -15.711462,0.520822 z"
     id="path212" /></svg>
