<?xml version="1.0" encoding="UTF-8" standalone="no"?>
<!-- Created with Inkscape (http://www.inkscape.org/) -->

<svg
   width="199.60603mm"
   height="199.60602mm"
   viewBox="0 0 199.60603 199.60602"
   version="1.1"
   id="svg5"
   xml:space="preserve"
   xmlns="http://www.w3.org/2000/svg"
   xmlns:svg="http://www.w3.org/2000/svg"><defs
     id="defs2" /><path
     style="fill:#917c46;fill-opacity:1;stroke:none;stroke-width:0.390215"
     d="M 0,99.803008 V -1.9335937e-6 h 99.80301 99.80301 V 99.803008 199.60602 H 99.80301 0 Z"
     id="path15635" /><path
     style="fill:#000000;fill-opacity:1;stroke:none;stroke-width:0.0451301"
     d="M -53.970676,99.803008 V 94.865802 H -26.985337 0 v 4.937206 4.937212 h -26.985337 -26.985339 z"
     id="path15635-5-7" /><path
     style="fill:#000000;fill-opacity:1;stroke:none;stroke-width:0.0451301"
     d="m 199.60602,99.803008 v -4.9372 h 26.98534 26.98534 v 4.9372 4.937222 h -26.98534 -26.98534 z"
     id="path15635-5-7-5" /><ellipse
     style="fill:#59594d;fill-opacity:1;stroke-width:0.367543"
     id="path93-5-89-32"
     cx="133.11696"
     cy="56.910305"
     rx="11.370204"
     ry="11.416053" /><ellipse
     style="fill:#59594d;fill-opacity:1;stroke-width:0.230297"
     id="path93-5-89-32-6"
     cx="81.942665"
     cy="106.45655"
     rx="7.1244278"
     ry="7.1531563" /><path
     style="fill:#6d6d5e;fill-opacity:1;stroke-width:0.599001"
     d="M 0,199.60602 18.749593,190.62086 33.679823,179.50999 51.387771,153.12167 81.942664,99.303397 98.608969,78.470518 128.12222,48.957269 154.16332,30.902105 180.89885,18.749593 189.90806,12.521411 199.60603,0 H 0 Z"
     id="path125" /><path
     style="fill:#59594d;fill-opacity:1;stroke-width:0.599001"
     d="m 0,199.60602 18.749593,-8.98516 6.253701,-4.65392 1.267116,0.87215 1.657247,0.30689 -0.24552,-1.41172 -0.758838,-1.19616 6.756524,-5.02811 8.853974,-13.19416 3.99297,2.2569 4.253381,-7.37832 -3.496472,-1.95684 4.104095,-6.1159 30.554893,-53.818273 16.666305,-20.832879 29.513251,-29.513249 26.0411,-18.055164 26.73553,-12.152512 3.66916,-2.536538 0.82293,0.47495 1.08504,0.173608 0.0651,-0.846336 -0.39689,-0.891857 3.76387,-2.602009 L 199.60603,0 h -2.5183 l -6.68388,8.4633577 -2.03989,2.6041103 -7.59532,5.295024 -0.47742,-0.998243 -7.55192,3.558951 -0.1736,0.868037 -9.11439,3.906165 -9.5484,4.340184 -5.03462,3.211735 -4.34018,-5.555435 -12.06571,8.072741 3.64575,5.034614 -10.41644,7.291506 -20.22525,19.791238 -10.15603,8.940779 -9.374796,9.548402 -3.645755,-2.777718 -9.548405,12.673336 4.340185,1.562467 -13.02055,24.131419 -1.454057,-0.57961 -6.322084,11.60071 2.025523,1.22759 -7.426915,13.50349 -6.787311,11.83381 -1.822879,-1.21525 -4.166576,7.81233 1.562468,0.86804 -2.343701,3.90616 -5.224118,7.42326 -5.340014,4.54208 -8.961401,6.5676 L 0,195.92325 Z"
     id="path126" /><path
     style="fill:#59594d;fill-opacity:1;stroke-width:0.599001"
     d="m 22.219366,36.704918 19.764188,16.326937 22.83316,-2.332418 14.731071,-12.644171 3.191732,2.45518 8.593125,-7.611054 -1.841384,-2.823456 5.033116,-4.787597 L 86.913319,7.1200178 65.062231,3.3144909 40.510446,13.012446 l 4.910357,11.171062 11.662098,-4.54208 -3.560008,-8.102089 12.153132,-4.4193212 17.677286,3.5600092 5.646909,13.503481 -2.577936,2.700696 -2.577938,-1.595865 h -3.068974 l -7.242775,6.506222 2.700697,2.700697 -13.012446,12.153135 -19.51867,1.841384 -17.677286,-15.09935 z"
     id="path127" /><path
     style="fill:#59594d;fill-opacity:1;stroke-width:0.599001"
     d="m 22.219366,36.704918 3.805526,-3.314491 -0.184138,-5.769668 2.639316,0.859311 1.964145,-3.130352 -2.823456,-0.982071 4.787598,-4.357942 1.902762,1.964143 3.560011,-1.657246 -1.718625,-2.516558 5.695479,-1.744696 -1.337538,-3.042902 -6.690362,2.516558 -3.866907,2.148281 -5.769669,5.340014 -1.902763,3.43725 -0.184138,4.848977 z"
     id="path128" /><path
     style="fill:#59594d;fill-opacity:1;stroke-width:0.599001"
     d="m 13.135205,82.002962 -3.9282856,7.242779 2.5983796,1.464093 0.564224,-0.607624 4.123174,2.126689 -0.130205,0.824635 2.473904,1.302054 1.909681,-2.864519 -0.520822,-0.737833 1.605868,-3.124933 1.215251,-0.130204 2.083288,-3.385344 -3.515548,-1.605867 -1.128448,0.73783 -4.123174,-1.692672 0.303813,-0.694428 -3.124933,-1.649269 -1.258653,2.126689 z"
     id="path129" /><path
     style="fill:#8e8d78;fill-opacity:1;stroke-width:0.495582"
     d="m 13.4368,59.816101 c 5.07984,3.751555 17.830825,13.806028 17.830825,13.806028 L 41.413697,60.268684 20.347406,42.066931 l -8.969937,10.347587 4.556065,4.493779 z"
     id="path22" /><path
     style="fill:#8e8d78;fill-opacity:1;stroke-width:0.495582"
     d="m 34.626701,69.201185 c 0,0 6.809682,6.121115 7.065117,6.468151 0.255431,0.34703 5.089256,9.095032 5.089256,9.095032 L 63.30351,74.743221 c 0,0 -6.31826,-9.79555 -6.573691,-10.14258 -0.255435,-0.347036 -11.823215,-9.399759 -11.823215,-9.399759 l -3.492907,5.067802 z"
     id="path23" /><path
     style="fill:#8e8d78;fill-opacity:1;stroke-width:0.495582"
     d="m 55.04229,79.753792 9.493308,16.653631 -13.718893,7.575557 -9.097736,-16.129585 5.062105,-3.089027 z"
     id="path24" /><path
     style="fill:#694e44;fill-opacity:1;stroke-width:0.495582"
     d="m 28.921111,56.62285 c 2.221807,2.109935 9.099088,8.112084 9.099088,8.112084 l 2.914217,-3.835458 -9.618157,-7.867621 z"
     id="path65" /><path
     style="fill:#77594d;fill-opacity:1;stroke-width:0.495582"
     d="m 38.020199,64.734934 -5.247002,6.905682 -2.453755,-0.397056 -6.332923,-4.9694 -1.25543,-2.553705 6.190022,-7.097605 z"
     id="path66" /><path
     style="fill:#8a6759;fill-opacity:1;stroke-width:0.495582"
     d="m 28.921111,56.62285 -5.250522,6.020356 -3.826758,-2.90597 -2.662788,2.908683 -3.279612,-3.370952 3.584936,-4.133839 -4.670893,-4.385467 3.046961,-3.51494 z"
     id="path67" /><path
     style="fill:#77594c;fill-opacity:1;stroke-width:0.495582"
     d="M 28.921111,56.62285 31.316259,53.031855 19.518502,43.023142 15.862435,47.240721 Z"
     id="path68" /><path
     style="fill:#77594c;fill-opacity:1;stroke-width:0.495582"
     d="M 43.85811,56.722122 54.888054,65.73844 48.355165,70.483885 39.477292,62.81719 Z"
     id="path69" /><path
     style="fill:#876556;fill-opacity:1;stroke-width:0.495582"
     d="m 39.477302,62.817204 c -1.457103,1.91773 -4.080607,5.370568 -4.080607,5.370568 0,0 7.637179,6.717309 7.811567,6.525894 0.174378,-0.191428 5.146903,-4.22978 5.146903,-4.22978 z"
     id="path70" /><path
     style="fill:#74574a;fill-opacity:1;stroke-width:0.495582"
     d="m 48.355165,70.483886 5.562199,8.327835 7.618451,-2.996365 -6.647761,-10.076916 z"
     id="path71" /><path
     style="fill:#8f6b5b;fill-opacity:1;stroke-width:0.495582"
     d="m 48.355165,70.483886 -5.146903,4.22978 4.643738,7.679686 6.065364,-3.581631 z"
     id="path72" /><path
     style="fill:#8f6b5b;fill-opacity:1;stroke-width:0.495582"
     d="m 58.876255,88.718603 c 0,0 -11.612123,7.096812 -11.730249,6.679323 -0.11813,-0.417497 -4.227258,-8.276664 -4.227258,-8.276664 l 10.655114,-6.476841 z"
     id="path73" /><path
     style="fill:#674d41;fill-opacity:1;stroke-width:0.495582"
     d="m 58.876255,88.718603 4.396302,8.386269 -11.22162,6.196568 -4.904931,-7.903514 z"
     id="path74" /><path
     style="fill:#72574a;fill-opacity:1;stroke-width:0.599001"
     d="m 40.884527,113.79961 6.770688,4.25338 -6.770688,11.45808 -6.857489,-4.7742 z"
     id="path130" /><path
     style="fill:#5c463c;fill-opacity:1;stroke-width:0.599001"
     d="m 47.655215,118.05299 6.076257,3.64575 -6.944294,11.28448 -5.902651,-3.47215 z"
     id="path131" /><path
     style="fill:#624b40;fill-opacity:1;stroke-width:0.599001"
     d="m 98.028947,72.431539 -9.397003,-9.57897 6.8745,-6.506223 3.437252,2.823456 6.874504,-7.120017 -2.20967,-2.823456 6.38347,-5.769668 9.33834,8.860951 z"
     id="path132" /><path
     style="fill:#624b40;fill-opacity:1;stroke-width:0.599001"
     d="m 156.35541,26.922812 -8.00794,-13.468243 14.2358,-6.8574901 7.75097,14.1504961 z"
     id="path133" /><path
     style="fill:#6e5448;fill-opacity:1;stroke-width:0.599001"
     d="m 106.68171,13.454569 21.52731,-7.4651157 -1.47566,8.8539737 -14.0622,5.121417 z"
     id="path134" /><path
     style="fill:#5f483e;fill-opacity:1;stroke-width:0.599001"
     d="m 112.67116,19.964844 -1.21525,6.944294 21.00649,-7.55192 -5.72904,-4.513791 z"
     id="path135" /><path
     style="fill:#4f3c33;fill-opacity:1;stroke-width:0.599001"
     d="m 126.73336,14.843427 1.47566,-8.8539737 4.25338,13.3677647 z"
     id="path136" /><path
     style="fill:#806153;fill-opacity:1;stroke-width:0.599001"
     d="m 106.68171,13.454569 4.7742,13.454569 1.21525,-6.944294 z"
     id="path137" /><path
     style="fill:#744e3e;fill-opacity:1;stroke-width:0.599001"
     d="m 55.172437,10.939504 3.723852,7.85349 8.940779,-3.08153 -2.161043,-8.5914464 z"
     id="path138" /><path
     style="fill:#7f5441;fill-opacity:1;stroke-width:0.599001"
     d="M 67.837068,15.711464 77.862892,17.447538 79.710504,9.946406 65.676025,7.1200176 Z"
     id="path139" /><path
     style="fill:#865844;fill-opacity:1;stroke-width:0.599001"
     d="m 85.657197,16.18932 -3.757935,1.56203 2.951326,6.597079 -1.006242,0.93991 2.577936,1.595865 2.577936,-2.700696 z"
     id="path140" /><path
     style="fill:#865844;fill-opacity:1;stroke-width:0.599001"
     d="m 63.220848,46.648393 -3.314491,-7.242778 9.636575,-8.470365 5.374394,4.789072 z"
     id="path141" /><path
     style="fill:#764e3c;fill-opacity:1;stroke-width:0.599001"
     d="m 59.906357,39.405615 -12.82831,1.166209 0.366242,7.564922 15.776559,-1.488353 z"
     id="path142" /><path
     style="fill:#835743;fill-opacity:1;stroke-width:0.599001"
     d="m 36.520781,32.838014 3.007593,5.46277 3.682767,-1.657244 -3.191732,-5.646912 z"
     id="path143" /><path
     style="fill:#684535;fill-opacity:1;stroke-width:0.599001"
     d="m 40.019409,30.996628 3.928287,-1.595866 2.577936,4.971737 -3.314491,2.271041 z"
     id="path144" /><path
     style="fill:#73574a;fill-opacity:1;stroke-width:0.599001"
     d="M 11.892103,10.242833 11.458084,21.093292 4.7742019,21.440506 5.6422385,9.722011 Z"
     id="path145" /><path
     style="fill:#5d463c;fill-opacity:1;stroke-width:0.599001"
     d="m 11.892103,10.242833 6.510275,0.607626 -0.868037,10.850458 -6.076257,-0.607625 z"
     id="path146" /><path
     style="fill:#745446;fill-opacity:1;stroke-width:0.599001"
     d="M 65.276359,60.762567 80.20659,46.353161 84.720381,51.908593 69.09572,66.144396 Z"
     id="path147" /><path
     style="fill:#5c4338;fill-opacity:1;stroke-width:0.599001"
     d="m 69.09572,66.144396 3.819363,4.079772 16.31909,-14.322605 -4.513794,-3.99297 z"
     id="path148" /><path
     style="fill:#745547;fill-opacity:1;stroke-width:0.599001"
     d="M 85.067597,44.617086 87.845314,49.21768 98.174949,42.967817 95.31043,38.714436 Z"
     id="path149" /><path
     style="fill:#5e453a;fill-opacity:1;stroke-width:0.599001"
     d="m 87.845314,49.21768 2.690913,3.645754 9.722013,-5.989452 -2.083291,-3.906165 z"
     id="path150" /><path
     style="fill:#e1d6cc;fill-opacity:1;stroke-width:0.599001"
     d="m 94.865808,199.60602 0.09741,-12.80452 -1.215252,-14.75663 -0.173606,-22.74256 c 0,0 2.777717,-9.5484 3.124932,-11.28448 0.347213,-1.73607 6.249858,-15.79826 6.249858,-15.79826 l 15.27745,-16.66631 21.3537,-10.069224 25.17306,-2.430502 34.85266,1.812274 v 9.874422 l -20.61686,-0.055 -17.18712,-0.86804 -17.53434,1.38886 -9.72201,3.99297 -9.02758,5.72904 -7.46512,7.63872 -5.72904,6.77069 -4.93292,11.88594 -2.89175,15.33339 0.36828,14.47621 0.46997,12.44888 -0.5973,16.12413 z"
     id="path151" /><path
     style="fill:#765646;fill-opacity:1;stroke-width:0.599001"
     d="m 14.66982,128.03541 6.423472,29.25284 -9.635208,10.41644 -9.6352069,-41.40535 z"
     id="path152" /><path
     style="fill:#604639;fill-opacity:1;stroke-width:0.599001"
     d="m 14.66982,128.03541 7.551919,-5.64224 9.287992,35.06869 -10.416439,-0.17361 z"
     id="path153" /><path
     style="fill:#664a3d;fill-opacity:1;stroke-width:0.599001"
     d="M 11.458084,167.70469 31.509731,157.46186 21.093292,157.28825 Z"
     id="path154" /><path
     style="fill:#694c3f;fill-opacity:1;stroke-width:0.599001"
     d="m 1.8228771,126.29934 20.3988619,-3.90617 -7.551919,5.64224 z"
     id="path155" /></svg>
