<?xml version="1.0" encoding="UTF-8" standalone="no"?>
<!-- Created with Inkscape (http://www.inkscape.org/) -->

<svg
   width="199.60603mm"
   height="199.60602mm"
   viewBox="0 0 199.60603 199.60602"
   version="1.1"
   id="svg5"
   xml:space="preserve"
   xmlns="http://www.w3.org/2000/svg"
   xmlns:svg="http://www.w3.org/2000/svg"><defs
     id="defs2" /><path
     style="fill:#917c46;fill-opacity:1;stroke:none;stroke-width:0.390215"
     d="M 0,99.803008 V -1.9335937e-6 h 99.80301 99.80301 V 99.803008 199.60602 H 99.80301 0 Z"
     id="path15635" /><path
     style="fill:#000000;fill-opacity:1;stroke:none;stroke-width:0.0451301"
     d="M -53.970676,99.803008 V 94.865802 H -26.985337 0 v 4.937206 4.937212 h -26.985337 -26.985339 z"
     id="path15635-5-7" /><path
     style="fill:#000000;fill-opacity:1;stroke:none;stroke-width:0.0451301"
     d="m 199.60602,99.803008 v -4.9372 h 26.98534 26.98534 v 4.9372 4.937222 h -26.98534 -26.98534 z"
     id="path15635-5-7-5" /><ellipse
     style="fill:#59594d;fill-opacity:1;stroke-width:0.230297"
     id="path93-5-89-32-6-82"
     cx="44.790691"
     cy="147.6015"
     rx="7.1244278"
     ry="7.1531563" /><ellipse
     style="fill:#59594d;fill-opacity:1;stroke-width:0.230297"
     id="path93-5-89-32-6-82-0"
     cx="178.73364"
     cy="189.4257"
     rx="7.1244278"
     ry="7.1531563" /><path
     style="fill:#6d6d5e;fill-opacity:1;stroke-width:0.599001"
     d="m 0,199.60602 12.846943,-7.24909 11.805299,-10.93726 10.41644,-23.78421 9.722011,-17.18712 14.062194,-9.3748 16.145483,-6.07626 16.666305,-2.4305 31.249325,0.69443 24.30502,7.29151 14.58302,15.97187 11.11087,25.69389 7.98594,14.84343 18.70717,12.54411 V -1.9335937e-6 L 0,0 Z"
     id="path156" /><path
     style="fill:#59594d;fill-opacity:1;stroke-width:0.599001"
     d="m 0,199.60602 12.846943,-7.24909 5.902649,-5.46863 0.953216,0.62596 h 1.10483 l 0.122759,-0.73655 -0.716334,-1.2462 4.438179,-4.11184 10.41644,-23.78421 9.722011,-17.18712 14.062194,-9.3748 16.145483,-6.07626 16.666305,-2.4305 31.249325,0.69443 24.30502,7.29151 5.35639,5.86652 -1.06021,1.10145 -0.0307,1.62655 1.65724,0.0921 1.36877,-0.70066 7.29151,7.98594 5.55543,12.84694 5.55544,12.84695 7.98594,14.84343 18.70718,12.54411 1e-5,-3.3826 -15.1751,-11.1164 -8.9976,-15.63635 -10.5184,-24.70688 -15.81622,-16.22557 -25.03941,-8.34285 -31.992287,-0.70562 -20.485555,3.00629 -13.581939,4.71883 -15.810658,11.27741 -10.482163,19.15985 -9.649239,21.87051 -10.662985,9.86317 L 0,195.77059 Z"
     id="path157" /><path
     style="fill:#59594d;fill-opacity:1;stroke-width:0.599001"
     d="m 119.60744,123.18773 -0.3392,6.23654 8.76717,0.86804 1.04165,-11.19768 -9.20297,-0.57089 z"
     id="path158" /><path
     style="fill:#59594d;fill-opacity:1;stroke-width:0.599001"
     d="m 81.942664,118.92103 1.562465,11.54489 9.808816,-1.30206 -1.64927,-12.41293 z"
     id="path159" /><path
     style="fill:#59594d;fill-opacity:1;stroke-width:0.599001"
     d="m 163.97213,140.27473 2.17009,2.51731 -1.2273,1.97178 1.0292,2.41751 2.02098,-1.43797 c 0,0 1.82288,4.86101 2.17009,4.86101 0.34722,0 3.47215,-1.21526 3.47215,-1.21526 l -3.38534,-7.46511 -4.25339,-4.6006 z"
     id="path162" /><path
     style="fill:#59594d;fill-opacity:1;stroke-width:0.599001"
     d="m 100.36101,119.67271 c 0,0 -0.623593,-5.8731 0.50485,-5.52588 1.12845,0.34721 13.28097,1.21525 13.28097,1.21525 l 0.52791,4.62633 z"
     id="path163" /><path
     style="fill:#59594d;fill-opacity:1;stroke-width:0.599001"
     d="m 112.23715,104.33801 -0.60763,6.68388 8.85397,0.60763 1.20599,7.00683 2.78609,0.17283 -1.38797,-7.26647 1.90968,0.17361 0.78124,-7.63872 -2.1701,-0.34722 0.69443,-4.426983 -10.15602,-0.173606 0.0868,4.687399 z"
     id="path164" /><path
     style="fill:#59594d;fill-opacity:1;stroke-width:0.599001"
     d="m 86.803668,117.83598 -0.347213,-4.90441 -3.211737,0.17361 -0.347213,-11.8921 12.499726,-0.78124 c 0,0 0.781236,6.33667 0.43402,6.33667 -0.347215,0 -3.732559,0.78123 -3.732559,0.78123 l -0.434017,4.07978 -2.777717,0.60763 0.058,5.12086 z"
     id="path165" /><path
     style="fill:#9c9a88;fill-opacity:1;stroke-width:0.499724"
     d="M 22.678626,82.810462 25.557239,70.61574 41.528982,75.884282 37.261236,90.229146 Z"
     id="path15" /><path
     style="fill:#9c9a88;fill-opacity:1;stroke-width:0.499724"
     d="m 29.83731,72.027594 1.590719,-10.748004 9.664872,3.810667 -2.610993,9.788907 z"
     id="path16" /><path
     style="fill:#9c9a88;fill-opacity:1;stroke-width:0.499724"
     d="M 35.391607,94.274933 C 33.835187,93.811665 21.27691,86.320225 21.27691,86.320225 l -9.85482,19.951815 13.588279,8.0541 z"
     id="path18" /><path
     style="fill:#6e4f46;fill-opacity:1;stroke-width:0.499724"
     d="m 19.828271,108.35581 7.829007,-16.172512 7.734329,2.091635 -10.381238,20.051207 z"
     id="path42" /><path
     style="fill:#563e37;fill-opacity:1;stroke-width:0.499724"
     d="m 19.828271,108.35581 -8.406181,-2.08377 9.85482,-19.951815 6.380368,5.863073 z"
     id="path43" /><path
     style="fill:#75554b;fill-opacity:1;stroke-width:0.499724"
     d="m 37.967444,82.593658 c 0,0 -12.70144,-5.188615 -12.783624,-5.046293 -0.08219,0.142312 -2.505194,5.263097 -2.505194,5.263097 l 6.383377,2.154913 5.236034,2.73784 2.963199,2.525931 z"
     id="path44" /><path
     style="fill:#62473f;fill-opacity:1;stroke-width:0.499724"
     d="M 37.967444,82.593658 41.528982,75.884282 35.686158,74.867105 29.896542,73.374956 25.557239,70.61574 25.18382,77.547365 Z"
     id="path45" /><path
     style="fill:#553e37;fill-opacity:1;stroke-width:0.499724"
     d="m 32.228002,77.154286 -2.33146,-3.77933 2.409827,-11.74905 3.877496,2.489236 z"
     id="path46" /><path
     style="fill:#72534a;fill-opacity:1;stroke-width:0.499724"
     d="m 32.228002,77.154286 3.955863,-13.039144 3.991238,0.613243 -2.735685,10.443948 z"
     id="path47" /><path
     style="fill:#92907c;fill-opacity:1;stroke-width:0.246001"
     d="m 50.031967,110.86581 7.111033,9.36765 8.571762,-7.72271 -4.145292,-5.88681 4.657759,-3.90225 -6.745299,-8.259628 -6.956158,5.945708 -2.362224,-2.986742 -6.142283,5.575982 z"
     id="path19" /><path
     style="fill:#78594e;fill-opacity:1;stroke-width:0.246001"
     d="m 53.342448,106.55127 7.181504,-0.0926 5.22886,-4.31791 c 0,0 -2.898232,-3.548898 -2.898232,-3.548898 z"
     id="path59" /><path
     style="fill:#78594e;fill-opacity:1;stroke-width:0.246001"
     d="m 53.342448,106.55127 6.702604,8.79743 -3.466589,4.14108 -12.126379,-15.92877 3.271265,-2.60804 z"
     id="path60" /><path
     style="fill:#644a41;fill-opacity:1;stroke-width:0.246001"
     d="m 53.342448,106.55127 -0.816676,-6.1435 -1.719699,-2.174348 -3.082724,2.719548 z"
     id="path61" /><path
     style="fill:#513c35;fill-opacity:1;stroke-width:0.246001"
     d="m 53.342448,106.55127 -0.816676,-6.1435 6.956158,-5.945708 3.37265,4.129812 z"
     id="path62" /><path
     style="fill:#5f473e;fill-opacity:1;stroke-width:0.246001"
     d="m 60.045052,115.3487 5.167884,-3.55061 -4.688984,-5.33941 -7.181504,0.0926 z"
     id="path63" /><path
     style="fill:#665041;fill-opacity:1;stroke-width:0.599001"
     d="m 157.98537,52.785693 -4.30632,6.702941 -17.87243,-11.360767 4.42073,-7.195982 z"
     id="path167" /><path
     style="fill:#4f3e32;fill-opacity:1;stroke-width:0.599001"
     d="m 153.67905,59.488634 -4.07124,6.085078 -18.24898,-11.845484 4.44779,-5.600361 z"
     id="path168" /><path
     style="fill:#665041;fill-opacity:1;stroke-width:0.381044"
     d="m 37.431783,120.02649 0.944268,4.86635 -13.17748,4.39404 -1.106782,-5.12269 z"
     id="path167-7" /><path
     style="fill:#4f3e32;fill-opacity:1;stroke-width:0.381044"
     d="m 38.376051,124.89284 0.782774,4.49909 -13.562169,4.38763 -0.398085,-4.49268 z"
     id="path168-9" /><path
     style="fill:#624d3e;fill-opacity:1;stroke-width:0.599001"
     d="m 157.22821,73.302215 6.31811,10.574448 -4.73697,3.026944 -6.69465,-11.059164 z"
     id="path169" /><path
     style="fill:#544235;fill-opacity:1;stroke-width:0.599001"
     d="m 152.1147,75.844443 -5.35276,2.914606 5.83131,10.828254 6.2161,-2.683696 z"
     id="path170" /><path
     style="fill:#665040;fill-opacity:1;stroke-width:0.599001"
     d="m 122.08456,49.833831 4.89512,6.301386 -14.56456,9.94628 -4.52273,-6.062153 z"
     id="path171" /><path
     style="fill:#524134;fill-opacity:1;stroke-width:0.599001"
     d="m 126.97968,56.135217 3.78005,5.706413 -13.22898,9.064203 -5.11563,-4.824336 z"
     id="path172" /><path
     style="fill:#584638;fill-opacity:1;stroke-width:0.599001"
     d="m 121.03815,63.885379 5.53203,0.826842 2.34833,3.119911 -3.0899,2.092569 z"
     id="path173" /><path
     style="fill:#4c3d31;fill-opacity:1;stroke-width:0.599001"
     d="m 121.03815,63.885379 0.003,4.615171 2.30211,3.332835 2.4853,-1.908684 z"
     id="path174" /><path
     style="fill:#5d4a3c;fill-opacity:1;stroke-width:0.599001"
     d="m 10.590048,148.86829 6.249864,9.4616 -4.947809,3.73256 -5.815846,-9.98242 z"
     id="path175" /><path
     style="fill:#4d3d31;fill-opacity:1;stroke-width:0.599001"
     d="m 10.590048,148.86829 4.51379,-2.69091 6.510276,8.41996 -4.774202,3.73255 z"
     id="path176" /><path
     style="fill:#4d3d31;fill-opacity:1;stroke-width:0.599001"
     d="m 112.32055,80.139121 -5.38844,-5.464884 -9.699961,11.62419 6.513781,5.272166 z"
     id="path177" /><path
     style="fill:#614d3e;fill-opacity:1;stroke-width:0.599001"
     d="m 106.93211,74.674237 -5.88417,-3.980596 -4.438091,4.502869 -3.15539,-1.769645 -4.59402,5.547302 8.37171,7.32426 z"
     id="path178" /><path
     style="fill:#e1d6cc;fill-opacity:1;stroke-width:0.599001"
     d="m 94.865808,199.60602 -0.09592,-18.16833 1.718625,-14.73107 3.191732,-19.51867 2.086905,-16.57245 0.71911,-7.80824 8.26987,0.18377 -0.51862,8.7293 -0.85931,11.6621 -3.31449,21.11453 -1.84138,16.94073 -0.49104,11.29382 1.00894,6.87451 z"
     id="path180" /><path
     style="fill:#804f46;fill-opacity:1;stroke-width:0.599001"
     d="m 83.157916,67.533255 c 0.694428,0 12.846942,-9.374796 12.846942,-9.374796 L 85.762025,44.617086 71.873437,53.123845 Z"
     id="path181" /><path
     style="fill:#754840;fill-opacity:1;stroke-width:0.599001"
     d="m 78.817731,48.870465 -10.763655,6.683882 -5.208219,-9.548402 18.9232,-7.465115 3.992968,6.076256 z"
     id="path182" /><path
     style="fill:#7d4d44;fill-opacity:1;stroke-width:0.599001"
     d="m 66.864107,44.420763 c 0.268756,-0.106024 -4.191857,-12.129799 -3.671035,-12.129799 0.520822,0 15.798268,-2.864519 15.798268,-2.864519 l 2.777715,9.114385 z"
     id="path183" /><path
     style="fill:#754840;fill-opacity:1;stroke-width:0.599001"
     d="m 66.295682,31.769256 -2.147771,-14.58213 13.280961,-0.520821 3.472148,11.718494 -1.90968,1.041646 z"
     id="path184" /><path
     style="fill:#89544b;fill-opacity:1;stroke-width:0.599001"
     d="m 60.936176,12.846943 c 3.992967,0.260411 11.718496,0.173607 11.718496,0.173607 L 72.394259,2.8645212 59.894533,3.2117358 Z"
     id="path185" /><path
     style="fill:#6a413a;fill-opacity:1;stroke-width:0.599001"
     d="m 72.394259,2.8645212 5.555435,0.8680365 0.260411,8.8539743 -5.555433,0.434018 z"
     id="path186" /><path
     style="fill:#845148;fill-opacity:1;stroke-width:0.599001"
     d="m 145.10105,35.968365 10.06623,4.419323 5.64691,-16.449697 -10.18899,-3.191732 z"
     id="path187" /><path
     style="fill:#673f38;fill-opacity:1;stroke-width:0.599001"
     d="m 155.16728,40.387688 7.85001,3.882183 6.51028,-17.881555 -8.71338,-2.450325 z"
     id="path188" /><path
     style="fill:#814f46;fill-opacity:1;stroke-width:0.599001"
     d="m 152.86126,15.017035 8.85398,1.996484 1.90968,-13.2809613 -8.76717,-0.781233 z"
     id="path189" /><path
     style="fill:#653e37;fill-opacity:1;stroke-width:0.599001"
     d="m 163.62492,3.7325577 7.72552,2.1700919 -1.64927,11.8921024 -7.98593,-0.781233 z"
     id="path190" /><path
     style="fill:#653e37;fill-opacity:1;stroke-width:0.599001"
     d="m 28.72559,54.013927 c 4.787596,0.736553 11.17106,0.122759 11.17106,0.122759 l 1.350349,-11.41658 -11.171063,-1.473107 z"
     id="path191" /><path
     style="fill:#653e37;fill-opacity:1;stroke-width:0.599001"
     d="M 35.845607,33.635947 46.771152,32.776633 44.438731,17.800044 34.126982,19.518669 Z"
     id="path192" /><path
     style="fill:#653e37;fill-opacity:1;stroke-width:0.599001"
     d="M 32.776633,12.521411 41.983554,10.31175 40.264929,3.6827679 30.812491,6.3834642 Z"
     id="path193" /><path
     style="fill:#814f46;fill-opacity:1;stroke-width:0.599001"
     d="m 30.812491,6.3834642 -5.155875,2.7006965 1.595867,5.1558743 5.52415,-1.718624 z"
     id="path194" /><path
     style="fill:#814f46;fill-opacity:1;stroke-width:0.599001"
     d="M 34.126982,19.518669 28.602829,20.6235 c 0,0 0.24552,12.766927 0.982072,13.012447 0.736555,0.245517 6.260706,0 6.260706,0 z"
     id="path195" /><path
     style="fill:#814f46;fill-opacity:1;stroke-width:0.599001"
     d="m 30.075936,41.246999 -6.137945,-0.368277 -1.473108,11.293822 6.260707,1.841383 z"
     id="path196" /><path
     style="fill:#814f46;fill-opacity:1;stroke-width:0.599001"
     d="m 6.5062231,15.590384 6.0151879,-0.736554 2.700696,16.695213 -5.6469106,1.22759 z"
     id="path197" /><path
     style="fill:#814f46;fill-opacity:1;stroke-width:0.599001"
     d="m 10.802785,39.89665 5.524152,0.982072 -3.928285,17.922804 -6.6289825,-2.20966 z"
     id="path198" /><path
     style="fill:#814f46;fill-opacity:1;stroke-width:0.599001"
     d="m 163.88533,104.1644 8.15954,-8.680364 7.81233,5.729044 -8.50676,11.8053 z"
     id="path199" /><path
     style="fill:#845147;fill-opacity:1;stroke-width:0.599001"
     d="m 176.6319,105.68901 6.17663,6.89535 -10.24283,9.37479 -3.90617,-5.72904 z"
     id="path200" /><path
     style="fill:#8e574c;fill-opacity:1;stroke-width:0.599001"
     d="m 177.68711,117.27175 5.38183,11.28449 c 0,0 7.63872,-1.30206 7.46511,-1.73608 -0.1736,-0.43402 -5.90265,-15.36425 -5.90265,-15.36425 l -1.82287,1.12845 z"
     id="path201" /><path
     style="fill:#71453d;fill-opacity:1;stroke-width:0.599001"
     d="m 184.6314,111.45591 4.6874,-0.69443 4.6874,13.36777 -3.47215,2.69091 z"
     id="path202" /></svg>
