<?xml version="1.0" encoding="UTF-8" standalone="no"?>
<!-- Created with Inkscape (http://www.inkscape.org/) -->

<svg
   width="199.60603mm"
   height="199.60602mm"
   viewBox="0 0 199.60603 199.60602"
   version="1.1"
   id="svg5"
   xml:space="preserve"
   xmlns="http://www.w3.org/2000/svg"
   xmlns:svg="http://www.w3.org/2000/svg"><defs
     id="defs2" /><path
     style="fill:#917c46;fill-opacity:1;stroke:none;stroke-width:0.390215"
     d="M 0,99.803008 V -1.9335937e-6 h 99.80301 99.80301 V 99.803008 199.60602 H 99.80301 0 Z"
     id="path15635" /><path
     style="fill:#000000;fill-opacity:1;stroke:none;stroke-width:0.0451301"
     d="M -53.970676,99.803008 V 94.865802 H -26.985337 0 v 4.937206 4.937212 h -26.985337 -26.985339 z"
     id="path15635-5-7" /><path
     style="fill:#000000;fill-opacity:1;stroke:none;stroke-width:0.0451301"
     d="m 199.60602,99.803008 v -4.9372 h 26.98534 26.98534 v 4.9372 4.937222 h -26.98534 -26.98534 z"
     id="path15635-5-7-5" /><path
     style="fill:#6d6d5e;fill-opacity:1;stroke-width:0.599001"
     d="m 199.60602,-1.9335937e-6 -25,39.9999999335937 -10,60 10,60.000002 25,39.60602 z"
     id="path1" /><g
     id="g87"
     transform="matrix(0.40424899,0.59103601,-0.62443994,0.38262401,13.533578,-37.248196)"><path
       style="fill:#b8b7aa;fill-opacity:1;stroke-width:0.599001"
       d="m 269.27853,-89.736973 -3.83291,2.67289 6.9443,7.55192 9.80881,3.81936 8.68037,-13.54137 -10.29202,-6.91503 z"
       id="path13" /><path
       style="fill:#b8b7aa;fill-opacity:1;stroke-width:0.599001"
       d="m 289.66385,-72.394263 8.85397,-13.71498 23.26339,11.97891 5.20822,-7.55192 14.94321,9.15373 -16.44969,25.77937 -14.73107,-7.36554 2.94621,-4.66483 z"
       id="path14" /><path
       style="fill:#77584e;fill-opacity:1;stroke-width:0.599001"
       d="m 260.87523,-117.7349 14.05758,24.791807 -5.65428,3.20612 -14.05757,-24.791817 z"
       id="path52" /><path
       style="fill:#574039;fill-opacity:1;stroke-width:0.599001"
       d="m 260.87523,-117.7349 5.65428,-3.20612 14.05757,24.791817 -5.65427,3.20611 z"
       id="path53" /><path
       style="fill:#574039;fill-opacity:1;stroke-width:0.599001"
       d="m 271.26147,-88.800153 5.72904,5.03461 8.74258,-8.92615 -5.14601,-3.45751 -11.30855,6.41223 z"
       id="path54" /><path
       style="fill:#5f463e;fill-opacity:1;stroke-width:0.599001"
       d="m 276.99051,-83.765543 7.89909,3.87498 5.9895,-9.34361 -5.14601,-3.45752 z"
       id="path55" /><path
       style="fill:#584139;fill-opacity:1;stroke-width:0.599001"
       d="m 294.09083,-79.251753 4.42699,-6.85749 23.26339,11.97891 -3.81937,5.90265 z"
       id="path56" /><path
       style="fill:#664c42;fill-opacity:1;stroke-width:0.599001"
       d="m 316.65979,-62.759053 9.80069,-16.97529 13.44586,7.76297 -14.56618,23.18771 -13.02055,-5.81585 4.38358,-6.94429 z"
       id="path57" /><path
       style="fill:#78594e;fill-opacity:1;stroke-width:0.599001"
       d="m 317.96184,-68.227683 -4.26375,7.54539 -23.24978,-12.92711 3.64252,-5.64235 z"
       id="path58" /></g><path
     style="fill:#59594d;fill-opacity:1;stroke-width:0.599001"
     d="m 199.60602,199.60602 -25,-39.60602 -3.78405,-22.70425 -3.37769,-2.48965 -1.12845,-6.07626 2.43224,-3.87752 -3.16247,-18.97481 -2.74192,1.41182 -3.55895,-0.52082 -2.4305,-2.17009 -0.95484,-3.99297 0.60763,-3.038125 2.5173,-2.517306 2.17009,-0.260411 4.14896,0.786294 2.33905,-14.034331 -2.32143,-3.071053 -0.34721,-5.208222 2.5173,-4.166576 2.52679,-1.806829 2.61115,-15.666889 1.44047,-8.642829 -4.14791,-1.921037 2.86453,-5.989454 3.74496,1.787231 10.53495,-16.855915 -0.47813,-4.635749 2.51731,-3.992968 3.77227,-0.669607 L 199.60603,0 v 6.2498641 l -11.76289,19.7044329 -8.24635,12.586533 -1.90968,3.732556 -2.69091,18.836397 -1.30206,6.163061 2.51731,0.868037 -2.4305,14.148998 -2.3437,0.434017 -2.69092,13.367766 -0.0868,2.864522 h 3.29854 l 0.34721,4.600596 1.12845,8.68037 -3.21173,1.04164 4.07977,23.95781 3.55895,20.65928 7.72553,12.41292 2.69091,4.34018 2.17009,-1.30205 5.72904,9.5484 -1.73607,1.56247 5.1658,7.81233 z"
     id="path87" /><path
     style="fill:#574039;fill-opacity:1;stroke-width:0.599001"
     d="m 174.9962,61.109783 7.55192,1.649269 2.5173,-17.100322 -7.37831,-3.385344 z"
     id="path88" /><path
     style="fill:#624840;fill-opacity:1;stroke-width:0.599001"
     d="M 177.68711,42.273386 C 179.59679,38.54083 185.715,29.202501 185.715,29.202501 l 6.0343,4.650931 -6.68388,11.805298 z"
     id="path89" /><path
     style="fill:#624840;fill-opacity:1;stroke-width:0.599001"
     d="m 183.60707,167.12878 8.83667,-5.84756 -3.12494,-5.12142 2.86452,-2.25689 -2.3437,-3.90617 -11.9789,7.89914 z"
     id="path90" /><path
     style="fill:#6d5047;fill-opacity:1;stroke-width:0.599001"
     d="m 177.86072,157.89588 -1.33706,-7.76145 12.70834,-2.30778 0.60762,2.17009 z"
     id="path91" /><path
     style="fill:#e1d6cc;fill-opacity:1;stroke-width:0.599001"
     d="M 104.74022,-1.9335937e-6 105.08164,18.413839 l -0.49103,15.713143 -3.19174,24.797303 -3.928282,26.761444 v 22.587641 l 1.718625,30.1987 3.928287,19.39591 3.92828,19.64143 v 10.55726 l -2.30555,11.53935 H 94.865808 L 96.734033,186.83909 97.225068,174.07216 92.805749,153.69418 87.895392,127.42377 87.158837,95.997481 89.859534,68.008446 94.524374,38.546304 95.015409,13.503482 94.8658,-1.9335937e-6 Z"
     id="path92" /></svg>
