<?xml version="1.0" encoding="UTF-8" standalone="no"?>
<!-- Created with Inkscape (http://www.inkscape.org/) -->

<svg
   width="199.60603mm"
   height="199.60602mm"
   viewBox="0 0 199.60603 199.60602"
   version="1.1"
   id="svg5"
   xml:space="preserve"
   xmlns="http://www.w3.org/2000/svg"
   xmlns:svg="http://www.w3.org/2000/svg"><defs
     id="defs2" /><path
     style="fill:#917c46;fill-opacity:1;stroke:none;stroke-width:0.390215"
     d="M 0,99.803008 V -1.9335937e-6 h 99.80301 99.80301 V 99.803008 199.60602 H 99.80301 0 Z"
     id="path15635" /><path
     style="fill:#000000;fill-opacity:1;stroke:none;stroke-width:0.0451301"
     d="M -53.970676,99.803008 V 94.865802 H -26.985337 0 v 4.937206 4.937212 h -26.985337 -26.985339 z"
     id="path15635-5-7" /><path
     style="fill:#000000;fill-opacity:1;stroke:none;stroke-width:0.0451301"
     d="m 199.60602,99.803008 v -4.9372 h 26.98534 26.98534 v 4.9372 4.937222 h -26.98534 -26.98534 z"
     id="path15635-5-7-5" /><path
     style="fill:#6d6d5e;fill-opacity:1;stroke-width:0.599001"
     d="m -2e-6,1e-5 40,25.000001 60.000002,10 60,-10 L 199.60602,1e-5 Z"
     id="path1" /><g
     id="g93"
     transform="matrix(0.35105644,0.73612823,-0.72841613,0.35477325,91.661781,-93.254976)"><path
       style="fill:#b8b7aa;fill-opacity:1;stroke-width:0.599001"
       d="m 124.63258,7.237749 13.54137,-12.84695 17.62115,13.10736 -11.8053,10.20041 z"
       id="path17" /><path
       style="fill:#76564d;fill-opacity:1;stroke-width:0.599001"
       d="m 135.65665,3.418389 9.28799,5.98945 -0.95484,8.29073 c 0,0 -20.66099,-9.22391 -19.35722,-10.46082 1.30377,-1.23691 11.02407,-3.81936 11.02407,-3.81936 z"
       id="path48" /><path
       style="fill:#866258;fill-opacity:1;stroke-width:0.599001"
       d="m 135.65665,3.418389 -11.02407,3.81936 13.54137,-12.84695 z"
       id="path49" /><path
       style="fill:#533d36;fill-opacity:1;stroke-width:0.599001"
       d="m 135.65665,3.418389 2.5173,-9.02759 17.62115,13.10736 -10.85046,1.90968 z"
       id="path50" /><path
       style="fill:#634841;fill-opacity:1;stroke-width:0.599001"
       d="m 144.94464,9.407839 -0.95484,8.29073 11.8053,-10.20041 z"
       id="path51" /></g><path
     style="fill:#545346;fill-opacity:1;stroke-width:0.433497"
     d="m 87.56959,21.181526 -1.242675,3.218509 6.993877,1.908495 7.258738,-1.580241 -0.0508,-11.964803 -8.728812,-0.157482 z"
     id="path13" /><path
     style="fill:#77584e;fill-opacity:1;stroke-width:0.433497"
     d="M 71.890258,7.0955279 89.684735,16.89376 87.56959,21.181526 69.775116,11.383284 Z"
     id="path52" /><path
     style="fill:#574039;fill-opacity:1;stroke-width:0.433497"
     d="M 71.890258,7.0955279 74.005403,2.8077615 91.799878,12.606004 89.684735,16.89376 Z"
     id="path53" /><path
     style="fill:#574039;fill-opacity:1;stroke-width:0.433497"
     d="m 89.100029,20.964913 5.312432,0.827852 1.75182,-9.108023 -4.364403,-0.07874 -4.230288,8.575522 z"
     id="path54" /><path
     style="fill:#5f463e;fill-opacity:1;stroke-width:0.433497"
     d="m 94.412461,21.792765 6.151309,-0.773506 -0.0351,-8.255773 -4.364409,-0.07874 z"
     id="path55" /><path
     style="fill:#584139;fill-opacity:1;stroke-width:0.433497"
     d="m 106.24645,17.698569 -0.007,-6.071697 18.33292,-1.9240918 10e-4,5.2298268 z"
     id="path56" /><path
     style="fill:#78594e;fill-opacity:1;stroke-width:0.433497"
     d="m 124.57315,14.932607 0.36702,6.43526 -18.68768,1.326496 -0.006,-4.995794 z"
     id="path58" /><path
     style="fill:#59594d;fill-opacity:1;stroke-width:0.599001"
     d="M 199.60602,1e-5 160,25.000011 l -22.70425,3.78405 -2.48965,3.37769 -6.07626,1.12845 -3.87752,-2.43224 -18.97481,3.16247 1.41182,2.74192 -0.52082,3.55895 -2.17009,2.4305 -3.99297,0.95484 -3.038117,-0.60763 -2.517315,-2.5173 -0.260409,-2.17009 0.786289,-4.14896 -14.034329,-2.33905 -3.071051,2.32143 -5.208219,0.34721 -4.16658,-2.5173 -1.80683,-2.52679 -15.66689,-2.61115 -8.64283,-1.44047 -1.92103,4.14791 -5.98946,-2.86453 1.78723,-3.74496 L 19.999998,12.50001 15.364249,12.97814 11.371281,10.46083 10.701674,6.68856 0,0 h 6.249864 l 19.704434,11.76289 12.58653,8.24635 3.73256,1.90968 18.83639,2.690911 6.163061,1.30206 0.868039,-2.51731 14.149,2.4305 0.43402,2.3437 13.36776,2.69092 2.864526,0.0868 v -3.29854 l 4.600596,-0.34721 8.68037,-1.12845 1.04164,3.21173 23.95781,-4.07977 20.65928,-3.558951 12.41292,-7.72553 4.34018,-2.69091 -1.30205,-2.17009 9.5484,-5.72904 1.56247,1.73607 7.81233,-5.1658 z"
     id="path87" /><path
     style="fill:#574039;fill-opacity:1;stroke-width:0.599001"
     d="m 61.109778,24.609831 1.64927,-7.551921 -17.100319,-2.5173 -3.38534,7.37831 z"
     id="path88" /><path
     style="fill:#624840;fill-opacity:1;stroke-width:0.599001"
     d="m 42.273389,21.91892 c -3.73256,-1.90968 -13.07089,-8.02789 -13.07089,-8.02789 l 4.65093,-6.0343 11.8053,6.68388 z"
     id="path89" /><path
     style="fill:#624840;fill-opacity:1;stroke-width:0.599001"
     d="m 167.12878,15.99896 -5.84756,-8.83667 -5.12142,3.12494 -2.25689,-2.86452 -3.90617,2.3437 7.89914,11.9789 z"
     id="path90" /><path
     style="fill:#6d5047;fill-opacity:1;stroke-width:0.599001"
     d="m 157.89588,21.74531 -7.76145,1.337061 -2.30778,-12.708341 2.17009,-0.60762 z"
     id="path91" /><ellipse
     style="fill:#59594d;fill-opacity:1;stroke-width:0.262473"
     id="path93"
     cx="38.540829"
     cy="28.161777"
     rx="8.1197968"
     ry="8.1525383" /><ellipse
     style="fill:#59594d;fill-opacity:1;stroke-width:0.262473"
     id="path93-0"
     cx="162.51233"
     cy="27.024673"
     rx="8.1197968"
     ry="8.1525383" /><ellipse
     style="fill:#59594d;fill-opacity:1;stroke-width:0.262473"
     id="path93-5"
     cx="100.23621"
     cy="39.792133"
     rx="8.1197968"
     ry="8.1525383" /><ellipse
     style="fill:#59594d;fill-opacity:1;stroke-width:0.262473"
     id="path93-5-3"
     cx="125.2577"
     cy="36.025852"
     rx="8.1197968"
     ry="8.1525383" /><ellipse
     style="fill:#59594d;fill-opacity:1;stroke-width:0.129253"
     id="path93-5-8"
     cx="49.071648"
     cy="28.690945"
     rx="3.9985228"
     ry="4.0146461" /></svg>
