<?xml version="1.0" encoding="UTF-8" standalone="no"?>
<!-- Created with Inkscape (http://www.inkscape.org/) -->

<svg
   width="199.60603mm"
   height="199.60602mm"
   viewBox="0 0 199.60603 199.60602"
   version="1.1"
   id="svg5"
   xml:space="preserve"
   xmlns="http://www.w3.org/2000/svg"
   xmlns:svg="http://www.w3.org/2000/svg"><defs
     id="defs2" /><path
     style="fill:#917c46;fill-opacity:1;stroke:none;stroke-width:0.390215"
     d="M 0,99.803008 V -3.9335937e-6 h 99.80301 99.80301 V 99.803008 199.60602 H 99.80301 0 Z"
     id="path15635" /><path
     style="fill:#000000;fill-opacity:1;stroke:none;stroke-width:0.0451301"
     d="M -53.970676,99.803008 V 94.865802 H -26.985337 0 v 4.937206 4.937212 h -26.985337 -26.985339 z"
     id="path15635-5-7" /><path
     style="fill:#000000;fill-opacity:1;stroke:none;stroke-width:0.0451301"
     d="m 199.60602,99.803008 v -4.9372 h 26.98534 26.98534 v 4.9372 4.937222 h -26.98534 -26.98534 z"
     id="path15635-5-7-5" /><path
     style="fill:#e1d6cc;fill-opacity:1;stroke-width:0.599001"
     d="M 94.8658,-1.9335937e-6 95.484036,24.999457 93.747962,47.56841 l -4.166576,24.999458 -1.388859,28.818822 1.041646,29.86046 3.472145,23.6106 1.388859,22.91617 0.770631,21.8321 h 9.874422 l -0.92304,-38.15119 -3.12493,-26.73554 -0.889245,-34.916283 1.236455,-31.0545 4.51379,-24.652242 1.73607,-25.693887 L 104.74022,-1.9335937e-6 Z"
     id="path202" /></svg>
