<?xml version="1.0" encoding="UTF-8" standalone="no"?>
<!-- Created with Inkscape (http://www.inkscape.org/) -->

<svg
   width="199.60603mm"
   height="199.60602mm"
   viewBox="0 0 199.60603 199.60602"
   version="1.1"
   id="svg5"
   xml:space="preserve"
   xmlns="http://www.w3.org/2000/svg"
   xmlns:svg="http://www.w3.org/2000/svg"><defs
     id="defs2" /><path
     style="fill:#917c46;fill-opacity:1;stroke:none;stroke-width:0.390215"
     d="M 0,99.803008 V -1.9335937e-6 h 99.80301 99.80301 V 99.803008 199.60602 H 99.80301 0 Z"
     id="path15635" /><path
     style="fill:#000000;fill-opacity:1;stroke:none;stroke-width:0.0451301"
     d="M -53.970676,99.803008 V 94.865802 H -26.985337 0 v 4.937206 4.937212 h -26.985337 -26.985339 z"
     id="path15635-5-7" /><path
     style="fill:#000000;fill-opacity:1;stroke:none;stroke-width:0.0451301"
     d="m 199.60602,99.803008 v -4.9372 h 26.98534 26.98534 v 4.9372 4.937222 h -26.98534 -26.98534 z"
     id="path15635-5-7-5" /><ellipse
     style="fill:#59594d;fill-opacity:1;stroke-width:0.230297"
     id="path93-5-89-32-6-82"
     cx="44.790691"
     cy="147.6015"
     rx="7.1244278"
     ry="7.1531563" /><ellipse
     style="fill:#59594d;fill-opacity:1;stroke-width:0.230297"
     id="path93-5-89-32-6-82-0"
     cx="178.73364"
     cy="189.4257"
     rx="7.1244278"
     ry="7.1531563" /><path
     style="fill:#6d6d5e;fill-opacity:1;stroke-width:0.599001"
     d="m 0,199.60602 12.846943,-7.24909 11.805299,-10.93726 10.41644,-23.78421 9.722011,-17.18712 14.062194,-9.3748 16.145483,-6.07626 16.666305,-2.4305 31.249325,0.69443 24.30502,7.29151 14.58302,15.97187 11.11087,25.69389 7.98594,14.84343 18.70717,12.54411 V -1.9335937e-6 L 0,0 Z"
     id="path156" /><path
     style="fill:#59594d;fill-opacity:1;stroke-width:0.599001"
     d="m 0,199.60602 12.846943,-7.24909 5.902649,-5.46863 0.953216,0.62596 h 1.10483 l 0.122759,-0.73655 -0.716334,-1.2462 4.438179,-4.11184 10.41644,-23.78421 9.722011,-17.18712 14.062194,-9.3748 16.145483,-6.07626 16.666305,-2.4305 31.249325,0.69443 24.30502,7.29151 5.35639,5.86652 -1.06021,1.10145 -0.0307,1.62655 1.65724,0.0921 1.36877,-0.70066 7.29151,7.98594 5.55543,12.84694 5.55544,12.84695 7.98594,14.84343 18.70718,12.54411 1e-5,-3.3826 -15.1751,-11.1164 -8.9976,-15.63635 -10.5184,-24.70688 -15.81622,-16.22557 -25.03941,-8.34285 -31.992287,-0.70562 -20.485555,3.00629 -13.581939,4.71883 -15.810658,11.27741 -10.482163,19.15985 -9.649239,21.87051 -10.662985,9.86317 L 0,195.77059 Z"
     id="path157" /><path
     style="fill:#59594d;fill-opacity:1;stroke-width:0.599001"
     d="m 119.60744,123.18773 -0.3392,6.23654 8.76717,0.86804 1.04165,-11.19768 -9.20297,-0.57089 z"
     id="path158" /><path
     style="fill:#59594d;fill-opacity:1;stroke-width:0.599001"
     d="m 81.942664,118.92103 1.562465,11.54489 9.808816,-1.30206 -1.64927,-12.41293 z"
     id="path159" /><path
     style="fill:#59594d;fill-opacity:1;stroke-width:0.599001"
     d="m 45.355339,127.39904 13.50348,-16.69522 -5.27863,-4.1738 9.32968,-10.925545 5.03311,4.051046 -5.52415,6.137949 11.17106,8.10209 -7.61105,9.69795 -3.56001,-1.4731 -8.83864,10.18898 z"
     id="path161" /><path
     style="fill:#59594d;fill-opacity:1;stroke-width:0.599001"
     d="m 163.97213,140.27473 2.17009,2.51731 -1.2273,1.97178 1.0292,2.41751 2.02098,-1.43797 c 0,0 1.82288,4.86101 2.17009,4.86101 0.34722,0 3.47215,-1.21526 3.47215,-1.21526 l -3.38534,-7.46511 -4.25339,-4.6006 z"
     id="path162" /><path
     style="fill:#59594d;fill-opacity:1;stroke-width:0.599001"
     d="m 100.36101,119.67271 c 0,0 -0.623593,-5.8731 0.50485,-5.52588 1.12845,0.34721 13.28097,1.21525 13.28097,1.21525 l 0.52791,4.62633 z"
     id="path163" /><path
     style="fill:#59594d;fill-opacity:1;stroke-width:0.599001"
     d="m 112.23715,104.33801 -0.60763,6.68388 8.85397,0.60763 1.20599,7.00683 2.78609,0.17283 -1.38797,-7.26647 1.90968,0.17361 0.78124,-7.63872 -2.1701,-0.34722 0.69443,-4.426983 -10.15602,-0.173606 0.0868,4.687399 z"
     id="path164" /><path
     style="fill:#59594d;fill-opacity:1;stroke-width:0.599001"
     d="m 86.803668,117.83598 -0.347213,-4.90441 -3.211737,0.17361 -0.347213,-11.8921 12.499726,-0.78124 c 0,0 0.781236,6.33667 0.43402,6.33667 -0.347215,0 -3.732559,0.78123 -3.732559,0.78123 l -0.434017,4.07978 -2.777717,0.60763 0.058,5.12086 z"
     id="path165" /><path
     style="fill:#59594d;fill-opacity:1;stroke-width:0.599001"
     d="m 95.569555,101.91712 c 0.0074,0.067 18.620675,-0.44363 18.620675,-0.44363 l 0.0434,2.3437 -8.35406,0.0982 -0.24551,1.22759 -5.46278,0.36828 -0.306892,-1.22759 -4.038402,0.22415 z"
     id="path166" /><path
     style="fill:#664c41;fill-opacity:1;stroke-width:0.326993"
     d="m 16.373371,17.204059 c 1.806991,0.224349 5.150063,-1.487535 5.150063,-1.487535 l -1.247758,-6.1551651 4.098706,-1.16878 6.802459,31.4496381 -5.370769,1.430069 -2.872049,-17.245553 -4.626527,1.014947 z"
     id="path26" /><path
     style="fill:#513c34;fill-opacity:1;stroke-width:0.326993"
     d="m 49.011887,18.016359 0.813419,2.987256 -17.379182,3.406683 -5.139757,-2.46236 z"
     id="path28" /><path
     style="fill:#553f37;fill-opacity:1;stroke-width:0.326993"
     d="m 32.446124,24.410298 3.718657,14.847982 -4.98794,0.583937 -3.870474,-17.894279 z"
     id="path29" /><path
     style="fill:#9c9a88;fill-opacity:1;stroke-width:0.599001"
     d="m 127.68531,89.519916 -14.1078,-3.79907 6.4559,-19.642307 16.57677,5.558828 z"
     id="path15" /><path
     style="fill:#9c9a88;fill-opacity:1;stroke-width:0.599001"
     d="m 115.30755,80.457139 -12.45396,-2.178336 4.62991,-11.873749 11.31827,3.42082 z"
     id="path16" /><path
     style="fill:#9c9a88;fill-opacity:1;stroke-width:0.599001"
     d="m 141.27149,74.028504 c -0.57086,1.915104 -9.53783,17.293505 -9.53783,17.293505 l 22.97396,12.576651 9.64227,-16.640725 z"
     id="path18" /><path
     style="fill:#6e4f46;fill-opacity:1;stroke-width:0.599001"
     d="m 157.30479,93.547025 -18.62553,-9.997665 2.59223,-9.520856 23.0784,13.229431 z"
     id="path42" /><path
     style="fill:#563e37;fill-opacity:1;stroke-width:0.599001"
     d="m 157.30479,93.547025 -2.59717,10.351635 -22.97396,-12.576651 6.9456,-7.772649 z"
     id="path43" /><path
     style="fill:#75554b;fill-opacity:1;stroke-width:0.599001"
     d="m 127.75388,70.613876 c 0,0 -6.29449,15.600755 -6.13086,15.705168 0.16362,0.104418 6.06229,3.200872 6.06229,3.200872 l 2.63743,-7.849407 3.29064,-6.419455 2.9968,-3.613687 z"
     id="path44" /><path
     style="fill:#62473f;fill-opacity:1;stroke-width:0.599001"
     d="m 127.75388,70.613876 -7.72047,-4.535337 -1.30425,7.203526 -1.85497,7.128383 -3.29668,5.310398 8.04551,0.598198 z"
     id="path45" /><path
     style="fill:#553e37;fill-opacity:1;stroke-width:0.599001"
     d="m 121.31398,77.602481 -4.43979,2.807967 -13.59983,-3.210726 2.97333,-4.744769 z"
     id="path46" /><path
     style="fill:#72534a;fill-opacity:1;stroke-width:0.599001"
     d="m 121.31398,77.602481 -15.06629,-5.147528 0.79614,-4.922337 12.0767,3.587883 z"
     id="path47" /><path
     style="fill:#92907c;fill-opacity:1;stroke-width:0.386714"
     d="m 29.687594,82.450973 19.418867,3.34326 2.146912,-16.837232 -11.796386,-2.416482 1.495498,-8.826276 -17.719913,-2.484072 -2.10166,13.311013 -6.310895,-0.973307 -1.49134,12.111294 z"
     id="path19" /><path
     style="fill:#78594e;fill-opacity:1;stroke-width:0.386714"
     d="m 29.027423,74.486553 8.929688,-7.107446 1.749085,-9.83957 c 0,0 -7.613668,-1.06733 -7.613668,-1.06733 z"
     id="path59" /><path
     style="fill:#78594e;fill-opacity:1;stroke-width:0.386714"
     d="m 29.027423,74.486553 18.267548,3.115928 0.269849,7.926334 -33.063608,-5.650972 1.198605,-6.05339 z"
     id="path60" /><path
     style="fill:#644a41;fill-opacity:1;stroke-width:0.386714"
     d="M 29.027423,74.486553 21.130912,68.541184 16.53658,67.832616 15.699817,73.824453 Z"
     id="path61" /><path
     style="fill:#513c35;fill-opacity:1;stroke-width:0.386714"
     d="m 29.027423,74.486553 -7.896511,-5.945369 2.10166,-13.311013 8.859956,1.242036 z"
     id="path62" /><path
     style="fill:#5f473e;fill-opacity:1;stroke-width:0.386714"
     d="M 47.294971,77.602481 49.825306,68.66446 37.957111,67.379107 29.027423,74.486553 Z"
     id="path63" /><path
     style="fill:#b8b7aa;fill-opacity:1;stroke-width:0.697346"
     d="m 174.89418,137.3234 13.51182,-0.5079 v -12.06247 h 4.02138 l -0.16086,-9.0151 h -3.2171 l -0.64342,-6.7296 -14.79866,1.39671 z"
     id="path20" /><path
     style="fill:#5b433a;fill-opacity:1;stroke-width:0.697346"
     d="m 180.60454,111.23037 c 0,1.26974 1.12598,23.99796 1.12598,23.99796 l -6.9013,0.73623 -1.22188,-25.55952 z"
     id="path36" /><path
     style="fill:#49352e;fill-opacity:1;stroke-width:0.697346"
     d="m 180.60454,111.23037 6.29007,-1.33042 v 25.13793 l -5.16409,0.19045 z"
     id="path37" /><path
     style="fill:#594038;fill-opacity:1;stroke-width:0.697346"
     d="m 184.62591,118.91226 4.42351,-3.17433 h 3.2171 l 0.0577,3.23449 z"
     id="path38" /><path
     style="fill:#6c4e44;fill-opacity:1;stroke-width:0.697346"
     d="m 184.62591,118.91226 3.78009,5.84077 h 4.02138 l -0.10312,-5.78061 z"
     id="path39" /><path
     style="fill:#62473e;fill-opacity:1;stroke-width:0.697346"
     d="m 188.406,124.75303 -1.51139,0.78596 -2.2687,-6.62673 z"
     id="path40" /><path
     style="fill:#523b34;fill-opacity:1;stroke-width:0.697346"
     d="m 184.62591,118.91226 4.42351,-3.17433 -2.15481,-1.57903 z"
     id="path41" /><path
     style="fill:#665041;fill-opacity:1;stroke-width:0.599001"
     d="m 152.22107,11.048301 6.62898,4.419321 -11.6621,17.677287 -7.12001,-4.542081 z"
     id="path167" /><path
     style="fill:#4f3e32;fill-opacity:1;stroke-width:0.599001"
     d="m 158.85005,15.467622 6.01519,4.173804 -12.15313,18.045561 -5.52416,-4.542078 z"
     id="path168" /><path
     style="fill:#665041;fill-opacity:1;stroke-width:0.599001"
     d="m 24.081388,104.79616 6.62898,4.41932 -11.6621,17.67729 -7.12001,-4.54209 z"
     id="path167-7" /><path
     style="fill:#4f3e32;fill-opacity:1;stroke-width:0.599001"
     d="m 30.710368,109.21548 6.01519,4.1738 -12.15313,18.04556 -5.52416,-4.54207 z"
     id="path168-9" /><path
     style="fill:#624d3e;fill-opacity:1;stroke-width:0.599001"
     d="m 172.72181,12.153131 10.68003,-6.1379458 2.94621,4.7875978 -11.17106,6.506223 z"
     id="path169" /><path
     style="fill:#544235;fill-opacity:1;stroke-width:0.599001"
     d="m 175.17699,17.309006 2.82345,5.401393 10.92555,-5.646911 -2.57794,-6.260705 z"
     id="path170" /><path
     style="fill:#665040;fill-opacity:1;stroke-width:0.599001"
     d="m 148.66106,46.893908 6.38346,-4.787599 9.69796,14.731071 -6.13795,4.419323 z"
     id="path171" /><path
     style="fill:#524134;fill-opacity:1;stroke-width:0.599001"
     d="m 155.04452,42.106309 5.76967,-3.682767 8.83865,13.380723 -4.91036,5.033115 z"
     id="path172" /><path
     style="fill:#584638;fill-opacity:1;stroke-width:0.599001"
     d="m 162.69285,48.17837 0.9205,-5.517221 3.15927,-2.29511 2.03989,3.124933 z"
     id="path173" /><path
     style="fill:#4c3d31;fill-opacity:1;stroke-width:0.599001"
     d="m 162.69285,48.17837 4.61456,0.07519 3.37138,-2.245278 -1.86628,-2.517306 z"
     id="path174" /><path
     style="fill:#5d4a3c;fill-opacity:1;stroke-width:0.599001"
     d="m 10.590048,148.86829 6.249864,9.4616 -4.947809,3.73256 -5.815846,-9.98242 z"
     id="path175" /><path
     style="fill:#4d3d31;fill-opacity:1;stroke-width:0.599001"
     d="m 10.590048,148.86829 4.51379,-2.69091 6.510276,8.41996 -4.774202,3.73255 z"
     id="path176" /><path
     style="fill:#4d3d31;fill-opacity:1;stroke-width:0.599001"
     d="m 178.79648,57.170239 -5.55544,5.295024 11.45809,9.895618 5.38183,-6.423471 z"
     id="path177" /><path
     style="fill:#614d3e;fill-opacity:1;stroke-width:0.599001"
     d="m 173.24104,62.465263 -4.07977,5.815846 4.42699,4.513791 -1.82288,3.124932 5.46863,4.687398 7.46512,-8.246349 z"
     id="path178" /><g
     id="g121-2-4-2-2-6-1"
     transform="matrix(1.2071318,0,0,1.2071318,-15.802325,-62.855638)"><path
       style="fill:#212529;fill-opacity:1;stroke-width:0.430694"
       d="m 109.71984,82.013167 17.51845,-0.293522 0.13272,10.33192 -1.92438,6.457448 -6.63577,5.459487 -6.63578,-4.461518 c -0.13272,-0.352223 -2.25617,-6.809673 -2.25617,-6.809673 z"
       id="path119-9-8-3-4-2-0-3" /><path
       style="fill:#cfd9e0;fill-opacity:1;stroke-width:0.362077"
       d="m 111.30734,82.988764 13.85209,-0.262351 0.10494,9.234727 -1.52163,5.771703 -5.247,4.879717 -5.24701,-3.987728 c -0.10494,-0.314819 -1.78398,-6.086522 -1.78398,-6.086522 z"
       id="path119-2-6-9-8-2-2" /><path
       style="fill:#436278;fill-opacity:1;stroke-width:0.362077"
       d="m 118.23338,82.857588 -0.0525,9.103552 h 7.08345 l -0.10494,-9.234727 z"
       id="path120-3-8-1-2-8-8" /><path
       style="fill:#436278;fill-opacity:1;stroke-width:0.362077"
       d="m 118.18092,91.96114 0.31482,10.65142 -5.24701,-3.987728 -1.78398,-6.086523 z"
       id="path121-4-4-5-9-9-1" /></g><path
     style="fill:#77584c;fill-opacity:1;stroke-width:0.398775"
     d="M 49.011888,18.01636 48.254459,13.447245 30.068507,16.701123 27.917183,7.5166042 24.374382,8.3925789 27.306367,21.947937 Z"
     id="path179" /><path
     style="fill:#b8b7aa;fill-opacity:1;stroke-width:0.471014"
     d="m 102.85359,39.952835 -15.026895,-7.386044 -1.912932,2.44293 -6.399554,0.37903 -5.850547,3.925415 -2.764432,7.193419 1.879187,6.368012 -11.010418,19.711469 3.928642,1.412623 -1.867297,4.333066 12.04785,4.877578 1.967542,-3.447918 3.336534,1.389455 10.470773,-17.970136 5.297157,-1.932835 4.65943,-3.84614 1.65998,-5.977738 -2.03405,-6.24818 z"
     id="path21-3-8" /><path
     style="fill:#363c49;fill-opacity:1;stroke-width:0.471014"
     d="M 96.046992,36.607277 71.649966,76.372773 79.513003,80.457139 95.83512,53.085426 102.85359,39.952835 Z"
     id="path75-2-6" /><path
     style="fill:#485162;fill-opacity:1;stroke-width:0.471014"
     d="m 71.649966,76.372773 -7.917646,-3.079399 15.164128,-26.5358 8.930247,-14.190783 8.220297,4.040486 z"
     id="path76-4-3" /><path
     style="fill:#404857;fill-opacity:1;stroke-width:0.471014"
     d="m 99.34435,46.519131 1.97638,4.777675 -5.48561,1.78862 z"
     id="path77-1-9" /><path
     style="fill:#404958;fill-opacity:1;stroke-width:0.471014"
     d="M 101.32073,51.296806 99.7545,56.954888 95.83512,53.085426 Z"
     id="path78-2-4" /><path
     style="fill:#3f4756;fill-opacity:1;stroke-width:0.471014"
     d="m 95.83512,53.085426 3.91938,3.869462 -3.775421,2.87885 z"
     id="path79-9-5" /><path
     style="fill:#383f4c;fill-opacity:1;stroke-width:0.471014"
     d="m 95.83512,53.085426 0.143959,6.748312 -5.068136,1.509433 z"
     id="path80-0-3" /><path
     style="fill:#485162;fill-opacity:1;stroke-width:0.471014"
     d="m 80.280921,44.557466 -4.950368,-3.847037 4.556411,-3.738463 z"
     id="path81-8-8" /><path
     style="fill:#485162;fill-opacity:1;stroke-width:0.471014"
     d="m 80.280921,44.557466 -0.393957,-7.5855 5.361031,-0.30746 z"
     id="path82-7-2" /><path
     style="fill:#434b5b;fill-opacity:1;stroke-width:0.471014"
     d="m 75.330553,40.710429 -2.197847,5.700122 7.148215,-1.853085 z"
     id="path83-4-3" /><path
     style="fill:#404857;fill-opacity:1;stroke-width:0.471014"
     d="m 80.280921,44.557466 -7.148215,1.853085 2.090531,6.774862 z"
     id="path84-5-9" /><path
     style="fill:#303642;fill-opacity:1;stroke-width:0.471014"
     d="m 72.299346,76.710081 -1.925654,3.357964 5.503502,3.142288 1.829612,-3.691429 z"
     id="path85-6-4" /><path
     style="fill:#485162;fill-opacity:1;stroke-width:0.471014"
     d="m 70.373692,80.068045 -5.816379,-2.046967 1.510987,-3.819165 5.581666,2.17086 0.64938,0.337308 z"
     id="path86-8-8" /><path
     style="fill:#e1d6cc;fill-opacity:1;stroke-width:0.599001"
     d="m 94.865808,199.60602 -0.09592,-18.16833 1.718625,-14.73107 3.191732,-19.51867 2.086905,-16.57245 0.71911,-7.80824 8.26987,0.18377 -0.51862,8.7293 -0.85931,11.6621 -3.31449,21.11453 -1.84138,16.94073 -0.49104,11.29382 1.00894,6.87451 z"
     id="path180" /></svg>
