<?xml version="1.0" standalone="no"?>
<svg id="Sinnbild_Wanderer" width="290" height="300" viewBox="0 0 290 300"
xmlns="http://www.w3.org/2000/svg" version="1.1">

<path id="Wanderer" fill="black"
     d="M 94.5637,183.04721 L 72.55075,223.21231 L 111.07915,294.3074 L 100.53526,299.87156 L 65.68461,236.14149 L 37.69246,287.39644 L 37.2184,288.77402 L 33.54065,293.40697 L 31.27743,295.23861 L 28.97597,296.62388 L 26.22339,298.00914 C 19.53311,301.10291 11.55829,300.34871 5.1126701,297.10102 L 51.9141,210.7372 L 11.53535,136.39443 C 5.5255601,137.37951 -0.71359992,131.25354 0.066290079,125.32767 C 0.36449008,122.31856 1.7637101,119.34792 4.1875001,117.48551 L 76.22086,62.982867 L 77.59714,62.043962 L 80.79319,60.212329 L 83.5687,58.82706 L 86.76474,57.895851 L 89.99137,57.449487 L 93.66912,56.964642 L 96.86516,56.964642 L 100.09179,57.449487 L 103.28784,58.380695 L 109.70286,61.143537 L 113.82408,63.914075 L 147.78779,93.01242 C 151.84784,95.536688 153.61408,100.97772 154.21046,105.45675 C 154.7151,125.11988 159.43271,150.43182 133.56616,153.01766 L 133.56616,107.77323 L 118.427,95.298114 L 118.427,165.03871 L 70.2493,165.03871 L 70.2493,93.912845 L 22.0716,130.40699 L 58.78024,198.29286 L 68.88065,179.79952 L 69.32413,179.35316 L 69.80582,177.96789 L 70.2493,177.03668 L 70.2493,171.02615 L 118.427,171.02615 L 118.427,175.65141 L 118.87811,177.03668 L 119.35217,177.96789 L 119.35217,179.35316 L 119.80329,179.79952 L 154.21046,243.08323 L 188.61765,179.79952 L 189.06112,179.35316 L 189.54282,177.96789 L 189.98629,177.03668 L 189.98629,174.7202 L 190.46798,173.81978 L 190.46798,171.02615 L 238.16399,171.02615 C 237.89637,173.42729 238.28633,175.65141 238.6151,177.96789 C 255.75753,209.17492 279.44497,239.80476 289.53774,274.46727 C 291.59452,284.11797 286.63988,295.69267 277.61756,299.87156 L 214.3007,183.04721 L 167.97334,268.45674 L 169.34962,272.63563 L 169.80074,275.39848 L 170.2748,278.16132 L 170.2748,280.93186 L 169.80074,283.6947 C 167.20109,291.93705 165.28958,295.20782 157.88056,299.87156 L 153.75935,292.92213 C 145.93745,300.41028 134.736,302.21113 125.29314,297.10102 L 140.43995,268.45674 L 94.5637,183.04721 z M 190.46798,165.03871 L 238.16399,165.03871 L 238.16399,113.78376 L 270.26971,165.03871 C 276.21833,161.19074 280.12545,154.21822 279.91901,147.03021 C 280.37013,140.95812 278.24453,140.2424 276.69239,135.94037 L 234.49389,68.062186 L 233.56872,67.130978 L 231.74131,64.845284 L 229.89098,62.982867 L 227.6201,61.143537 C 219.46942,56.187353 209.25431,55.371583 201.01187,60.666389 C 196.50071,63.967947 194.97915,66.584566 192.28775,71.309872 L 191.36258,74.072714 L 190.46798,76.835556 L 190.46798,119.7635 L 160.18202,149.80075 C 169.34962,158.18933 181.53742,157.88918 190.46798,149.31591 L 190.46798,165.03871 z M 106.50682,24.195334 C 105.22228,-6.4960701 62.66443,-8.9279871 58.33676,22.332917 C 58.57379,55.525502 104.24359,56.81842 106.50682,24.195334 z M 228.99639,24.195334 C 228.27766,-6.3421511 185.09282,-9.0819051 181.2698,22.332917 C 180.72693,55.310015 227.35248,56.879987 228.99639,24.195334" />

</svg>