<?xml version="1.0" encoding="UTF-8" standalone="no"?>
<!-- Created with Inkscape (http://www.inkscape.org/) -->

<svg
   width="199.60603mm"
   height="199.60602mm"
   viewBox="0 0 199.60603 199.60602"
   version="1.1"
   id="svg5"
   xml:space="preserve"
   xmlns="http://www.w3.org/2000/svg"
   xmlns:svg="http://www.w3.org/2000/svg"><defs
     id="defs2" /><path
     style="fill:#c4c7b5;fill-opacity:1;stroke:none;stroke-width:0.390215"
     d="M 0,99.803006 V -5.9335937e-6 H 99.803028 199.60603 V 99.803006 199.60602 H 99.803028 0 Z"
     id="path15635-8-2" /><g
     id="g114"
     transform="matrix(0.89282138,0,0,0.89282138,17.010041,-17.618948)"><path
       style="fill:#5a3126;fill-opacity:1;stroke-width:1.15616"
       d="m 157.3606,336.29328 2.00027,13.30273 -1.51411,5.84023 h -6.34385 l -29.77901,1.51413 -8.43593,-2.16305 c 0,0 -5.24541,-6.65135 -4.16382,-6.43506 1.08148,0.2163 7.35423,0 8.21951,0.2163 0.86515,0.21631 11.62646,-3.29864 11.62646,-3.29864 l 10.05815,-8.21959 7.7145,-3.02825 v 5.51576 z"
       id="path81-0-0-7-2" /><path
       style="fill:#a76452;fill-opacity:1;stroke-width:1.15616"
       d="m 140.54238,235.17082 24.73319,4.10978 -7.07386,24.34688 2.45707,22.80755 -2.16306,30.06637 0.64884,8.86848 -0.43252,4.32611 v 3.02825 l -2.70288,7.13806 -9.26639,-0.32446 -8.14713,-26.28102 -0.86528,-48.01964 z"
       id="path80-3-6-4-8" /><path
       style="fill:#b96e59;fill-opacity:1;stroke-width:1.15616"
       d="m 114.58575,246.63498 c 0,0 1.94685,25.30764 3.02832,28.33591 1.08148,3.02825 3.8935,9.08479 3.8935,9.08479 l 0.86515,8.13906 3.46098,10.46314 1.29778,18.60222 1.08147,8.43589 -0.43263,9.51741 1.08159,3.46086 0.21633,5.19132 1.87576,7.78697 7.85795,1.29782 c 0,0 6.27287,-3.02825 6.48908,-3.89348 0.21632,-0.86522 1.44174,-8.00328 1.44174,-8.00328 v -11.03153 l 2.45175,-14.92503 0.43263,-16.43917 0.21631,-10.46314 -1.84662,-11.13815 -2.91202,-37.44988 z"
       id="path79-8-1-3-8" /><path
       style="fill:#374437;fill-opacity:1;stroke-width:1.15616"
       d="m 121.7239,104.30645 -12.32943,21.63049 -4.53446,12.38411 -0.87314,18.54746 0.43263,9.73371 1.2978,13.62721 3.24454,7.23268 0.43263,4.66408 -2.59558,6.92174 -3.46098,14.27611 -3.3546,17.69751 -3.350785,39.19064 15.357645,0.2163 11.35731,-2.56798 14.38288,-2.62333 14.70882,-2.16305 0.2163,-19.46742 -2.59569,-19.68373 -1.51411,-16.43915 -0.21633,-6.35866 h 10.38269 l -2.37939,-8.99898 -1.51422,-4.66408 -0.21621,-3.98812 2.81191,-16.22285 2.37939,-16.87177 3.24452,-7.78697 v -4.10978 l 2.23753,-10.71516 -2.67016,-12.42946 -9.51741,-25.091348 -14.05973,-4.57884 z"
       id="path75-0-8-8-7" /><path
       style="fill:#d69785;fill-opacity:1;stroke-width:1.15616"
       d="m 123.53351,38.573301 c -5.35165,1.727794 -7.79541,10.728548 -7.12611,15.574506 0.48246,3.494032 -3.58872,9.067842 -3.61184,11.321512 -0.0266,2.594618 3.35551,1.318969 3.97592,3.588202 0.53491,1.956504 -0.006,1.358724 0.35487,2.574258 0.19975,0.672592 -0.13251,1.398133 0.52675,2.403409 1.02633,1.565034 1.5023,3.640959 1.5023,3.640959 l 7.34163,3.059012 c 0,0 -0.91766,10.706552 0.30591,11.012443 1.22356,0.305911 21.41304,-6.423915 21.41304,-6.423915 l 1.52948,-13.459653 1.52961,-16.824556 -6.7299,-11.624245 -7.95336,-5.200311 z"
       id="path72-1-9-0-5" /><g
       id="g87-2-8-8-8"
       transform="matrix(1.1561615,0,0,1.1561615,1314.2053,91.570185)"><path
         style="fill:#c19183;fill-opacity:1;stroke-width:1"
         d="m -1002.3219,102.783 -0.842,-47.894702 1.4041,-0.467722 0.7475,0.841899 0.4677,47.520525 1.96444,-0.28064 V 57.694627 l 1.26283,-1.262848 1.1979,1.637026 -0.77695,43.685205 -0.0935,3.36759 -6.08042,-0.56126 z"
         id="path83-5-4-8-1" /><path
         style="fill:#1a100d;fill-opacity:1;stroke-width:1"
         d="m -1006.1573,57.601083 3.1055,3.661061 0.2226,12.666408 -3.4684,-3.418351 -0.608,-5.519116 2.6192,2.385381 -0.3274,-1.122532 -2.3853,-2.525697 -0.047,-3.928862 1.5902,1.590254 -1.029,-1.870887 z"
         id="path84-0-1-0-2" /><path
         style="fill:#432f29;fill-opacity:1;stroke-width:1"
         d="m -998.62694,73.600246 c -0.0936,-0.420505 -1.91766,-3.277134 -1.91766,-3.277134 l 1.96444,1.91766 v -4.022408 l -1.96444,-2.759556 v -6.594876 l 1.99497,3.671615 z"
         id="path87-9-4-6-5" /><path
         style="fill:#1a100d;fill-opacity:1;stroke-width:1"
         d="m -1000.9446,62.136396 c 0.4,-0.138729 2.36444,-3.272464 2.36444,-3.272464 v 2.057975 l -1.06148,2.011203 v 0.701583 l 2.184,-2.198292 -0.0468,4.328416 v 3.482536 l -2.13722,1.824114 1.9635,-1.133634 -3.15864,3.158625 z"
         id="path85-4-3-8-7" /><path
         style="fill:#1a100d;fill-opacity:1;stroke-width:1"
         d="m -996.11943,62.792794 c -0.0796,-0.246415 2.87129,-2.338609 2.87129,-2.338609 l -0.49692,6.548104 -2.56542,1.809578 2.56542,-0.733819 v 1.964431 l -2.65059,3.557767 z"
         id="path86-7-9-1-4" /></g><path
       style="fill:#695e3c;fill-opacity:1;stroke-width:1.15616"
       d="m 148.32935,201.12517 h 16.94622 l -2.45384,46.80763 -2.16306,38.50223 -3.63151,15.35217 -7.40001,0.87068 -2.59569,-34.39245 -0.28869,-4.3536 5.69641,-0.8377 0.2163,-19.46742 -2.59569,-19.68373 -1.51411,-16.43915 z"
       id="path76-8-8-9-4" /><path
       style="fill:#b3a389;fill-opacity:1;stroke-width:1.15616"
       d="M -36.968988,60.160836 C 15.809563,161.33162 138.75299,257.87357 194.3802,292.19474 93.333303,215.30913 22.010161,137.85338 -36.968988,60.160836 Z"
       id="path71-3-8-8-4" /><path
       style="fill:#7d6044;fill-opacity:1;stroke:#000000;stroke-width:0.692541;stroke-dasharray:none;stroke-opacity:1"
       d="M -36.968988,60.160836 194.3802,292.19474 Z"
       id="path92-0-9-4" /><path
       style="fill:#d49280;fill-opacity:1;stroke-width:1.15616"
       d="m 82.031938,167.35929 -9.716839,5.61001 -5.640802,-0.41869 -8.831215,-1.97097 -3.822614,0.78128 -4.001592,5.42868 -0.865283,3.76429 1.514106,2.92012 h 1.189705 c 0,0 0.97336,2.92009 1.514222,2.92009 0.540727,0 2.487485,0.32446 2.487485,0.32446 l 1.514107,3.24456 4.07257,-0.42036 1.341273,1.90434 3.779141,-0.40245 1.953788,-4.35278 7.126478,-1.27114 4.977841,-6.70545 9.627253,-4.21793 z"
       id="path78-5-8-7-4" /><path
       style="fill:#586d58;fill-opacity:1;stroke-width:1.15616"
       d="m 126.48254,108.84887 -14.01315,28.74566 -0.34418,1.95013 -5.32632,5.8597 -18.602296,15.14134 -16.006483,10.38261 v 1.94676 l 5.191277,3.91453 1.514126,6.03549 c 0,0 -0.86852,6.05652 1.728795,4.32609 2.597314,-1.73045 7.572285,-3.89348 7.572285,-3.89348 l 1.297915,-3.67719 2.811887,1.29782 3.677171,-2.81195 1.514106,-3.02827 3.244657,0.86521 12.18814,-6.48913 10.52384,-7.78698 9.95006,-6.92175 5.19127,-9.08479 9.08478,-12.76198 5.512,-7.00311 4.22171,-18.30455 -13.84354,-12.545676 z"
       id="path74-1-7-2-2" /><path
       style="fill:#374437;fill-opacity:1;stroke-width:1.15616"
       d="m 162.53038,253.1199 10.62211,-4.32189 -8.86556,-28.81343 -1.4652,27.94822 z"
       id="path77-2-7-2-9" /><path
       style="fill:#703d2f;fill-opacity:1;stroke-width:1.15616"
       d="m 129.07824,347.86558 8.65212,3.46086 9.01241,-6.27283 2.01922,14.92503 -2.01922,3.67719 -9.01241,1.51412 -11.24782,1.7101 h -14.05986 l -6.92171,-2.79163 -3.18209,-3.89347 8.15718,0.43261 11.24784,-3.67719 z"
       id="path82-1-3-8-3" /><path
       style="fill:#30221d;fill-opacity:1;stroke-width:1.15616"
       d="m 108.96184,187.46211 c 0,0 22.31483,-1.03813 23.92073,-1.03813 1.60604,0 21.71965,-2.94999 21.71965,-2.94999 l 0.21621,3.98812 -21.32402,3.39744 -24.09994,1.26664 z"
       id="path88-8-2-0" /><path
       style="fill:#30221d;fill-opacity:1;stroke-width:1.15616"
       d="m 117.20515,184.74153 2.37071,13.38318 2.67663,9.02406 3.05909,8.10639 1.6059,0.38238 1.14714,-0.99418 -0.45877,-9.63589 -1.52959,-9.40646 -1.91184,-12.12702 z"
       id="path89-3-8-7" /><path
       style="fill:#d1c7c4;fill-opacity:1;stroke-width:1.15616"
       d="m 118.9076,184.43146 -6.36744,0.0807 -0.0763,-1.03812 16.05978,-2.9386 0.38234,1.30007 -6.42478,1.94512 z"
       id="path90-7-9-7" /><path
       style="fill:#7d6044;fill-opacity:1;stroke-width:1.15616"
       d="m 117.20515,172.96383 1.52613,9.36341 3.14904,-0.57621 -1.87784,-9.38206 0.68249,-3.67717 -1.54764,-1.73043 -2.86613,0.39792 -1.13558,2.08958 z"
       id="path91-1-0-8" /><path
       style="fill:#352913;fill-opacity:1;stroke:none;stroke-width:1.15376;stroke-dasharray:none;stroke-opacity:1"
       d="m 116.77148,69.057521 3.35495,0.114221 1.80179,1.441433 2.16216,1.441452 4.41442,-0.63064 4.30286,-3.162658 -0.70479,3.27499 -4.21434,7.138055 -3.172,1.318929 -2.99263,3.547927 -1.86775,2.126602 -2.7928,0.891305 0.27028,-1.351346 -2.53152,2.522502 -1.07209,-0.09014 1.07209,-3.063057 1.54051,-3.063057 0.63064,-3.153162 0.67984,-4.325724 -1.43953,-0.757631 0.0318,-1.688134 z"
       id="path97-6-2" /><path
       style="fill:#352913;fill-opacity:1;stroke:none;stroke-width:1.15376;stroke-dasharray:none;stroke-opacity:1"
       d="m 119.18442,42.534694 2.17461,0.514706 c 1.91867,-0.286342 3.48141,-1.276324 5.50654,-0.07223 0.43684,1.61964 2.93072,6.948001 2.16634,7.606705 l 2.33139,2.583003 1.44436,-7.918857 -4.02848,-6.818775 -7.69295,1.57399 z"
       id="path98-1-5" /><path
       style="fill:#71534a;fill-opacity:1;stroke-width:1.15616"
       d="m 118.51886,43.409339 c 0.9144,-1.926533 4.51507,-2.70123 6.19035,-2.747207 7.32312,6.007964 8.80325,24.324186 8.80325,24.324186 l -1.40959,6.549982 -4.21434,7.138054 -5.06224,0.531309 -1.10239,4.335547 0.19011,2.470747 1.22368,3.517859 -2.52368,2.906057 -5.12388,6.576871 -5.88856,8.871146 -4.43561,10.93595 -3.05898,8.48877 -2.141314,8.79466 4.894384,2.21778 5.35324,1.45303 1.91196,-0.22942 0.68825,-3.90024 0.30593,-4.89442 4.58845,-3.13548 6.19449,-1.2236 11.47131,-0.53534 13.53612,0.30589 8.56518,-0.6118 6.04165,0.53533 1.75886,1.68246 1.52959,2.14131 0.91766,4.89442 4.20611,-4.05319 0.45888,-1.30009 0.7648,-2.21777 -4.12968,-9.48295 -4.28266,-14.45383 -4.1297,-11.537626 -3.05897,-4.675127 -2.90613,-2.829569 -0.38234,-3.1355 1.14715,-1.911875 -0.38236,-1.529516 c 0,0 0.68827,1.758939 1.07061,1.758939 0.38234,0 1.98837,-0.68827 1.98837,-0.68827 l 1.98838,-2.370741 -0.30593,-5.200311 c 0,0 -0.76468,-1.605984 -0.76468,-1.911895 0,-0.305891 -0.0763,-5.888581 -0.0763,-5.888581 l -1.60591,-7.494584 -2.67674,-6.347447 -3.3702,-6.95925 -4.43018,-4.359085 -6.65336,-3.747282 -7.26522,-2.217786 -5.73559,-0.68829 -4.66511,0.382379 -3.21195,1.988362 -1.37663,3.82377 z"
       id="path73-0-8-2-2" /></g><path
     style="fill:#272727;fill-opacity:1;stroke:none;stroke-width:0.0588478"
     d="M 4.539704,99.803009 V -4e-6 H 2.269852 0 v 99.803013 99.803011 h 2.269852 2.269852 z"
     id="path15635-8-2-6" /><path
     style="fill:#272727;fill-opacity:1;stroke:none;stroke-width:0.0588478"
     d="M 199.60602,99.803009 V -3e-6 h -2.26985 -2.26985 v 99.803011 99.803012 h 2.26985 2.26985 z"
     id="path15635-8-2-6-73" /><path
     style="fill:#272727;fill-opacity:1;stroke:none;stroke-width:0.0588478"
     d="M 99.803009,4.539702 H 199.60602 V 2.26985 -2e-6 H 99.803009 0 V 2.26985 4.539702 Z"
     id="path15635-8-2-6-7" /><path
     style="fill:#272727;fill-opacity:1;stroke:none;stroke-width:0.0588478"
     d="m 99.803011,199.60602 h 99.803009 v -2.26985 -2.26985 H 99.803011 2e-6 v 2.26985 2.26985 z"
     id="path15635-8-2-6-7-5" /></svg>
