<?xml version="1.0" encoding="UTF-8" standalone="no"?>
<!-- Created with Inkscape (http://www.inkscape.org/) -->

<svg
   width="199.60603mm"
   height="199.60602mm"
   viewBox="0 0 199.60603 199.60602"
   version="1.1"
   id="svg5"
   xml:space="preserve"
   xmlns="http://www.w3.org/2000/svg"
   xmlns:svg="http://www.w3.org/2000/svg"><defs
     id="defs2" /><g
     id="layer1"
     transform="translate(-5.0569874,-38.518039)"><path
       style="fill:#699361;fill-opacity:1;stroke:none;stroke-width:0.390215"
       d="M 5.0569874,138.32105 V 38.518039 H 104.86 204.66301 v 99.803011 99.80301 H 104.86 5.0569874 Z"
       id="path15635-8" /><path
       style="fill:#5a3126;fill-opacity:1;stroke-width:0.600245"
       d="m 157.73534,211.24991 1.03848,6.90639 -0.78608,3.03208 h -3.29354 l -15.4604,0.78609 -4.37969,-1.12299 c 0,0 -2.72326,-3.45319 -2.16173,-3.3409 0.56147,0.1123 3.8181,0 4.26733,0.1123 0.44916,0.1123 6.03612,-1.71256 6.03612,-1.71256 l 5.2219,-4.26737 4.00514,-1.57218 v 2.86362 z"
       id="path81-0-0" /><path
       style="fill:#a76452;fill-opacity:1;stroke-width:0.600245"
       d="m 149.00381,158.75007 12.84075,2.13368 -3.67254,12.64019 1.27564,11.84102 -1.123,15.60958 0.33686,4.60426 -0.22455,2.24599 v 1.57218 l -1.40326,3.70587 -4.81084,-0.16845 -4.22975,-13.64434 -0.44923,-24.9304 z"
       id="path80-3-6" /><path
       style="fill:#b96e59;fill-opacity:1;stroke-width:0.600245"
       d="m 135.52788,164.70193 c 0,0 1.01075,13.13899 1.57222,14.71118 0.56147,1.57218 2.02139,4.71656 2.02139,4.71656 l 0.44916,4.22556 1.79684,5.43216 0.67377,9.65773 0.56147,4.37967 -0.22461,4.94116 0.56153,1.79678 0.11231,2.69518 0.97384,4.04277 4.07962,0.67379 c 0,0 3.25669,-1.57218 3.36894,-2.02138 0.11231,-0.4492 0.74851,-4.15507 0.74851,-4.15507 v -5.72725 l 1.27288,-7.74864 0.22461,-8.53474 0.1123,-5.43216 -0.95871,-5.7826 -1.51184,-19.44289 z"
       id="path79-8-1" /><path
       style="fill:#374437;fill-opacity:1;stroke-width:0.600245"
       d="m 139.2338,90.809109 -6.40108,11.229911 -2.35416,6.42947 -0.45331,9.6293 0.22461,5.05346 0.67378,7.07485 1.68447,3.755 0.22461,2.42145 -1.34755,3.59357 -1.79684,7.41174 -1.74161,9.18803 -1.73963,20.34664 7.97324,0.1123 5.89639,-1.33322 7.46717,-1.36196 7.63639,-1.12299 0.1123,-10.10692 -1.34761,-10.21922 -0.78608,-8.53473 -0.11231,-3.30123 h 5.39039 l -1.23531,-4.67201 -0.78614,-2.42145 -0.11225,-2.07052 1.45986,-8.42243 1.23531,-8.75933 1.68446,-4.04277 v -2.13368 l 1.16166,-5.563 -1.38627,-6.453005 -4.94116,-13.026698 -7.2994,-2.377199 z"
       id="path75-0-8" /><path
       style="fill:#d69785;fill-opacity:1;stroke-width:0.600245"
       d="m 140.1733,56.682366 c -2.77842,0.897022 -4.04715,5.569947 -3.69967,8.085825 0.25048,1.813999 -1.86316,4.707762 -1.87516,5.877803 -0.0138,1.347055 1.74208,0.68477 2.06418,1.862889 0.27771,1.015766 -0.003,0.705409 0.18424,1.336482 0.1037,0.34919 -0.0688,0.725874 0.27347,1.247777 0.53284,0.812523 0.77995,1.890286 0.77995,1.890286 l 3.81156,1.58815 c 0,0 -0.47642,5.558522 0.15882,5.717337 0.63524,0.158815 11.11703,-3.335113 11.11703,-3.335113 l 0.79406,-6.987857 0.79413,-8.734821 -3.49397,-6.034968 -4.12915,-2.699854 z"
       id="path72-1-9" /><g
       id="g87-2-8"
       transform="matrix(0.60024539,0,0,0.60024539,758.33543,84.196804)"><path
         style="fill:#c19183;fill-opacity:1;stroke-width:1"
         d="m -1002.3219,102.783 -0.842,-47.894702 1.4041,-0.467722 0.7475,0.841899 0.4677,47.520525 1.96444,-0.28064 V 57.694627 l 1.26283,-1.262848 1.1979,1.637026 -0.77695,43.685205 -0.0935,3.36759 -6.08042,-0.56126 z"
         id="path83-5-4" /><path
         style="fill:#1a100d;fill-opacity:1;stroke-width:1"
         d="m -1006.1573,57.601083 3.1055,3.661061 0.2226,12.666408 -3.4684,-3.418351 -0.608,-5.519116 2.6192,2.385381 -0.3274,-1.122532 -2.3853,-2.525697 -0.047,-3.928862 1.5902,1.590254 -1.029,-1.870887 z"
         id="path84-0-1" /><path
         style="fill:#432f29;fill-opacity:1;stroke-width:1"
         d="m -998.62694,73.600246 c -0.0936,-0.420505 -1.91766,-3.277134 -1.91766,-3.277134 l 1.96444,1.91766 v -4.022408 l -1.96444,-2.759556 v -6.594876 l 1.99497,3.671615 z"
         id="path87-9-4" /><path
         style="fill:#1a100d;fill-opacity:1;stroke-width:1"
         d="m -1000.9446,62.136396 c 0.4,-0.138729 2.36444,-3.272464 2.36444,-3.272464 v 2.057975 l -1.06148,2.011203 v 0.701583 l 2.184,-2.198292 -0.0468,4.328416 v 3.482536 l -2.13722,1.824114 1.9635,-1.133634 -3.15864,3.158625 z"
         id="path85-4-3" /><path
         style="fill:#1a100d;fill-opacity:1;stroke-width:1"
         d="m -996.11943,62.792794 c -0.0796,-0.246415 2.87129,-2.338609 2.87129,-2.338609 l -0.49692,6.548104 -2.56542,1.809578 2.56542,-0.733819 v 1.964431 l -2.65059,3.557767 z"
         id="path86-7-9" /></g><path
       style="fill:#695e3c;fill-opacity:1;stroke-width:0.600245"
       d="m 153.04658,141.07456 h 8.79798 l -1.27396,24.30116 -1.123,19.98924 -1.88537,7.9704 -3.84187,0.45203 -1.34761,-17.85556 -0.14988,-2.26026 2.95741,-0.43491 0.1123,-10.10692 -1.34761,-10.21922 -0.78608,-8.53473 z"
       id="path76-8-8" /><path
       style="fill:#b3a389;fill-opacity:1;stroke-width:0.600245"
       d="M 56.845074,67.889986 C 84.246156,120.41491 148.07481,170.53668 176.95484,188.35523 124.49423,148.43846 87.465332,108.22569 56.845074,67.889986 Z"
       id="path71-3-8" /><path
       style="fill:#7d6044;fill-opacity:1;stroke:#000000;stroke-width:0.359547;stroke-dasharray:none;stroke-opacity:1"
       d="M 56.845074,67.889986 176.95484,188.35523 Z"
       id="path92-0" /><path
       style="fill:#d49280;fill-opacity:1;stroke-width:0.600245"
       d="m 118.62689,123.5443 -5.0447,2.91255 -2.92854,-0.21737 -4.58491,-1.02327 -1.98459,0.40562 -2.07751,2.81841 -0.44923,1.95431 0.78608,1.51604 h 0.61766 c 0,0 0.50534,1.51603 0.78614,1.51603 0.28073,0 1.29143,0.16845 1.29143,0.16845 l 0.78608,1.68448 2.11436,-0.21824 0.69635,0.98868 1.96202,-0.20894 1.01435,-2.25984 3.69986,-0.65994 2.58435,-3.48127 4.99819,-2.18983 z"
       id="path78-5-8" /><path
       style="fill:#586d58;fill-opacity:1;stroke-width:0.600245"
       d="m 141.70435,93.167391 -7.27522,14.923909 -0.17869,1.01245 -2.76527,3.04219 -9.65777,7.86094 -8.3101,5.39035 v 1.0107 l 2.69516,2.03231 0.78609,3.13345 c 0,0 -0.45091,3.14437 0.89754,2.24598 1.34845,-0.8984 3.93131,-2.02138 3.93131,-2.02138 l 0.67384,-1.90909 1.45985,0.67379 1.90908,-1.45988 0.78608,-1.57219 1.68453,0.44919 6.32773,-3.36897 5.46367,-4.04277 5.16578,-3.59357 2.69516,-4.71656 4.71655,-6.62565 2.86167,-3.63581 2.19179,-9.503183 -7.18716,-6.513349 z"
       id="path74-1-7" /><path
       style="fill:#374437;fill-opacity:1;stroke-width:0.600245"
       d="m 160.41934,168.06871 5.51469,-2.2438 -4.60274,-14.95909 -0.76069,14.5099 z"
       id="path77-2-7" /><path
       style="fill:#703d2f;fill-opacity:1;stroke-width:0.600245"
       d="m 143.05196,217.25791 4.49193,1.79678 4.67898,-3.25667 1.04832,7.74864 -1.04832,1.90909 -4.67898,0.78609 -5.83954,0.88783 h -7.29947 l -3.59355,-1.44933 -1.65205,-2.02138 4.23497,0.2246 5.83955,-1.90909 z"
       id="path82-1-3" /><path
       style="fill:#30221d;fill-opacity:1;stroke-width:0.600245"
       d="m 132.60811,133.9811 c 0,0 11.58521,-0.53897 12.41895,-0.53897 0.83381,0 11.27621,-1.53155 11.27621,-1.53155 l 0.11225,2.07052 -11.07081,1.76385 -12.51199,0.6576 z"
       id="path88-8" /><path
       style="fill:#30221d;fill-opacity:1;stroke-width:0.600245"
       d="m 136.8878,132.56865 1.2308,6.94816 1.38963,4.68503 1.58819,4.2086 0.83374,0.19852 0.59556,-0.51615 -0.23818,-5.00267 -0.79412,-4.88356 -0.99257,-6.296 z"
       id="path89-3" /><path
       style="fill:#d1c7c4;fill-opacity:1;stroke-width:0.600245"
       d="m 137.77166,132.40767 -3.30579,0.0419 -0.0396,-0.53896 8.33777,-1.52564 0.1985,0.67496 -3.33556,1.00985 z"
       id="path90-7" /><path
       style="fill:#7d6044;fill-opacity:1;stroke-width:0.600245"
       d="m 136.8878,126.45401 0.79232,4.86121 1.63489,-0.29915 -0.97492,-4.87089 0.35433,-1.90908 -0.80349,-0.89839 -1.48801,0.20659 -0.58956,1.08485 z"
       id="path91-1" /><path
       style="fill:#563b20;fill-opacity:1;stroke:none;stroke-width:0.436067;stroke-dasharray:none;stroke-opacity:1"
       d="m 58.467986,188.18953 c 0.770433,0 33.514877,-0.19261 33.514877,-0.19261 l 2.696551,22.1207 3.604355,10.75971 5.668861,3.71629 -11.199334,0.57785 -8.667677,-4.29414 1.259205,2.75322 -2.607444,3.49912 -9.05293,-2.53605 v -3.71629 l -3.27443,3.71629 -11.74948,2.53605 1.733564,-5.04003 0.192627,-2.88921 -3.467057,5.20058 -9.052857,2.72866 H 42.67357 l 7.897172,-4.84742 3.274503,-6.7415 3.659609,-18.10573 z"
       id="path93-7" /><g
       id="g97"
       transform="translate(-7.8660213e-5,0.11870366)"><path
         style="fill:#c2a180;fill-opacity:1;stroke:none;stroke-width:0.436067;stroke-dasharray:none;stroke-opacity:1"
         d="m 73.313102,176.05484 29.648738,-21.32906 2.47801,1.37679 1.70255,2.79208 -1.22579,0.81719 -1.96398,0.1362 -7.365662,4.35836 -13.143219,9.05722 -8.239982,5.58416 -4.63075,3.26877 -1.974893,-2.01338 c 0,0 -0.681036,-0.5744 0.476688,-0.983 1.157651,-0.40859 4.23829,-3.06533 4.23829,-3.06533 z"
         id="path94-3" /><path
         style="fill:#33302e;fill-opacity:1;stroke:none;stroke-width:0.436067;stroke-dasharray:none;stroke-opacity:1"
         d="m 71.105615,177.83552 1.782777,2.64664 -2.315375,1.63439 0.81717,1.63439 0.272414,1.97487 v 2.27111 h 3.677373 l 3.268752,-1.79441 1.430065,-1.43009 0.544828,-0.81719 h -1.974893 l -1.566273,-1.02149 -0.953449,-1.77059 -0.885237,-2.31537 -1.220113,0.86124 -1.868679,-2.66093 z"
         id="path95-4" /><path
         style="fill:#c2bebb;fill-opacity:1;stroke:none;stroke-width:0.599001;stroke-dasharray:none;stroke-opacity:1"
         d="m 71.6626,187.61075 c 0,0.0165 2.500246,-0.97566 2.599465,-0.97566 0.09922,0 1.918229,-1.02526 1.918229,-1.02526 l 1.53789,-0.99218 0.752467,-0.75247 0.138073,0.09 h 1.974895 l -0.54483,0.81719 -1.430065,1.43009 -3.268752,1.79441 H 71.6626 Z"
         id="path96" /></g><path
       style="fill:#352913;fill-opacity:1;stroke:none;stroke-width:0.599001;stroke-dasharray:none;stroke-opacity:1"
       d="m 136.66265,72.508882 1.74179,0.05929 0.93544,0.748356 1.12253,0.748355 2.29184,-0.327406 2.23392,-1.641964 -0.36591,1.700278 -2.18796,3.705871 -1.64681,0.684755 -1.55369,1.841973 -0.96968,1.104075 -1.44994,0.462737 0.14032,-0.701582 -1.31429,1.309619 -0.5566,-0.04677 0.5566,-1.590254 0.79979,-1.590254 0.32741,-1.637025 0.35295,-2.245796 -0.74736,-0.393333 0.0165,-0.876432 z"
       id="path97" /><path
       style="fill:#352913;fill-opacity:1;stroke:none;stroke-width:0.599001;stroke-dasharray:none;stroke-opacity:1"
       d="m 137.91538,58.739005 1.12899,0.267219 c 0.99612,-0.148663 1.80745,-0.662632 2.85884,-0.03746 0.22679,0.840875 1.52154,3.607205 1.1247,3.949177 l 1.21039,1.341021 0.74987,-4.11124 -2.09147,-3.540104 -3.99396,0.817163 z"
       id="path98" /><path
       style="fill:#71534a;fill-opacity:1;stroke-width:0.600245"
       d="m 137.56984,59.193093 c 0.47473,-1.000196 2.34409,-1.402402 3.21385,-1.42627 3.80195,3.119159 4.57039,12.628413 4.57039,12.628413 l -0.73182,3.400559 -2.18796,3.70587 -2.62817,0.275838 -0.57233,2.250892 0.0987,1.28274 0.6353,1.826372 -1.31022,1.508742 -2.66017,3.41452 -3.05717,4.605633 -2.30284,5.677634 -1.58813,4.407114 -1.11171,4.56593 2.54102,1.15141 2.77925,0.75437 0.99263,-0.11911 0.35732,-2.02489 0.15883,-2.54104 2.38219,-1.62785 3.216,-0.63526 5.95557,-0.27793 7.02756,0.15881 4.44679,-0.31763 3.13665,0.27793 0.91315,0.87348 0.79412,1.11171 0.47642,2.54104 2.18369,-2.1043 0.23824,-0.67497 0.39706,-1.1514 -2.14401,-4.923267 -2.22343,-7.504004 -2.14402,-5.990009 -1.58813,-2.427183 -1.50878,-1.469037 -0.1985,-1.627854 0.59557,-0.992593 -0.19851,-0.794074 c 0,0 0.35733,0.913185 0.55583,0.913185 0.1985,0 1.0323,-0.357333 1.0323,-0.357333 l 1.03231,-1.230816 -0.15883,-2.699854 c 0,0 -0.397,-0.833778 -0.397,-0.992593 0,-0.158815 -0.0396,-3.057187 -0.0396,-3.057187 l -0.83374,-3.890966 -1.38969,-3.295409 -1.74971,-3.61304 -2.30002,-2.263113 -3.45423,-1.945482 -3.77189,-1.151409 -2.97775,-0.357333 -2.42199,0.198518 -1.66755,1.032298 -0.71471,1.985186 z"
       id="path73-0-8" /></g></svg>
